<?xml version="1.0" encoding="UTF-8"?>
<svg id="katman_1" xmlns="http://www.w3.org/2000/svg" version="1.1" viewBox="0 0 160 160">
  <!-- Generator: Adobe Illustrator 30.1.0, SVG Export Plug-In . SVG Version: 2.1.1 Build 89)  -->
  <defs>
    <style>
      .st0 {
        font-size: 21.2px;
      }

      .st0, .st1 {
        font-family: RubikDistressed-Regular, 'Rubik Distressed';
      }

      .st0, .st1, .st2 {
        fill: #517015;
      }

      .st1 {
        font-size: 26.9px;
      }

      .st3 {
        fill: #fff;
        stroke: #517015;
        stroke-miterlimit: 10;
      }
    </style>
  </defs>
  <circle class="st3" cx="80" cy="80" r="75.6"/>
  <g>
    <g>
      <path class="st2" d="M84.4,17.9c-1.4.4-2.8,1.2-3.9,2.1s-2.1,2.1-2.7,3.4-.7,1.6-.9,2.4,0,.3,0,.5.2.2.4.3c.8.1,1.6,0,2.4-.2s1.5-.7,2.1-1.2c1.3-1,2.1-2.5,2.6-4.1s.4-1.9.5-2.8-.3-.6-.6-.6-.5.3-.6.6,0,.6,0,.9v-.2c0,.6-.2,1.3-.4,1.9s-.2.6-.3.9,0,0,0,.1,0,0,0,0c0,0,0,0,0,0,0,0,0,.1-.1.2,0,.1-.1.3-.2.4-.1.3-.3.5-.5.8s0,.1-.1.2,0,0,0,0c0,0,0,0,0,0,0,0,0,0,0,0,0,.1-.2.2-.3.3-.2.2-.4.4-.7.6s0,0,0,0,0,0,0,0,0,0,0,0c0,0-.1,0-.2.1-.1,0-.2.2-.4.2s-.3.1-.4.2,0,0,0,0c0,0,0,0,0,0,0,0,0,0-.1,0,0,0-.1,0-.2,0-.3.1-.6.2-1,.2h.2c-.4,0-.8,0-1.2,0h.2s0,0,0,0l.4.7c.1-.5.3-1.1.5-1.6h0c.2-.4.5-.9.8-1.5s.3-.5.5-.7,0-.1.1-.2,0,0,0,0,0,.1,0,0,0,0,0-.1c0-.1.2-.2.3-.3.4-.5.8-.9,1.3-1.3s.2-.2.3-.3,0,0,0,0c0,0,0,0,0,0s0,0,0,0c0,0,.1,0,.2-.1.2-.2.5-.3.7-.5s.6-.3.9-.5.1,0,.2-.1,0,0,.1,0,0,0,0,0,0,0,0,0c.2,0,.3-.1.5-.2s.4-.3.3-.5-.3-.4-.5-.3h0Z"/>
      <path class="st2" d="M78.6,25.5c-.6,0-1.2.2-1.7.4s-1.1.3-1.7.5c-1.2.3-2.3.5-3.5.7s0,0,0,0-.1,0,0,0,0,0,0,0c0,0,0,0-.1,0-.2,0-.3,0-.5,0-.3,0-.6,0-.9.1-.6,0-1.2.1-1.8.1-1.2,0-2.4.1-3.6.1-2.3,0-4.7,0-7,.2s-4.6.4-6.9.9-4.4,1.3-6.3,2.5-.5.3-.7.5-.4.5-.2.8.5.4.8.2c1-.6,1.9-1.1,3-1.6s.1,0,0,0c0,0,0,0,0,0,0,0,.1,0,.2,0,.1,0,.3-.1.4-.2.3,0,.5-.2.8-.3.5-.2,1.1-.3,1.6-.5,1.1-.3,2.2-.5,3.3-.7s.1,0,.2,0,.2,0,0,0c.2,0,.3,0,.5,0,.3,0,.6,0,.8,0,.6,0,1.1-.1,1.7-.1,2.3-.2,4.7-.2,7-.2s4.9-.2,7.3-.5,2.3-.4,3.5-.7,1.1-.4,1.7-.6,1.1-.5,1.6-.8.5-.3.7-.5,0-.1,0-.1h0Z"/>
      <path class="st2" d="M61.4,28.3c.5,0,1.1,0,1.6-.3s.9-.7,1.2-1.2.5-1.1.7-1.6.2-.5.3-.8,0-.1,0-.2,0,0,0,0c0,.1,0,0,0,0,0-.1.1-.2.2-.4.2-.4.4-.9.7-1.3s.3-.4.4-.6.1-.2.2-.3,0-.1.1-.1,0,0,0,0c0,0,0,0,0,0,.6-.8,1.3-1.5,2.1-2.1s.1,0,.2-.1,0,0,0,0c0,0,0,0,0,0,.1,0,.2-.2.3-.2.2-.2.5-.3.7-.5.5-.3,1-.6,1.5-.8l-.8-.6c-.1.9-.4,1.8-.8,2.7s0,0,0,.1c0,0,0,0,0,0s0,0,0,0c0,.1,0,.2-.1.3,0,.2-.2.4-.3.6-.2.4-.4.8-.7,1.2s-.3.4-.4.6-.1.2-.2.3,0,0,0,.1,0,0,0,0c0,.1,0-.1,0,0-.3.4-.6.7-.9,1s-.6.7-1,1-.3.3-.5.4,0,0-.1.1,0,0,0,0c0,0,0,0,0,0,0,0-.2.1-.3.2-.8.6-1.8,1.1-2.7,1.5s-.4.6-.2.9.2.3.4.3.3,0,.5,0c.9-.4,1.7-.9,2.4-1.4s1.5-1.2,2.2-1.9c1.3-1.4,2.4-3.1,3.1-4.9s.4-1,.5-1.5.3-1,.4-1.6,0-.4-.2-.5-.4-.1-.6,0c-1.8.8-3.4,2-4.7,3.5s-1.2,1.6-1.7,2.5-.4.9-.6,1.4-.3,1-.5,1.6,0,0,0,0,0,.1,0,0c0,0,0,.1,0,.2,0,.1-.1.3-.2.4s0,.1-.1.2,0,0,0,0c0,0,0,0,0,0,0,0,0,0,0,0,0,.1-.2.2-.3.3-.2.2-.3.3-.6.5s-.5.2-.7.2-.3.1-.3.3,0,.3.2.3h0Z"/>
      <path class="st2" d="M52.3,29.3c.4,0,.7.2,1.1.3s.2,0,.2,0,0,0,0,0,0,0,0,0c0,0,0,0,.1,0,.2,0,.3.2.5.3.3.2.6.4.9.6s0,0,0,0c-.1,0,0,0,0,0s0,0,.1,0c0,0,.1.1.2.2.1.1.3.2.4.4,1.1,1,2.2,2.2,3.4,3.2s1.5,1.1,2.4,1.4.6,0,.7-.3c.8-1.5.3-3.3-.7-4.6s-1.1-1.2-1.8-1.6-1.7-.7-2.6-.9-2-.3-3.1-.4-.6.3-.6.6.3.6.6.6.8,0,1.3,0,.4,0,.6,0,.2,0,.3,0,0,0,0,0,0,0,0,0c0,0,.1,0,.2,0,.4,0,.8.2,1.2.3s.4.1.6.2.2,0,.3,0,0,0,0,0c0,0,0,0,0,0s.1,0,.2,0c.4.2.7.4,1,.6s.2.1,0,0c0,0,0,0,0,0,0,0,.1.1.2.2.1.1.2.3.4.4s0,0,0,0,0,0,0,0c0,0,0,0,0,0,0,0,.1.2.2.2,0,.1.2.3.3.5s0,.1.1.2,0,0,0,.1,0-.1,0,0,0,0,0,0c0,.2.1.3.2.5s0,.2,0,.3,0,.2,0,0,0,0,0,0c0,.2,0,.4,0,.5s0,.2,0,0,0,0,0,0c0,0,0,.2,0,.3s0,.2,0,.3,0,0,0,.1c0-.2,0,0,0,0l.7-.3c0,0-.2,0-.3,0-.2,0,.1,0,0,0s0,0-.1,0c-.2,0-.3-.2-.5-.3-.3-.2-.7-.4-1-.6s0,0-.1,0-.2-.1,0,0c0,0-.2-.1-.2-.2-.1-.1-.3-.2-.4-.4-.3-.3-.6-.5-.9-.8-.6-.5-1.1-1.1-1.7-1.6s-1.2-1-1.9-1.3-1.6-.7-2.5-.7-.3.1-.3.3,0,.4.3.4h0Z"/>
      <path class="st2" d="M39.6,46.3c-.3-.6-.6-1.2-.7-1.8s-.1-.5-.1-.9,0-.6,0-.9,0-.2,0,0c0,0,0,0,0,0,0,0,0-.2,0-.2,0-.2,0-.3.1-.5,0-.3.2-.7.3-1s0,0,0-.1,0-.2,0,0c0,0,0-.1,0-.2,0-.2.2-.3.2-.5.2-.3.3-.6.5-.9s.4-.6.6-.9,0,0,0,0,0,0,0,0c0,0,.1-.1.2-.2.1-.1.2-.3.4-.4.2-.3.5-.5.7-.7s.3-.2.4-.3.1-.1.2-.2,0,0,0,0c0,0,.1,0,.2-.1.5-.4,1.1-.8,1.7-1.1s.3-.1.4-.2.1,0,.2,0c.1,0,0,0,0,0s0,0,.1,0c.3-.1.7-.3,1-.4.7-.2,1.5-.4,2.3-.5s.2,0,.3,0,0,0,.1,0,.2,0,0,0c.2,0,.4,0,.6,0,.4,0,.8,0,1.2,0l-.3-1c-.3.2-.6.5-.9.7s-.5.6-.7.9c-.4.6-.7,1.3-.9,2s-.5,1.3-.7,2-.1.3,0,0c0,0,0,.2-.1.3,0,.2-.1.3-.2.5-.2.3-.3.6-.5.9s-.4.6-.6.8.1-.1,0,0,0,0,0,.1c0,0,0,.1-.1.2-.1.1-.2.3-.4.4-.5.5-1,1-1.5,1.4s-.3.2-.4.3-.2.1,0,0c0,0,0,0,0,0,0,0-.2.1-.3.2-.3.2-.6.4-.8.6-.6.4-1.2.8-1.8,1.1-1.4.8-2.8,1.5-4.3,2.3s-.4.5-.3.8.4.4.7.4c2.6-.8,4.2-3.1,5.2-5.5s1.1-2.7,1.8-4,1.4-2.1,2.4-3,2.3-1.7,3.6-2.1.3-.3.3-.5-.3-.3-.5-.3c-2.5.9-4.6,2.6-6.1,4.7s-1.3,2.6-1.9,3.9-.6,1.3-.9,1.9-.3.5-.5.8-.2.2-.2.4,0,.1-.1.2,0,0,0,0c0,0,0,0,0,0,0,0,0,0,0,0-.2.3-.4.5-.7.8s-.3.2-.4.3,0,0,0,0-.1,0,0,0,0,0,0,0c0,0,0,0-.1,0-.1,0-.3.2-.4.3s-.1,0-.2.1,0,0-.1,0c.2,0-.2,0,0,0-.3.1-.6.2-1,.3l.5,1.1c2.7-1.1,5.3-2.4,7.6-4.2s2.1-1.9,2.9-3.1.7-1.2,1-1.8.5-1.4.8-2.1.3-.7.4-1.1,0-.2.1-.3c0-.1,0,.1,0,0s0,0,0-.1c0-.2.2-.4.3-.5s.2-.3.3-.5.1-.2.2-.2,0,0,0-.1h0c0,0,0,0,0-.1,0,0,0,0,0-.1,0,0,0,0,0,0s.1-.1.2-.2c.1-.1.3-.3.4-.4s.2-.4.1-.6-.3-.4-.5-.3c-1.5.1-3,.3-4.4.7s-2.8,1-4,1.8-2.3,2-3.2,3.2-1.4,2.6-1.6,4,0,1.6.1,2.4.7,1.5,1.2,2.1.5,0,.4-.3h0Z"/>
      <path class="st2" d="M35.8,35.2c-.8.9-1.4,1.9-2,2.9s-1.2,2-1.7,3c-1.1,2.1-1.9,4.3-2.6,6.5s-1.1,4.5-1.4,6.9-.4,4.6-.3,6.9.4,4.7.9,7,.1.6.2.9.4.5.7.4.5-.4.4-.7c-.3-1.1-.5-2.2-.6-3.4,0,.1,0,0,0,0,0,0,0-.1,0-.2,0-.1,0-.3,0-.4,0-.3,0-.6,0-.8,0-.6,0-1.1-.1-1.7-.1-2.3,0-4.6.2-6.8s0-.6.1-.9,0-.1,0-.2c0,.1,0,0,0,0,0-.1,0-.3,0-.4,0-.6.2-1.1.3-1.7.2-1.1.5-2.2.8-3.3s.6-2.2,1-3.3.4-1.1.6-1.6.1-.3.2-.4,0,0,0,0,0-.1,0,0c0,0,0-.1,0-.2s0,0,0-.1c0,0,0-.2,0,0s0,0,0,0c0,0,0,0,0,0,0-.1.1-.3.2-.4.9-2.1,2-4.1,3.3-6s.3-.5.4-.7-.3-.8-.6-.4h0Z"/>
      <path class="st2" d="M34,54.6c0,.2-.1.3-.2.5s0,0,0,0,0,0,0,.1c0,0,0,.2-.1.2-.1.3-.3.6-.4.9-.3.6-.6,1.2-1,1.7s-.4.5-.6.8,0,.1-.1.2c0,.1,0,0,0,0s0,0,0,.1c-.1.1-.2.3-.3.4-.4.5-.9,1-1.4,1.5s-.6.5-.8.7-.1.1-.2.2,0,0-.1,0c0,0,.1,0,0,0s-.1,0-.2.1c0,0-.2.1-.2.2s0,0,0,0c0,0,0,0,0,0,0,0,0,0-.1,0-.1,0-.2.2-.3.4s0,.3,0,.5c.2.3.5.4.8.2,1.2-.8,2.3-1.7,3.2-2.8s1.7-2.3,2.2-3.6.3-.8.5-1.2,0-.4.1-.6.1-.4.1-.6,0-.4-.3-.5-.4,0-.5.3h0Z"/>
      <path class="st2" d="M23,49.2c0,.7.3,1.3.5,2s.5,1.3.8,1.9c.6,1.2,1.3,2.3,2.2,3.4s.5.6.7.8.5.5.8.7.3.2.4.2.3,0,.4-.2c.2-.2.2-.6,0-.8s-.4-.5-.7-.7-.4-.5-.7-.7-.4-.5-.6-.7,0,0,0,0,0-.1,0,0,0,0,0,0c0,0,0,0,0-.1,0-.1-.2-.3-.3-.4-.7-1.1-1.3-2.2-1.9-3.4s0,0,0,0c0,0,0,.1,0,0s0,0,0-.1c0,0,0-.2-.1-.3,0-.2-.1-.3-.2-.5-.1-.4-.3-.7-.4-1.1s-.3-.2-.4-.2-.3.2-.3.4h0Z"/>
      <path class="st2" d="M23.6,49c-.1-.1-.3-.3-.4-.4s-.3-.3-.4-.5h0c0,0-.2-.1-.2-.2h0c-.2-.1-.3-.3-.4-.6h0c0,0-.1-.2-.1-.4h0s0-.2,0-.4h0c0,0,0,0,0,0h0s0-.2.1-.3h0c0,0,.1-.1.2-.2h0c0,0,.1,0,.2-.1h-.1c0,0,0,0,.1,0h-.1c0,0,.2,0,.2,0h-.1c0,0,.2,0,.3,0h-.1c0,0,.2,0,.3,0h-.1c.1,0,.2,0,.3,0h-.1c.1,0,.2,0,.3.1h0c0,0,.2,0,.3.2h0c.1,0,.2.2.2.3h0c0,0,.1.2.1.4h0s0,.2,0,.4h0c0,.1-.1.4-.2.6h0c-.2.4-.5.9-.9,1.3s0,.3,0,.4.1.3.3.3.3.1.4,0,.3-.1.3-.3c.2-.4.5-.7.6-1.1s.2-.5.3-.7.1-.5.1-.7,0-.4,0-.7-.1-.4-.2-.6c-.2-.4-.5-.7-.8-.9s-.3-.2-.5-.3-.2,0-.3,0-.2,0-.4,0c-.2,0-.4,0-.5.2s-.3.2-.4.4c-.2.3-.4.6-.5,1s0,.8,0,1.2.4.8.7,1.2.6.6,1,.8.2.1.2.2.2,0,.3,0,.1,0,.2-.1c.1-.1.1-.4,0-.5h0Z"/>
      <path class="st2" d="M34.6,54.7c0-.3,0-.5,0-.8h0c0-.2.1-.6.3-.9h0c.1-.2.3-.4.4-.7h0c.2-.1.4-.4.6-.5h-.1c.1,0,.3-.1.4-.2h-.1c0,0,.2,0,.3,0h-.1c0,0,.2,0,.3,0h-.1c0,0,.2,0,.2,0h-.1c0,0,.2,0,.2,0h-.1c0,0,.2,0,.2.2h0c0,0,.2.1.2.3h0c0,0,.1.2.1.3h0s0,.1,0,.3h0s0,.1,0,.2h0c0,0-.1.1-.2.2h0c-.1,0-.3.2-.4.3h.1c-.2,0-.5.2-.7.3h.1c-.4.1-.8.2-1.2.3,0,0-.2,0-.2.1,0,0-.1.1-.2.2,0,0,0,.2,0,.2,0,0,0,.2,0,.3,0,.2.1.3.3.4s.3.1.5,0c.3,0,.5-.1.8-.2s.6-.2.9-.4c.6-.3,1-.8,1.3-1.4s0-.3,0-.4,0-.2,0-.3,0-.3,0-.4,0-.3-.1-.4c0-.2-.2-.4-.4-.6s-.5-.3-.7-.4-.3,0-.4,0-.2,0-.3,0-.2,0-.3.1c-.2,0-.3.2-.5.3s-.2.2-.3.3-.1.2-.2.2h0c-.1,0-.3.3-.4.5s-.2.4-.3.6c-.1.4-.2.8-.2,1.3s0,.5.1.7.2.3.4.3.2,0,.2,0,.1-.2.1-.3h0Z"/>
      <path class="st2" d="M31,45c0-.1,0-.3,0-.4s-.1-.3-.2-.5,0-.1,0-.2,0,.1,0,0,0,0,0-.1c0-.1-.1-.3-.2-.4-.2-.5-.3-1.1-.4-1.7s-.3-1.1-.5-1.6-.6-1.2-1.1-1.7-1-.9-1.5-1.4-.2-.2-.3-.3-.1-.1,0,0c0,0,0,0,0,0,0,0-.1-.2-.2-.2s0-.1-.1-.2,0,0,0,0c0,.1,0,0,0,0,0,0,0-.1,0-.2s0,0,0-.1c0,0,0,0,0,0h0s0-.1,0-.2,0,0,0,0c0-.1,0,.1,0,0s0-.1,0-.2h0c0,0,0,0,0,0,0,0,0-.1,0-.1,0,0,0-.1.1-.2,0-.1,0,0,0,0s0,0,0,0c0,0,0,0,.1-.1,0,0,0,0,0,0,0,0,0,0,.1,0h0c0,0,0,0,0,0,0,0,0,0,0,0,0,0,0,0,.1,0h0s0,0,0,0c0,0,0,0,0,0,.1,0-.1,0,0,0s0,0,0,0c0,0,0,0,0,0,0,0,0,0,0,0,0,0,.1,0,.2,0,0,0,0,0,0,0s0,0,0,0c0,0,0,0,0,0,0,0,0,0,0,0s0,.1.1.2,0,.1,0,.2c0-.1,0,0,0,0,0,0,0,0,0,.1,0,.1,0,.3.1.4,0,.3.1.7.2,1s0,.2,0,.3,0,.3,0,0c0,0,0,.1,0,.2,0,.1,0,.3,0,.4s0,0,0,.1c0,0,0,0,0,0h0s0,0,0,0c0,0,0,.1,0,.2,0,.4.1.7.5.8s.7-.2.7-.6c0-.6,0-1.2-.1-1.7s-.2-.5-.2-.8-.2-.6-.3-.9c-.3-.7-.8-1.3-1.5-1.3s-1.4.4-1.7,1-.3,1.5,0,2.2.9,1.2,1.4,1.7.5.5.8.7.1.1.2.2h0c0,0,0,0,0,0,0,0,0,0,0,0,0,.1.2.3.3.4s.1.3.2.4,0,.1,0,0,0,0,0,0c0,0,0,.2,0,.3.1.3.2.6.3.9.2.7.3,1.3.6,2s.3.7.5,1,.2.3.4.4.2.2.4.2,0,0,0,0c0,0,0,0,.1,0,0,0,.2,0,.2-.2h0Z"/>
      <path class="st2" d="M36.6,35.4c0,0,0-.1,0-.2,0-.1,0-.2,0-.3h0c0,0,0-.3,0-.5h0c0-.3,0-.7,0-1.2h0c0,0,0-.3.2-.5h0c0,0,.2-.2.3-.3h0c.1,0,.3-.2.4-.3h-.1c.2,0,.4-.2.6-.3h-.1c.2,0,.3,0,.5,0h-.2c.1,0,.2,0,.3,0h-.2c0,0,.2,0,.3,0h-.1c0,0,.2,0,.2,0h-.1c0,0,.2,0,.2.1h0c0,0,.1.1.2.2h0c0,0,.1.2.1.4v-.2c0,.2,0,.4,0,.6v-.2c0,.2,0,.3-.1.5h0c0,0-.1.1-.2.2h0c-.1,0-.3.2-.5.4h.1c-.3.1-.6.3-.9.4h.2c-.2,0-.5.1-.7.2s-.2,0-.4,0-.1,0-.2,0-.1,0-.2,0c0,0-.2,0-.2.1,0,0-.1.1-.2.2,0,0,0,.2,0,.3,0,0,0,.2,0,.3,0,.2.2.3.3.4h.2c.1.1.3.1.4,0,0,0,.2,0,.2,0s.2,0,.2,0c.2,0,.4-.2.6-.2h-.2c.4-.1.9-.3,1.3-.6s.4-.3.6-.5.3-.4.5-.6c.2-.4.3-.8.3-1.2s0-.8-.3-1.2-.2-.3-.3-.5-.3-.3-.5-.4-.5-.2-.7-.2-.3,0-.5,0-.2,0-.4.1c-.3.1-.5.2-.7.4s-.4.3-.5.5c-.3.3-.5.7-.6,1.1s-.1.8,0,1.2,0,.5.1.7.1.4.2.6.1.3.2.4.3.2.4.2.3-.2.3-.4h0Z"/>
      <path class="st2" d="M18.8,70.7c0,0-.1,0-.2.1,0,0-.1.2-.2.4,0,.2,0,.4,0,.6,0,.3,0,.6,0,.9,0,.6,0,1.3.1,1.9.2,1.2.6,2.4,1.1,3.5s.6,1,.9,1.5.4.5.6.8.5.5.8.7c.4.2.9.2,1.3,0s.6-.5.8-.8.3-.6.4-.9.3-.7.5-1.1c.3-.7.5-1.5.7-2.2s.4-1.6.5-2.4-.2-.5-.5-.5-.5.1-.6.4c-.2,1-.5,1.9-.8,2.9s-.2.5-.3.7,0,.2-.1.3,0,.1,0,.2,0,0,0,0c0-.2,0,0,0,0-.2.4-.4.9-.6,1.3s-.2.4-.4.6,0-.1,0,0,0,0,0,0c0,0,0,0-.1.1s0,0,0,0c.1-.1.1,0,0,0s0,0-.1,0h.2c0,0-.1,0-.2,0h.2c0,0-.1,0-.2,0h.2c0,0-.1,0-.2,0h.2c0,0,0,0-.1,0s-.1,0,0,0,0,0,0,0c0,0,0,0-.1-.1-.1-.1-.2-.2-.4-.4s-.2-.2-.3-.4-.1-.1-.2-.2,0,0,0-.1,0,0,0,0c0,0,0,.1,0,0-.4-.5-.8-1.1-1.1-1.7s0-.1-.1-.2,0,0,0-.1,0,0,0,0c0-.1,0,0,0,0,0-.2-.1-.3-.2-.5-.1-.3-.2-.6-.3-1s-.2-.7-.2-1,0,0,0-.1,0,0,0,0c0,0,0,.1,0,0s0-.1,0-.2,0,0,0,0,0,0,0,0c0,0,0,0,0,0,0-.2,0-.3,0-.5,0-.4,0-.8,0-1.1s0-.4,0-.6,0-.2,0-.3c0-.2,0-.3-.1-.4s-.3-.2-.5-.1h0Z"/>
      <path class="st2" d="M31.4,73.7c-.1.3-.3.6-.5.9s-.4.6-.6.9,0,.1-.1.2,0,0,0,.1,0,0,0,0c0,0,0,0,0,0-.1.1-.2.3-.3.4-.2.3-.5.5-.7.8s-.6.5-.9.8h.1c-.7.4-1.4.8-2.2,1.2h.2c-.8.3-1.6.5-2.5.6h.2c-.2,0-.4,0-.6,0s-.5,0-.8,0-.5.4-.5.7.2.6.5.7.9,0,1.3,0,.9-.1,1.3-.2c.8-.2,1.6-.5,2.3-.9,1.4-.8,2.7-1.9,3.6-3.3s.9-1.6,1.1-2.5,0-.4-.3-.5-.5,0-.6.2h0Z"/>
      <path class="st2" d="M21.3,72.3c-.3,1-.4,2-.3,3s.1,1.1.3,1.6.3,1,.5,1.5.2.5.4.7.1.2.2.4.2.2.2.3.2.3.4.3.4,0,.5,0,.3-.2.3-.4,0-.4,0-.5-.1-.2-.2-.2c0-.1-.2-.2-.3-.3h.1c-.2,0-.3-.3-.4-.6s-.2-.5-.4-.7v.2c-.2-.7-.5-1.5-.6-2.3v.2c-.1-.9,0-1.9,0-2.9s0-.3-.1-.3-.2-.1-.3-.1c-.2,0-.5.1-.5.3h0Z"/>
      <path class="st2" d="M28.4,73.4c-.1.2-.2.5-.3.7s-.2.4-.4.6c-.3.4-.5.8-.9,1.2h0c-.5.6-1.2,1.2-1.8,1.8s-.4.3-.6.5h.1c-.2,0-.4.2-.6.3s-.4.3-.7.4-.3.3-.3.5,0,.4,0,.6c.2.4.7.5,1,.3s.4-.2.6-.4.4-.3.7-.5c.4-.3.7-.6,1-.9.7-.7,1.3-1.4,1.7-2.3s.5-1,.7-1.5h0c.2-.2.3-.6.4-1s0-.5-.3-.5-.5,0-.6.2h0Z"/>
      <path class="st2" d="M19.5,70.3c0,0,0-.1,0-.2,0-.1,0-.3-.2-.4s-.1-.2-.2-.3,0-.1,0-.2v.2c0,0,0-.2,0-.3v.3c0,0,0-.1,0-.2v.3c0,0,0-.1,0-.2v.2c0,0,0,0,0-.1l-.2.2s0,0,0,0h-.2c0,0,.1,0,.2,0h-.2c0,.1,0,.1,0,0h-.2c0,0,0,0,.1,0h-.2c0,0,.1,0,.2,0h-.2s0,0,0,0,0,0,0,0h-.2c0,0,0,0,.1,0,0,0,0,0,.1,0,0,0,0,0,0,0,0,0,.2,0,.3,0h-.4c0,0,0,0,.1,0h-.2c0,0,0,0,.1,0v-.2c-.1,0,0,0,0,0v-.2c0,0,0,.1,0,.2v-.2c0,0,0,.2,0,.3v-.2c0,.1,0,.2,0,.3v-.2c0,.2,0,.3-.2.5v-.2c0,0,0,.1,0,.2-.1.1-.2.2-.2.4v.2c0,.2,0,.3,0,.5,0,.1.1.2.2.3,0,0,.2.1.3.2.1,0,.2,0,.4,0,.1,0,.2,0,.3-.1.1,0,.2-.2.3-.3,0-.2.2-.3.2-.5v.2c0,0,0-.2,0-.2v.2c0-.1,0-.3,0-.4s0-.2,0-.2,0,0,0-.1c0,0,0-.2,0-.3s0,0,0,0c0-.2,0-.3,0-.5s0,0,0-.1c0,0,0-.2-.1-.3v.2c0,0,0,0,0,0,0,0,0-.2-.1-.2s0,0,0-.1c0,0-.1-.2-.2-.3s0,0,0,0,0,0,0,0c0,0-.1,0-.2-.1s0,0,0,0l.3.3s0,0,0,0c0,0,0,0,0,0,0,0,0,0,0,0,0,0-.1-.1-.2-.2h.2c0,0-.2,0-.3,0s-.2,0-.3-.1,0,0-.1,0c-.1,0-.2,0-.3,0s-.2,0-.3,0,0,0,0,0c0,0-.2,0-.3.1s-.2.1-.2.2,0,0,0,0c0,0-.2.2-.2.3s-.1.2-.1.3,0,.2,0,.3,0,0,0,0c0,.1,0,.2,0,.4s0,0,0,.1c0,.1,0,.2.1.3s0,.2.1.2,0,.2.1.3,0,0,0,0,0,0,0,0c0,0,0,0,0,.1,0,.1.1.2.2.3,0,0,.2.1.3.2h.2c.1,0,.2,0,.4,0,0,0,.1,0,.2-.1.1,0,.2-.2.2-.3v-.2c.1-.2.1-.3,0-.5h0Z"/>
      <path class="st2" d="M22.1,72s0,0,0,0h0s0-.2,0-.4,0-.3,0-.5v.2c0-.3,0-.6.2-.9v.2c0-.1,0-.3,0-.4v.2c0-.2,0-.3.1-.4h-1.3c0,0,.1.2.2.3v-.2c0,.1,0,.3,0,.4v-.2c0,.2,0,.3,0,.5v-.2c0,.2,0,.3,0,.5v-.2c0,0,0,.2,0,.2s0,.2-.2.2v-.2c.1,0,.1,0,.1,0,0,0-.1.2-.2.3,0,0,0,.2,0,.3,0,.1,0,.2,0,.3,0,.1,0,.2.2.3h.2c.1.2.3.2.4.2h.2c.1,0,.3-.1.4-.2,0,0,0,0,0,0,0,0,.1-.1.2-.2s0,0,0,0c0,0,0-.1.1-.2,0-.2.2-.4.2-.6s0-.4,0-.7,0-.2,0-.3,0,0,0-.1c0,0,0-.2,0-.2s0-.1,0-.2,0-.1,0-.2,0-.2-.1-.2c0-.1-.2-.2-.3-.3-.1,0-.3-.1-.4-.1-.3,0-.5.1-.7.4s-.2.4-.3.7,0,.2,0,.3c0,.1,0,.3,0,.5s0,.3,0,.5,0,.2,0,.3c0,.1,0,.3,0,.4,0,.2.1.5.2.7,0,0,0,.1.1.2,0,0,.1,0,.2,0h.1c0,0,.1,0,.2,0,0,0,0,0,.1,0,0,0,.1,0,.1-.2h0c0-.2,0-.3,0-.4h0Z"/>
      <path class="st2" d="M25.4,73.2c0-.1,0-.2,0-.3s0-.1,0-.2,0-.1,0-.2v.2c0,0,0-.2,0-.3s0,0,0,0c0,0,0-.1,0-.2,0-.1,0-.3,0-.4s0-.3,0-.4,0-.3,0-.4v.2c0,0,0-.2,0-.3v.2c0,0,0-.1,0-.2v.2c0,0,0,0,0,0h-.2c0,0,0,0,.1,0h-.2c0,0,.1,0,.2,0h-.2c0,0,.1,0,.2,0h-.2c0,0,.2,0,.2,0h-.2c0,0,.1,0,.2,0h-.2c0,0,0,0,.1,0v-.2c0,0,0,.1,0,.2v-.2c0,0,0,.2,0,.2v-.2c0,.1,0,.3,0,.4v-.2c0,.2,0,.4-.1.5v-.2c0,.2-.1.4-.2.6s-.2.4-.3.6-.2.4-.2.5l1.6.2c0-.3,0-.6,0-.8s0-.4,0-.6,0-.3,0-.4c0,0,0-.2-.1-.3,0,0-.1-.1-.2-.2h-.2c-.1-.1-.2-.1-.3,0,0,0-.1,0-.2,0,0,0-.2,0-.2.2v.2c-.2.1-.2.2-.2.4,0,.1,0,.3,0,.4s0,.3,0,.4c0,.3,0,.6,0,.8,0,.1,0,.2,0,.3,0,.1,0,.2.2.3h.2c0,.2.2.2.3.2,0,0,.1,0,.2,0,.1,0,.2,0,.3,0h.2c.1-.2.2-.4.2-.5,0,0,0,0,0-.1v.2c0-.3.3-.6.4-1s.2-.4.3-.7.1-.5.1-.7,0-.2,0-.2,0-.2,0-.3,0,0,0-.1c0-.1,0-.3-.1-.4s-.1-.2-.2-.3-.1-.1-.2-.2-.2-.2-.3-.2-.2-.1-.3-.1-.3,0-.4,0-.1,0-.2,0c-.1,0-.3,0-.4,0s-.2,0-.3.1-.2.1-.2.2,0,0,0,0c0,0-.1.1-.1.2s0,.1-.1.2v-.2c0,.1,0,.2,0,.4s0,.3,0,.4,0,.3,0,.4c0,.3,0,.7.2,1s0,.4.2.6h0c0,0,0,0,0,0s0,.1,0,.2c0,.1,0,.2.1.3s.1.2.2.3h.1c0,0,.1,0,.2,0,0,0,0,0,.1,0,0,0,.1,0,.2,0,0,0,.1-.2.1-.3h0Z"/>
      <path class="st2" d="M28.5,73.9c0-.2.2-.4.3-.6s0-.2.1-.3c0-.1.1-.3.2-.4s0-.2.1-.3v.2c0-.1,0-.2,0-.3l-.2.2s0,0,0,0h-.2c0,0,0,0,0,0h-.2s.2,0,.2,0h.2c0,0,0,0,0,0,0,0,0,0,0,0h-.2c0,0,0,0,0,0h-.2s0,0,.1,0h-.2s0,0,.1,0h-.2c0,0,.1,0,.2,0h-.1c0,0,.1,0,.2,0h-.1c0,0,0,0,.1,0v-.2c0,0,0,.1,0,.2v-.2c0,0,0,.1,0,.2v-.2c0,0,0,.1,0,.2v-.2c0,0,0,.2,0,.2h.1c0,0-.1,0-.2,0h.2c-.2,0-.4.1-.6.2h.2c-.1,0-.2,0-.3,0s0,0-.1,0c0,0-.2.1-.2.2,0,0-.1.2-.1.3v.2c0,.1,0,.2,0,.3,0,0,0,.1,0,.2,0,0,.1.1.2.2h.2c.1.1.3.1.4,0,.2,0,.3-.1.5-.2s.2-.1.3-.2.2-.1.3-.2,0,0,.1-.1,0,0,.1-.1c0,0,.1-.1.2-.2s0,0,0,0c0-.1.1-.2.1-.3s0-.1,0-.2,0-.1,0-.2,0,0,0,0c0,0,0,0,0,0s0,0,0,0c0,0,0-.2,0-.2s0,0,0,0,0,0,0,0c0,0,0-.2-.1-.2s0,0,0-.1c0,0-.1-.2-.2-.3s0,0,0,0c0,0-.1-.1-.2-.2s0,0-.1,0c0,0-.2,0-.3-.1s0,0,0,0c0,0-.1,0-.2,0s0,0,0,0c0,0-.1,0-.2,0s0,0,0,0c0,0,0,0,0,0,0,0-.1,0-.2,0s0,0,0,0c0,0-.1,0-.1.1s-.1.1-.1.1h.1c0,0-.1,0-.2,0s0,.2-.1.4,0,.1,0,.2,0,.1,0,.2c0,.1,0,.3,0,.4s0,.3,0,.4,0,.3,0,.5c0,0,0,.1,0,.2,0,0,0,.1,0,.2h0c0,.1,0,.2.1.2,0,0,0,0,.1,0,0,0,.1,0,.2,0h.1c0,0,.1-.1.2-.2h0Z"/>
      <path class="st2" d="M32.1,74c0-.3.1-.7.3-1h0c0,0,0,0,.1-.1v.2c0-.1,0-.3.2-.4h-.1c0,0,.1,0,.2,0h-.1c0,0,.1,0,.2,0h-.2c0,0,.2,0,.2,0h-.2c.1,0,.2,0,.3,0h-.2c0,0,.2,0,.3,0h-.2c0,0,.2,0,.2,0h-.2c0,0,.1,0,.2,0h-.2c0,0,0,0,.1,0v-.2c0,0,0,0,0,.1v-.2c0,0,0,.1,0,.2v-.2c0,0,0,.1,0,.2v-.2c0,0,0,.1,0,.2v-.2c0,0,0,.1,0,.2h.1c-.1,0-.2,0-.4.2h.1c-.2,0-.4.2-.6.4s-.4.3-.5.6-.1.2-.1.3,0,0,0,.1c0,0,0,.2,0,.3,0,0,0,.2,0,.3,0,0,.1.1.2.2,0,0,.1.1.2.1h.2c.1,0,.2,0,.4,0h.1c0-.2.1-.3.2-.4,0-.2.1-.3.2-.5s.1-.3.2-.5,0,0,0-.1,0,0,0,0,0,0,0,0c0,0,0-.2,0-.3,0,0,0-.2,0-.3h-.1c0-.2-.1-.2-.2-.3,0,0-.1,0-.2,0,0,0-.2,0-.3,0h-.2c-.1.1-.2.2-.2.3,0,.1-.1.3-.2.5s0,.2-.1.3c0,.2-.1.4-.2.6v-.2c0,0,0,0,0,0l1.3.5s0,0,0,0v.2c0,0,0,0,0-.1s0,0,0-.1h-.1c.1,0,.2-.1.4-.2h-.1c.2,0,.5-.2.7-.4s.2-.1.2-.2,0,0,0,0c0,0,.1-.1.2-.2s0,0,0-.1c0,0,0-.2.1-.3s0-.2,0-.3,0,0,0,0,0,0,0,0c0,0,0-.2,0-.3s0,0,0,0c0,0,0-.2-.1-.2s0,0,0,0c0,0-.1-.1-.2-.2s0,0,0,0c0,0-.1-.1-.2-.2s-.2-.1-.3-.1-.1,0-.2,0c-.1,0-.2,0-.4,0s-.1,0-.2,0c-.1,0-.2,0-.4,0s0,0,0,0c0,0-.2,0-.2.1s-.1,0-.2.2h.1c0,0-.1,0-.2,0s0,0,0,0,0,0,0,0c0,0-.1.1-.2.2s0,.1-.1.2c0,.1-.1.2-.1.4-.1.3-.1.7,0,1s0,.4,0,.6h0c0,.2,0,.2.1.2,0,0,0,0,0,0,0,0,.1,0,.2,0h.1s0,0,.1,0c0,0,0,0,.1-.1,0,0,0,0,0-.2h0Z"/>
      <path class="st2" d="M23.5,79.7s0,0-.1,0-.2,0-.2,0-.2,0,0,0-.1,0-.1,0c0,0,0,0-.1.1s0,0-.1.1c-.2.2-.3.4-.5.7-.2.4-.4.8-.6,1.2s-.4.9-.6,1.4-.3.9-.4,1.3c-.4,1.9-.6,3.8-.3,5.7s.3,2.1.7,3.2.5.6.9.5.6-.5.5-.9-.2-.9-.3-1.3,0-.4-.1-.7,0-.1,0-.2,0-.1,0,0c0,0,0,0,0,0,0-.1,0-.2,0-.3,0-.9,0-1.8,0-2.7s0-.9.1-1.4,0-.1,0-.2c0,0,0,0,0,0,0,0,0,0,0,0,0-.1,0-.2,0-.3,0-.2,0-.4.1-.7.2-.9.4-1.8.7-2.6s.2-.5.3-.7,0,0,0,0c0,0,0,.1,0,0s0-.1,0-.2c0-.1.1-.2.2-.4.1-.3.2-.5.3-.8s0-.1,0-.2,0-.1,0-.2,0-.2,0,0c0-.1,0-.2-.1-.3,0,0,0,0,0,0s0-.1-.2-.1h0Z"/>
      <path class="st2" d="M24.9,104.9c-.2-.8-.4-1.5-.6-2.3s-.2-.8-.3-1.2,0-.4,0-.6c0,0,0,0,0,0,0,0,0,0,0-.1,0-.1,0-.2,0-.3,0-.8-.1-1.6,0-2.4s0-.8,0-1.2,0-.4,0-.6,0,0,0,0c0,0,0-.1,0-.2,0-.1,0-.2,0-.3.1-.8.3-1.5.6-2.3s0-.2.1-.3,0,0,0-.1c0-.2,0,.1,0,0s.2-.4.2-.5c.2-.3.3-.7.5-1s.4-.6.6-1,.2-.3.3-.5,0,0,0,0c.1-.1,0,.1,0,0s.1-.2.2-.2c.5-.6,1-1.2,1.5-1.7s1.2-1.2,1.9-1.8.6-.6,1-.9.2-.1.2-.2,0,0,.1-.1.1-.1,0,0c0,0,.2-.1.3-.2s0,0,.1,0c0,0,0,0,0,0,0,0,0,0,0,0l-.8-.4c0,0,0,.2,0,.3s0,0,0,.1c0,.2,0,0,0,0,0,.2,0,.4,0,.6,0,.4,0,.8,0,1.1s0,.3,0,.5,0,.2,0,.3,0,0,0,.1c0,.2,0-.1,0,0,0,.4-.1.7-.2,1.1-.3,1.5-.8,2.9-1.3,4.4s-.9,2.5-1.4,3.8,0,.2,0,.2,0,0,0,0,0,.2,0,0,0,0,0,0c0,0,0,0,0,0,0,0,0,.2-.1.3-.1.3-.3.6-.4.9-.3.6-.6,1.2-.9,1.7s-.8,1.3-1.2,1.9-.1.2-.2.2c0,0,0-.1,0,0s0,0,0,.1c-.1.1-.2.3-.4.4-.2.3-.5.6-.8.8s-.3.7,0,1,.7.3,1,0c.9-1.1,1.8-2.1,2.5-3.3s1.3-2.5,1.9-3.8,1-2.6,1.5-3.8,1-2.9,1.4-4.4.6-3.6.2-5.4-.5-.5-.8-.4c-.8.3-1.5.9-2.1,1.5s-1.2,1.1-1.7,1.6c-1.1,1.1-2.2,2.3-3.1,3.6s-1.5,2.9-1.9,4.5-.3,1.7-.3,2.5,0,1.6.1,2.4c.2,1.9.6,3.7,1.3,5.5s.3.4.6.3.4-.3.3-.6h0Z"/>
      <path class="st2" d="M17,92.4c0,1.1.2,2.2.5,3.2s.7,2.1,1.2,3c1,2,2.4,3.7,3.8,5.4s3.1,3.1,4.7,4.6,3.2,2.9,4.7,4.5.7.8,1.1,1.2.3.4.5.6,0,0,.1.1c-.1-.2,0,0,0,0,0,.1.2.2.3.3.6.9,1.2,1.8,1.7,2.7s.2.5.4.7.5.4.8.3.5-.5.4-.8c-.4-1-.9-2-1.5-2.9s-1.3-1.8-2-2.7c-1.4-1.7-2.9-3.2-4.5-4.6s-3.2-2.9-4.7-4.4-1.5-1.6-2.2-2.4-.3-.4-.5-.6,0,0,0,0c0,0,0,0,0,0s0,0-.1-.1c0-.1-.2-.2-.3-.3-.3-.4-.6-.9-.9-1.3s-.6-.9-.8-1.4-.2-.5-.4-.7-.1-.2-.2-.3,0-.1,0-.2,0,0,0,0c0,.1,0,0,0,0-.4-1-.7-2-.9-3s0-.5-.1-.7-.2-.4-.4-.4-.4.2-.4.4h0Z"/>
      <path class="st2" d="M34.4,115.1c-.3-.7-.7-1.4-1.3-2s-1.3-1-2-1.3c-1.6-.8-3.5-1.1-5.3-1.1s-2.2,0-3.3.1-.5.1-.6.4,0,.5.1.7c1.2,1.2,2.6,2,4.1,2.6s3.1.8,4.7.7,1.9-.3,2.8-.7.3-.3.3-.5-.2-.4-.4-.5-.3,0-.4-.2-.3,0-.4-.1c-.3,0-.6-.2-.9-.2-.6-.2-1.3-.3-1.9-.4-1.3-.3-2.7-.6-4-.9s-1.5-.4-2.3-.5-.4,0-.5.3,0,.4.3.5c1.3.3,2.7.6,4,1s2.6.6,3.9,1,1.3.4,1.9.8v-1c-.2,0-.6.1-1,.2s-.1,0-.2,0c0,0,0,0,0,0,0,0,0,0,0,0,0,0-.2,0-.3,0-.2,0-.4,0-.6,0-.7,0-1.5,0-2.2,0s-.2,0-.3,0,.2,0,0,0,0,0,0,0c0,0,0,0-.1,0-.2,0-.4,0-.6-.1-.4,0-.7-.2-1.1-.3s-.4-.1-.5-.2-.2,0-.2,0,0,0,0,0c0,0,0,0,0,0,0,0-.1,0-.2,0-.3-.2-.7-.3-1-.5s-.7-.4-1-.7,0,0,0,0c0,0,0,0,0,0,0,0,0,0-.1,0,0,0-.2-.1-.2-.2-.2-.1-.3-.3-.5-.4l-.4,1c.9,0,1.9-.1,2.8-.2s.9,0,1.4,0,.5,0,.7,0,.2,0,.3,0,.2,0,0,0c0,0,.1,0,.2,0,.8.1,1.5.3,2.3.6s.1,0,0,0,0,0,0,0c0,0,0,0,0,0,0,0,.2,0,.3.1.2,0,.3.2.5.3s.3.2.5.3.1,0,.2.1,0,0,.1,0,0,0,0,0,0,0,0,0c.3.3.6.5.9.8s.5.6.8.9.3.2.4.1.3-.2.2-.4h0Z"/>
      <path class="st2" d="M30.7,84.6c-.3,1.2-.8,2.4-1.3,3.6s-.2.5-.3.8-.3.6-.4.9c-.3.6-.6,1.2-.8,1.7-1.1,2.3-2.4,4.5-3.5,6.8s-.7,1.4-1,2.1-.7,1.5-.9,2.3,0,.6.4.7.6,0,.8-.2c.3-.7.5-1.3.8-2s.5-1.2.8-1.8c.5-1.2,1.1-2.3,1.7-3.5,1.2-2.3,2.4-4.6,3.3-7s.9-2.7,1.2-4.1,0-.4-.3-.5-.4,0-.5.3h0Z"/>
      <path class="st2" d="M34.4,113.9c-.7-2.1-1.5-4.3-1.8-6.5s0-.1,0-.2c0,0,0,0,0,0,0-.1,0-.3,0-.4,0-.3,0-.5,0-.8,0-.5,0-.9,0-1.4s0-.2,0-.3,0-.1,0-.2,0,0,0,0,0-.1,0,0,0,0,0-.1c0,0,0-.1,0-.2,0-.1,0-.2,0-.4,0-.5.2-.9.4-1.3s0-.2.1-.4,0,0,0,0c0,.1,0,0,0,0,0,0,0-.1,0-.2.1-.2.2-.5.4-.7s.3-.4.4-.7,0-.1.1-.2,0,0,0,0c0,0,0,0,0,0,0-.1.2-.2.3-.3h-.9c.3.3.5.8.7,1.2s0,.2,0,0c0,0,0,.1,0,.2,0,.1,0,.2.1.4,0,.2.2.5.2.7.1.5.3,1,.4,1.4s0,.5.1.7,0,.1,0,.2,0,0,0,0,0,0,0,0,0,0,0,0,0,0,0,0c0,0,0,.1,0,.2.1,1,.1,2,0,3s0,.5,0,.8,0,0,0,0c0,0,0-.1,0,0s0,.1,0,.2c0,.1,0,.3,0,.4,0,.5-.2,1-.3,1.4s-.3,1.1-.5,1.6,0,.1,0,.2,0,0,0,0c0,0,0,0,0,0,0,.1-.1.3-.2.4-.1.3-.2.5-.4.8s0,.7.2.8.7,0,.8-.2c.5-.9.9-1.9,1.3-2.9s.5-2.1.6-3.1c.2-2.1,0-4.2-.6-6.1s-.4-1.1-.6-1.7-.5-1-.8-1.5-.6-.4-.9-.1c-1.4,1.5-2.1,3.5-2.3,5.5s.2,4.4.8,6.5.4,1.2.6,1.8.5,1.2.8,1.9.4.3.5.2.3-.3.2-.5h0Z"/>
      <path class="st2" d="M33.5,99.1c0,.5,0,.9,0,1.4s0,.9,0,1.3c0,.9,0,1.8,0,2.7,0,1.8,0,3.6-.2,5.3s-.1,2-.2,3,.3.6.6.6.5-.2.6-.6c.3-3.6.3-7.1.1-10.7s0-1-.1-1.5,0-1.1-.2-1.6-.6-.3-.6,0h0Z"/>
      <path class="st2" d="M23.2,103.3c0,0-.2-.1-.2-.2s0,0,0,0,0,0,0-.1c0-.1,0-.2-.2-.3s-.1-.1-.2-.2c-.3-.3-.6-.5-.9-.8-.6-.4-1.2-.8-1.8-1.2-1.3-.7-2.7-1.1-4.1-1s-1.6.3-2.3.8-.4.6-.1.9c1,.9,2.2,1.7,3.6,2.2s2.6.8,4,.9,1.6,0,2.4-.2.5-.4.4-.7-.1-.3-.3-.3-.3,0-.4,0,.1,0,0,0,0,0,0,0c0,0,0,0-.1,0,0,0-.2,0-.3,0-.2,0-.3,0-.5,0-.3,0-.7,0-1,0s-.6,0-1,0-.2,0-.2,0,0,0,0,0c0,0,0,0,0,0,0,0,0,0-.1,0-.2,0-.3,0-.5,0-.6-.1-1.3-.3-1.9-.5s-.1,0-.2,0,0,0-.1,0-.2,0,0,0,0,0,0,0c0,0,0,0-.1,0,0,0-.1,0-.2-.1-.3-.1-.6-.3-.9-.5s-.6-.4-.9-.6-.1-.1-.2-.2,0,0,0,0,0,0,0,0c0,0,0,0-.1,0-.1-.1-.3-.2-.4-.4v.9c0,0,.1-.2.3-.2s.1,0,.2,0,.1,0,0,0,0,0,0,0c.3-.1.6-.2.9-.2s0,0,0,0-.1,0,0,0,0,0,.1,0c0,0,.2,0,.2,0,.2,0,.3,0,.5,0s.3,0,.5,0,0,0,.1,0c0,0,0,0,0,0,0,0,0,0,0,0,0,0,.2,0,.2,0,.3,0,.6.1.9.2s.2,0,.3,0,.2,0,.3,0c0,0,0,0,0,0s0,0,0,0c0,0,0,0,.1,0,0,0,.2,0,.2.1.6.3,1.2.7,1.8,1.1s.6.4,1,.6.2,0,.3.1.1,0,.2,0,.1,0,.2,0,.2,0,.2,0c0,0,.2.1.3.2s.2,0,.1-.2h0Z"/>
      <path class="st2" d="M17.8,92.6c0,0-.1-.1-.2-.2s0,0,0,0c0,0,0,0,0,0,0,0-.1-.2-.2-.2,0,0,0,0,0,0s0,0,0-.1c-.2-.3-.3-.5-.5-.8s-.1-.3-.2-.4,0,0,0,0,0,0,0,0c0,0,0,0,0,0,0,0,0-.1,0-.2-.1-.3-.2-.6-.3-.9s0-.3,0-.4c0,.2,0,0,0,0s0,0,0-.1c0,0,0-.2,0-.2,0-.3,0-.6,0-.9s0-.2,0-.2,0,0,0-.1,0,0,0,0c0,0,0,0,0,0,0-.2,0-.3,0-.5,0-.3.1-.6.3-.9s0,0,0-.1,0,0,0,0c0,0,0,0,0,0,0,0,0-.2.1-.2,0-.2.2-.3.2-.5s.2-.3.3-.4.1-.1,0,0,0,0,0,0c0,0,0,0,.1-.1,0,0,.1-.1.2-.2h-.9c.2.4.4,1.1.6,1.6s.3,1.2.4,1.8,0,.3,0,.5,0,0,0,.1c0,.1,0,0,0,0s0,.2,0,.2c0,.3,0,.6,0,.9s0,.6,0,.9,0,.3,0,.4c0-.1,0,0,0,0s0,0,0,.1c0,0,0,.1,0,.2,0,.3-.2.6-.3,1s0,.2,0,.2h0c0,0,0,0,0,0,0,0,0,0,0,0,0,0,0,0,0,0,0,.2-.1.3-.2.5h.9c-.1-.4-.2-1-.3-1.6s0-.3,0-.4,0,0,0-.1,0-.1,0,0c0,0,0-.1,0-.2s0-.1,0-.2,0-.1,0,0c0,0,0-.1,0-.2,0-.1,0-.3,0-.4-.1-1.1-.2-2.3-.3-3.4s0-1.3,0-1.9-.1-.3-.3-.3-.3.1-.3.3c0,1.1,0,2.3,0,3.4s.1,2.3.2,3.4.2,1.3.3,2,.2.3.4.4.4,0,.5-.2c1.3-2.3,1-5,.3-7.4s-.4-1.4-.6-2-.6-.5-.9-.2c-.5.5-.9,1.1-1.1,1.8s-.4,1.3-.5,2,0,1.4.1,2,.1.6.3.9.3.7.4,1,.4.7.7.9.3.3.4.4h0s0,0,0,0c0,0,0,0,0,0s0,0,0,0h0s0,0,0,0c0,0,.2.1.3.2.1.1.4,0,.4,0s0-.3,0-.5h0Z"/>
      <path class="st2" d="M22.1,101.8h0c0,0,0,0,0,0,0,0-.1,0-.2,0s0,0-.1,0c0,0,0,0,0,0,0,0-.1,0-.2,0s-.1,0-.2,0,0,0,0,0c-.3,0-.5,0-.8-.2-.5-.1-1.1-.3-1.6-.5-1-.4-2-.7-3.1-.7s-1.3.1-1.8.4-.3.4-.1.6.4.2.6.1.1,0,.2,0c0,0,0,0,0,0s0,0,0,0c.1,0,.3,0,.4-.1s.1,0,.2,0,0,0,0,0,.1,0,0,0c.1,0,.3,0,.4,0,.3,0,.5,0,.8,0s0,0,.1,0c.1,0,0,0,0,0s.1,0,.2,0c.1,0,.3,0,.4,0,1.1.2,2,.7,3.1.9s.6.1.9.2.3,0,.5,0,.1,0,.2,0c.1,0,.2,0,.3,0s.2-.2.2-.3-.1-.2-.3-.2h0Z"/>
      <path class="st2" d="M47.6,125.7c0-.1-.2-.2-.2-.3s-.2-.3-.4-.4c-.2-.2-.5-.4-.7-.6-.5-.3-1-.6-1.5-.9-1.1-.5-2.2-.9-3.4-1.1s-2.5-.2-3.7,0-2.4.5-3.5,1-1.1.6-1.7.9-1.2.8-1.6,1.3-.3.7,0,1c.5.5.9.9,1.5,1.4s1.1.9,1.7,1.2c1.1.7,2.4,1.3,3.7,1.6,2.6.6,5.3.3,7.6-1s2.4-1.7,3.2-2.9.1-.6,0-.8-.4-.3-.7-.3-.3,0-.4,0-.1,0-.2,0,0,0-.1,0c0,0,0,0,0,0-.3,0-.6,0-.8,0-.6,0-1.1,0-1.7,0s-.6,0-.8,0-.1,0-.2,0-.1,0,0,0,0,0,0,0c-.1,0-.3,0-.4,0-.6,0-1.1-.2-1.7-.3-2.1-.4-4.1-.7-6.2-.5s-2.3.4-3.4,1-.4.6-.2.9.6.4.9.2.4-.2.7-.3c-.1,0,0,0,0,0s.1,0,.2,0c.1,0,.2,0,.3-.1.2,0,.5-.1.7-.2s.2,0,.4,0,.1,0,.2,0,.2,0,0,0c.5,0,1,0,1.5,0s1,0,1.5,0,.5,0,.7,0,.1,0,.2,0,0,0,0,0c0,0,0,0,0,0,.1,0,.3,0,.4,0,.5,0,1.1.2,1.6.3,1.1.2,2.3.4,3.5.6s2.6.2,3.9,0l-.8-1c0,.1-.2.2-.2.4s0,.1-.1.2c0,0,0,0,0,0,0,0,0,0,0,.1-.2.2-.4.5-.6.7s-.4.4-.7.6-.1,0,0,0c0,0,0,0,0,0,0,0-.1,0-.2.1-.1,0-.3.2-.4.3-.2.2-.5.3-.8.4s-.3.1-.4.2,0,0,0,0c.2,0,0,0,0,0,0,0-.2,0-.2,0-.6.2-1.1.4-1.7.5s-.3,0-.4,0c.2,0,0,0-.1,0,0,0-.2,0-.2,0-.3,0-.6,0-.9,0s-.6,0-.9,0-.1,0-.2,0c-.1,0,0,0,0,0,0,0,0,0-.1,0-.2,0-.3,0-.5,0-.6-.1-1.2-.3-1.8-.5s-.1,0-.2,0-.2,0,0,0,0,0,0,0c-.2,0-.3-.1-.5-.2-.3-.1-.6-.3-.8-.4s-.6-.4-.9-.6-.3-.2-.4-.3c.1,0,0,0,0,0,0,0,0,0-.1,0,0,0-.2-.1-.2-.2-.3-.2-.5-.5-.8-.7s-.3-.3-.4-.4,0,0,0,0c0,.1,0,0,0,0h0c0-.1-.1-.2-.2-.3v1c.2-.2.4-.4.6-.6s0,0,0,0,.1,0,0,0,0,0,0,0c.1,0,.2-.2.4-.3.5-.3.9-.6,1.4-.8s.2-.1.3-.2.1,0,.2,0,0,0,0,0c-.2,0,0,0,0,0,.3-.1.5-.2.8-.3.5-.2,1.1-.3,1.6-.4s.3,0,.4,0,.2,0,.1,0,0,0,0,0c0,0,0,0,.1,0,.3,0,.6,0,.8,0,.6,0,1.1,0,1.7,0s.1,0,.2,0,.1,0,0,0c0,0,0,0,.1,0s.3,0,.1,0c0,0,0,0,.1,0,0,0,.2,0,.2,0,.3,0,.6.1.8.2.5.1,1.1.3,1.6.5s0,0,0,0c-.2,0,.1,0,.1,0s0,0,0,0c0,0,0,0,0,0,.1,0,.3.1.4.2.3.1.6.3.8.5s.5.3.8.5.3.2.4.3.3.1.4.2c.3.2.7-.2.5-.5h0Z"/>
      <path class="st2" d="M52.1,136.3c0,0-.1-.1-.2-.2s0,0,0,0h0s0,0,0,0c0-.1-.2-.2-.3-.3s0,0,0,0c0,0,0,.1,0,0s0-.1-.1-.2,0,0,0-.1h0c0,0,0,0,0,0,0,0,0-.1-.1-.2-.3-.5-.6-1-.8-1.5v.2c-.2-.7-.4-1.4-.5-2.1v.2c0-.7,0-1.4,0-2.1v.2c0-.5.1-.9.3-1.3s0-.1,0-.2,0,0,0,0,0-.1,0,0,0,0,0,0,0,0,0,0c0,0,0-.1,0-.2.1-.2.2-.4.3-.6h-1c.1.2.2.4.3.5s0,0,0,0,.1.1,0,0,0,0,0,0c0,0,0,0,0,.1.2.3.4.5.5.8s.1.3.2.4,0,.1.1.2,0,0,0,0c0,0,0,0,0,0,0,0,0,0,0,0,.1.3.2.6.3.9s.2.6.2.9,0,.2,0,.2,0,0,0,0,0-.1,0,0,0,0,0,.1c0,.2,0,.3,0,.5,0,.3,0,.7,0,1s0,.3,0,.5,0,0,0,.1,0,.2,0,0,0,0,0,0c0,0,0,0,0,.1,0,.4-.1.7-.2,1.1s-.1.3-.2.5,0,0,0,.1,0,0,0,0,0,0,0,0c0,0,0,.2-.1.3-.1.3,0,.7.2.8s.7,0,.8-.2c.6-1.3.9-2.7.9-4.1s-.4-2.8-1.1-4.1-.4-.7-.6-1-.1-.2-.2-.2-.1-.1-.2-.2,0,0,0,0c.1.1,0,0,0,0-.1-.2-.3-.4-.4-.5s-.3-.2-.5-.2-.3.1-.5.3c-.9,1.2-1.3,2.7-1.3,4.2s.1,1.5.3,2.2.5,1.4,1,2,.5.7.9,1,.4.3.6.4.3.2.5.3.4,0,.5-.1.1-.4,0-.6h0Z"/>
      <path class="st2" d="M55.9,139.2c0-.1-.1-.2-.2-.4s0,.1,0,0,0-.1,0-.2,0-.1,0-.2c-.1-.2-.2-.5-.3-.7h0c-.2-.4-.4-1.1-.5-1.7v.2c0-.6,0-1.1,0-1.7v.2c0-.6.2-1.1.4-1.6v.2c0-.2.1-.4.2-.6h0c0,.1,0,.1,0,.1h-1c.1.2.2.4.3.5h0c.3.3.6.8.8,1.3h0c.2.4.4,1,.5,1.6v-.2c0,.6,0,1.2,0,1.8v-.2c0,.3,0,.5-.1.8s-.2.5-.2.7,0,.4,0,.5.2.2.3.3c.3.1.6,0,.8-.3.2-.5.4-1,.4-1.5s.1-1,0-1.5c0-1-.3-2-.8-2.9s-.2-.5-.4-.7-.4-.5-.6-.7h0c0,0,0,0-.1,0,0,0-.1-.2-.2-.2,0,0-.2,0-.3,0-.2,0-.4.1-.5.3s-.3.5-.4.8-.2.5-.2.7c-.1.5-.2,1.1-.2,1.6,0,1.1.2,2.1.7,3.1s.3.5.5.8.2.2.3.3.2.2.3.3.3.2.5,0,.2-.3,0-.5h0Z"/>
      <path class="st2" d="M51.7,136.1s0,0,0,0c.1,0,.2.1.1,0,0,0,0,0,0,0h0c0,0-.1,0-.2,0s-.1,0-.2,0-.1,0-.2,0c-.1,0-.3,0-.4,0-.2,0-.4,0-.6,0s-.4,0-.6,0-.5,0-.7.1c-.4,0-.9.2-1.3.4s-.7.4-1.1.6-.8.6-1.2,1-.2.4-.2.6.2.4.5.5c.5.2,1,.2,1.5.2s1,0,1.5-.2.9-.3,1.3-.6.8-.6,1.1-.9.7-1,.9-1.5,0-.5-.3-.6-.2,0-.4,0-.3.1-.3.2c-.1.3-.3.6-.5.9h0c-.2.2-.5.5-.9.7h.1c-.3.1-.7.4-1,.5h.1c-.4,0-.8.2-1.2.3h.2c-.4,0-.7,0-1.1,0h.2c-.3,0-.6,0-.9-.2l.3,1.1c.2-.2.4-.4.7-.6h-.1c.5-.3,1-.6,1.6-.8h-.2c.6-.2,1.3-.4,1.9-.5h-.2c.2,0,.3,0,.5,0h-.2c.2,0,.4,0,.5,0s.2,0,.3,0,0,0,.1,0,0,0,.1,0c.1,0,.2,0,.3-.1h0c0,0,0,0,0,0,0,0,0,0,0,0h-.1s0,0,.1,0c.2,0,.4-.1.4-.3s0-.4-.3-.4h0Z"/>
      <path class="st2" d="M67.6,138.2c0-.2-.2-.3-.3-.5s-.3-.3-.5-.4c-.3-.2-.7-.4-1-.5s-.8-.1-1.1-.1-.8,0-1.2,0c-.8.1-1.5.4-2.2.7s-1.4.7-2.1,1.2-1.4,1.2-2,2-.3.4-.2.7.3.4.5.5c1.6.4,3.2.5,4.7.2s1.5-.4,2.3-.7,1.4-.7,2-1.2,1.3-1.2,1.8-1.9.1-.4,0-.5-.2-.3-.3-.4-.3-.1-.5,0-.3.2-.4.3,0,0,0,0c0,0,.1-.1,0,0s0,0-.1.1c0,0-.2.2-.2.3-.2.2-.3.3-.5.5s-.4.3-.5.5-.1,0,0,0,0,0,0,0c0,0,0,0-.1.1,0,0-.2.1-.3.2-.4.3-.8.5-1.2.7s-.2.1-.3.2,0,0,0,0c-.1,0,0,0,0,0,0,0-.1,0-.2,0-.2,0-.4.2-.7.2-.5.2-1,.3-1.6.3h.2c-.8,0-1.6,0-2.5,0h.2c-.5,0-.9-.1-1.3-.3l.3,1.2c.5-.6,1-1.1,1.6-1.6s0,0,.1,0-.1.1,0,0,0,0,0,0c0,0,.2-.1.2-.2.2-.1.3-.2.5-.3.3-.2.7-.4,1-.6s.3-.2.5-.2.2,0,.2-.1-.2,0,0,0,.1,0,.2,0c.3-.1.6-.2,1-.3s.3,0,.5-.1.2,0,.2,0-.2,0,0,0,0,0,0,0c0,0,0,0,.1,0,.3,0,.7,0,1,0s0,0,0,0c.1,0-.1,0,0,0s.2,0,.3,0,0,0,0,0c0,0,0,0,0,0,0,0,0,0,.1,0,.2,0,.3,0,.5.1s0,0,.1,0,0,0,0,0c0,0,0,0,0,0,0,0,.2,0,.2.1.2,0,.3.2.5.3s.4,0,.5,0,.1-.3,0-.5h0Z"/>
      <path class="st2" d="M60.9,130.4c.2.1.2.2.4.3s.1.1.2.2c0,0,0,0,0,0s0,0,.1,0c.2.2.5.4.7.6.5.4.9.9,1.3,1.4s0,.1.1.2,0,0,0,0,.1.1,0,0,0,.1.1.2,0,0,0,0c0-.1,0,0,0,0s0,0,0,.1c.2.3.4.5.6.8.4.5.7,1.1,1.1,1.6,1.6,2.4,3.2,4.9,5,7.2s1,1.3,1.6,2,.5.6.8.9.6.6.9.9l.9-1.2c0,0-.2,0-.3-.1s0,0-.1,0,0,0,0,0c0,0,0,0,0,0,0,0-.2-.1-.2-.2s-.2-.2-.2-.2-.1-.1-.2-.2,0,0-.1-.1,0,0,0,0c0,0,0,.1,0,0-.1-.2-.3-.4-.4-.5-.5-.8-1-1.6-1.4-2.5s0-.1,0,0,0,0,0,0c0,0,0-.1,0-.2,0-.1,0-.2-.1-.3,0-.2-.2-.5-.2-.7s-.1-.5-.2-.7,0-.2,0-.4,0-.1,0-.2,0,0,0,0c0,0,0,0,0,0,0-.4,0-.9,0-1.3s0-.2,0-.3,0-.1,0-.2,0,0,0,0,0,0,0,0c0-.2,0-.4.1-.6s.1-.5.2-.7,0-.1,0-.2,0,0,0,0c0,0,0,0,0,0,0-.1.1-.2.2-.3.1-.2.2-.4.4-.6s0,0,0-.1,0,0,0,0c0,0,0,0,0,0,0-.1.2-.2.3-.3l-.9-.2c.1.6.3,1.2.5,1.8s.1.6.2.9,0,.3,0,.4c0,0,0,0,0,0,0,0,0,0,0,.1,0,0,0,.2,0,.3,0,.6,0,1.1,0,1.7s0,.2,0,0c0,0,0,.1,0,.2,0,.1,0,.3,0,.4,0,.3-.1.5-.2.8s0,.1,0,.2c0-.1,0,0,0,.1,0,.1-.1.2-.2.4s0,.1-.1.2-.2.2,0,0c0,0-.1.2-.2.3s0,0,0,0c0,0,0,0,0,.1-.2.3-.3.7,0,.9s.7.3.9,0,.4-.5.6-.8.1-.2.2-.4.1-.3,0-.2c0-.1,0-.2.1-.3.2-.5.3-1.1.4-1.6.2-1.3,0-2.6-.3-3.8s-.4-1.4-.6-2.1-.6-.5-.9-.2c-.6.7-1.1,1.5-1.4,2.4s-.4,1.8-.4,2.8c0,2.1.9,4.1,1.9,5.9s1.2,1.9,2.2,2.4.7.1,1-.2.2-.7,0-1-.5-.5-.7-.8-.5-.5-.7-.8c-.5-.6-.9-1.1-1.4-1.7.1.2,0,0,0,0,0,0-.1-.1-.2-.2-.1-.2-.2-.3-.3-.5-.2-.3-.4-.6-.6-.9-.4-.6-.8-1.2-1.2-1.8-.9-1.2-1.7-2.5-2.6-3.7s-1.6-2.2-2.5-3.2-2.1-2.1-3.4-2.7-.5,0-.6.2,0,.5.2.6h0Z"/>
      <path class="st2" d="M50.9,29.2c1,.4,2-.3,2.6-1.1s.6-1.9.8-2.8.2-.9.4-1.4v.2c.2-.6.5-1.2.9-1.7s0,0,0,0c0,0,0,0,0,0,0,0,0,0,0,0,0,0,.1-.1.2-.2.1-.1.2-.2.3-.4.2-.2.5-.5.7-.7s.1-.1.2-.2,0,0,0,0,0,0,0,0c0,0,0,0,.1,0,.1,0,.2-.2.3-.2s.1-.1.2-.2l-.9-.4s0,0,0,.1h0c0,.2,0,.2,0,0,0,0,0,0,0,0,0,0,0,.2,0,.3s0,0,0,.1,0,.1,0,.1c0,0,0-.1,0,0s0,0,0,0c0,0,0,0,0,.1,0,.4-.1.8-.2,1.2s-.2.8-.3,1.1-.1.4-.2.6,0,.2-.1.3,0,0,0,0,0,0,0,0c0,0,0,.1,0,.2-.2.3-.3.7-.6,1s-.1.2-.2.2,0,0,0,0c0,0,0,0,0,0s0,0-.1.1c-.1.2-.3.3-.4.4s-.3.3-.4.4,0,0,0,0c0,0,0,0,0,0,0,0,0,0-.1,0,0,0-.2.1-.2.2-.3.2-.7.4-1,.6s-.4.2-.6.3-.2,0-.3.1-.1,0,0,0,0,0,0,0c0,0-.1,0-.2,0-.4.2-.9.3-1.3.5s-.3.2-.4.3-.1.4,0,.5.2.3.3.4.4.1.5,0c1.6-.6,3.2-1.3,4.5-2.5s.3-.3.4-.5,0,0,0-.1,0,0,.1-.1h0c0,0,0,0,0,0,0,0,.1-.2.2-.3.2-.3.4-.7.6-1,.3-.8.6-1.6.7-2.4s.2-.9.2-1.4,0-.3,0-.4,0,0,0,0c0,0,0,0,0,0s0-.1,0-.2c0-.1,0-.2,0-.3s0-.2,0-.4c.1-.4-.3-.8-.7-.7s-.4.1-.6.2-.3.2-.5.3c-.3.2-.6.5-.9.8-.5.5-1,1.2-1.4,1.8s-.7,1.4-.8,2.2-.2.8-.2,1.3,0,.4-.1.6,0,.2,0,.3,0,.1,0,.2,0,0,0,0c0,0,0,0,0,0h0c0,0,0,.1-.1.2s0,0,0,.1,0,0,0,0c0,0,0,0,0,0s-.1.2-.2.2,0,0-.1.1-.2.1,0,0c0,0-.2.1-.2.2s0,0,0,0c0,0-.1,0,0,0,0,0,0,0-.1,0,0,0-.2,0-.3,0s0,0,0,0,0,0,0,0c0,0-.1,0-.2,0-.3,0-.5.2-.5.4s.1.5.4.6h0Z"/>
      <path class="st2" d="M78.8,28.8s0,0-.1,0c0,0,0,0,0,0-.1,0-.2-.1-.3-.2s-.3-.1-.5-.2c-.3,0-.6-.2-1-.2-.7-.1-1.3-.3-2-.4-1.3-.2-2.7-.5-4-.5s-1.5,0-2.3.3-.4.3-.5.5,0,.5.3.6c1.3,1,2.7,1.9,4.2,2.5s3.3.7,4.9,0,.9-.4,1.4-.6.8-.5,1.3-.7.3-.8-.1-1c-.9-.3-1.8-.4-2.7-.4s-.5.2-.5.5.2.5.5.5.4,0,.6,0,.2,0,.3,0,.1,0,.2,0c-.1,0,0,0,0,0,.4,0,.8.2,1.2.3v-1c-.5.2-.9.4-1.3.5s-.2,0-.2.1c.2,0,0,0-.1,0s0,0-.1,0c.1,0,0,0,0,0,0,0,0,0-.1,0-.1,0-.2,0-.3.1-.4.1-.8.2-1.2.3s-.2,0-.3,0,0,0-.1,0-.1,0,0,0c-.2,0-.4,0-.6,0s-.4,0-.6,0-.2,0-.2,0-.2,0,0,0c0,0-.1,0-.2,0-.4,0-.7-.2-1.1-.3s-.4-.1-.5-.2-.2,0,0,0c0,0,0,0-.1,0,0,0-.2,0-.3-.1-.3-.2-.7-.4-1-.6s-.7-.5-1.1-.7-.2-.1-.3-.2,0,0-.1,0c0,0,0,0,0,0,0,0,0,0,0,0-.2-.1-.3-.3-.5-.4l-.3,1.1c.2,0,.3,0,.5,0s.1,0,0,0c0,0,0,0,.1,0,0,0,.2,0,.3,0,.3,0,.6,0,.9,0,.6,0,1.3,0,1.9.2s.1,0,.2,0,0,0,.1,0c-.2,0,0,0,0,0,.2,0,.3,0,.5,0,.3,0,.6,0,.9.1.7.1,1.4.2,2.1.3s.7,0,1.1.1.4,0,.5,0,.2,0,.3,0,.2,0,.3,0c.3,0,.4-.4,0-.5h0Z"/>
      <path class="st2" d="M99.4,16.5c-.3,0-.7,0-1,0s-.2,0-.3,0,0,0-.1,0h0c0,0,0,0,0,0,.1,0,0,0,0,0,0,0,0,0-.1,0-.1,0-.2,0-.4,0s-.1,0-.1,0h0c0,0-.1,0-.2,0,0,0-.2,0-.3,0-.2,0-.3,0-.5.1-.3,0-.6.2-1,.3-1.3.4-2.5,1-3.7,1.7-2.4,1.4-4.4,3.3-6,5.6s-1.6,2.7-2.1,4.1,0,.6.3.8.5.2.8,0c-.2,0,0,0,0,0,0,0,0,0,.1,0,0,0,.2,0,.3-.1.2,0,.4-.1.6-.2.4-.1.8-.2,1.2-.3.8-.2,1.6-.3,2.5-.4,1.6-.2,3.3-.5,4.8-1.1s1.5-.7,2.2-1.2,1.3-1.1,1.9-1.7c1.1-1.2,2.2-2.5,3.4-3.6s.3-.3.5-.4.2-.2.3-.2c-.1,0,0,0,0,0,0,0,.1,0,.2-.1.4-.3.7-.5,1.1-.7s.4-.2.6-.3c0,0-.1,0,0,0s.1,0,.2,0c.1,0,.2,0,.3-.1.2,0,.4-.1.6-.2s0,0,.1,0,.3,0,0,0c.1,0,.2,0,.3,0,.3,0,.6-.2.6-.5s0-.6-.3-.7c-.8-.5-1.7-.8-2.7-1s-1.9-.3-2.8-.2c-1.9.1-3.8.8-5.3,1.9s-1.5,1.4-2.2,2.2-.7.8-1,1.3-.1.2,0,0c0,0,0,0-.1.1,0,.1-.2.2-.2.3-.2.2-.3.4-.5.6-.3.4-.7.7-1,1.1s-.4.3-.6.5,0,0,0,0,0,0,0,0c0,0,0,0-.1,0-.1,0-.2.2-.4.3-.9.6-1.8,1.1-2.8,1.6s-1.7,1.1-2.4,1.9-1.2,1.7-1.4,2.7,0,.5,0,.7.3.6.6.6.6-.3.6-.6,0-.2,0-.3c0,0,0,.1,0,0s0,0,0,0c0,0,0-.1,0-.2,0-.2.1-.4.2-.7s0,0,0,0c0,0,0,0,0,0,0,0,0-.1,0-.1,0-.1.1-.2.2-.3s.1-.2.2-.3,0,0,0-.1,0-.1.1-.2c0,0,0,0,0,0s0,0,0,0c0,0,0-.1.1-.2,0,0,0,0,0,0,0,0,.2-.2.2-.3.2-.2.3-.3.5-.5s.3-.3.5-.4c-.1,0,0,0,0,0,0,0,.1,0,.2-.1.1,0,.2-.2.3-.2.9-.6,1.8-1.1,2.7-1.6s1.7-1.2,2.4-1.9c1.3-1.4,2.4-3,3.9-4.3s.2-.2.3-.2,0,0,.1-.1,0,0,0,0,.1,0,0,0,0,0,0,0c0,0,0,0,.1,0,0,0,.2-.1.3-.2.4-.2.8-.5,1.2-.7s0,0,.1,0,.2,0,0,0,0,0,0,0c0,0,.1,0,.2,0,.2,0,.4-.1.6-.2.4-.1.9-.2,1.3-.3s0,0,0,0c.1,0,0,0,0,0,0,0,.1,0,.2,0,.1,0,.2,0,.3,0,.2,0,.5,0,.7,0s.4,0,.7,0,.2,0,.3,0,0,0,.1,0,0,0,0,0c0,0,0,0,0,0,.4,0,.9.2,1.3.3s.4.1.6.2.2,0,.3.1,0,0,0,0c0,0,0,0,0,0s0,0,0,0c0,0,.3.1.1,0,.2.1.4.2.6.3l.3-1.2c-1.8.1-3.3.9-4.6,2s-2.3,2.4-3.4,3.6-1.1,1.2-1.8,1.7-.1.1-.2.2,0,0-.1,0c.1,0,0,0,0,0-.2.1-.4.3-.5.4-.3.2-.7.4-1.1.6s-.2,0-.2.1c.2,0,0,0,0,0,0,0,0,0-.1,0-.2,0-.4.1-.6.2-.4.1-.8.2-1.2.3-.8.2-1.6.3-2.5.4s-.2,0-.4,0-.1,0-.2,0c.2,0-.1,0-.2,0-.2,0-.4,0-.7,0-.5,0-.9.1-1.4.2-.9.2-1.8.4-2.7.8l.9.9c0-.2.1-.3.2-.5s0,0,0,0c0,.2,0,0,0,0,0,0,0-.2.1-.3.1-.3.3-.6.4-.9.3-.6.6-1.1,1-1.7s.4-.5.6-.8.2-.3.3-.4,0,.1,0,0,0,0,0,0c0,0,.1-.1.2-.2.4-.5.9-1,1.3-1.5s.9-.9,1.4-1.3.2-.2.4-.3.1,0,.2-.1.2-.1,0,0c0,0,0,0,.1,0,.3-.2.5-.4.8-.6.5-.4,1.1-.7,1.7-1s.6-.3.9-.4.3-.1.4-.2.2,0,.2-.1,0,0,.1,0c.1,0-.1,0,0,0,.7-.3,1.4-.5,2.1-.7s.3,0,.1,0c0,0,.1,0,.2,0,0,0,.2,0,.3,0,.2,0,.3-.1.5-.1.4,0,.7-.2,1.1-.2s.4-.9-.1-.8h0Z"/>
      <path class="st2" d="M115,35.5c.1-1.3,0-2.6-.1-3.9s-.2-1.2-.4-1.9-.4-1.3-.7-1.9c-1-2.2-2.7-4-4.9-5.1s-2.5-.9-3.9-.9-.8.4-.6.8.3.8.5,1.1,0,0,0,.1c0-.1,0,0,0,0,0,0,0,.2,0,.2,0,.2.1.4.2.5.3.7.6,1.4.9,2.1.6,1.3,1.3,2.7,2.1,3.9s1.8,2.3,2.9,3.3,2.7,1.7,4.1,2.3.5.2.7.3.2,0,.3.1,0,0,0,0c0,0,.1,0,.2,0,.4.2.8.4,1.2.5.8.4,1.6.8,2.3,1.3l.7-1.2c-.2-.1-.5-.2-.7-.3s-.2-.1-.3-.2-.2-.1-.3-.2c0,0,.1,0,0,0s0,0,0,0c0,0,0,0-.1-.1-.1,0-.2-.2-.3-.3-.2-.2-.4-.4-.5-.5s-.2-.2-.2-.3,0,0,0,0,0,0,0,0,0,0,0,0c0,0,0,0,0-.1-.2-.2-.3-.4-.4-.6s-.3-.4-.4-.7-.1-.2-.2-.3,0-.2,0,0c0,0,0-.1,0-.2-.2-.6-.4-1.2-.5-1.7s-.2-1.1-.2-1.7,0-1.2,0-1.8,0-.6,0-.9,0,0,0,0c0,0,0,0,0,0,0,0,0-.1,0-.2,0-.1,0-.2,0-.3,0-.3.1-.5.2-.8s0-.2.1-.3.1-.2.2-.3,0,0,0-.1,0,0,0,0c0-.1,0,0,0,0s.2-.2.2-.3,0,0,.1-.1c0,0,0,0,0,0,0,0,0,0,0,0,0,0,.1,0,.2,0s0,0,0,0c0,0,0,0,0,0l-.5-.3c.5,1.6,1,3.3,1.3,5s0,.4.1.6,0,.2,0,.3c0,0,0,.2,0,0,0,0,0,.1,0,.2,0,0,0,0,0,0,0,.4,0,.8.1,1.3,0,.8,0,1.7,0,2.5s0,.2,0,.3,0,.2,0,0c0,0,0,.1,0,.2,0,.2,0,.4-.1.7-.1.5-.2.9-.4,1.4l1-.4c-1.8-1-3.7-1.5-5.7-1.8s-3.9-.1-5.8.3-2.1.6-3.1,1.1-.3.7,0,.8c1.4.8,2.9,1.3,4.5,1.4s3.2-.2,4.7-.9,1.6-.9,2.3-1.5.2-.6,0-.8-.6-.2-.8,0-.3.2-.4.4c.1,0,0,0,0,0,0,0,0,0-.1,0,0,0-.2.1-.3.2-.3.2-.6.4-.9.5s-.3.1-.5.2.1,0,0,0,0,0-.1,0c0,0-.2,0-.3.1-.3.1-.7.2-1.1.3s-.4,0-.5.1-.2,0-.2,0,0,0-.1,0c.1,0,0,0,0,0-.4,0-.7,0-1.1,0s-.7,0-1.1,0,0,0-.1,0c-.2,0,.1,0,0,0s-.2,0-.3,0c-.2,0-.4,0-.5-.1-.4,0-.8-.2-1.2-.4s-.1,0,0,0c0,0-.1,0-.2,0,0,0-.2,0-.3-.1-.2,0-.4-.2-.6-.3v.8c.4-.2.8-.3,1.2-.5s.9-.3,1.3-.4.9-.2,1.4-.3.1,0,0,0c0,0,.1,0,.2,0,.1,0,.2,0,.4,0,.2,0,.5,0,.7,0,.5,0,.9,0,1.4,0s.5,0,.7,0,.2,0,.3,0,.2,0,0,0c0,0,.1,0,.2,0,.9.1,1.8.4,2.7.7s.5.2.7.3.1,0,.2,0,0,0,0,0c0,0,0,0,0,0,.1,0,.2.1.4.2.5.2.9.5,1.4.7s.9,0,1-.4c.3-.8.4-1.8.5-2.6s0-1.7,0-2.6c-.2-1.8-.6-3.5-1.1-5.2s-.6-1.9-.9-2.9-.3-.4-.5-.3c-1,.4-1.6,1.3-2,2.2s-.3.9-.3,1.4-.2,1.3-.2,2c0,2.4.5,4.9,1.9,6.9s1.7,1.9,2.9,2.5.7.1.9-.2.2-.7,0-.9-.2-.2-.3-.3.2.1,0,0-.1,0-.2-.1c-.2-.1-.3-.2-.5-.4-.3-.2-.7-.4-1-.6-.7-.4-1.4-.7-2.1-1s-.3-.1-.4-.2c.2,0,0,0,0,0,0,0-.2,0-.2,0-.2,0-.4-.2-.6-.2s-.2,0-.2,0c-.2,0,.2,0,0,0s0,0-.1,0c-.2,0-.4-.2-.5-.2-.7-.3-1.4-.7-2-1.1s-.3-.2-.4-.3,0,0-.1,0-.1-.1,0,0c0,0-.1-.1-.2-.2-.3-.2-.5-.5-.8-.7s-.5-.5-.7-.8-.2-.3-.3-.4,0-.1-.1-.2,0,0,0-.1c.1.1,0,0,0,0-.9-1.2-1.6-2.4-2.2-3.7s-.3-.7-.5-1.1,0-.2-.1-.3c0-.2,0,.1,0,0s0-.1,0-.2c0-.2-.2-.4-.2-.6-.2-.4-.3-.7-.4-1.1s-.3-.8-.4-1.2l-.6.8c.3,0,.5,0,.8,0s.2,0,0,0,0,0,0,0c0,0,.1,0,.2,0,.1,0,.3,0,.4,0,.3,0,.5.1.8.2s.3,0,.4.1.2.1,0,0c0,0,.1,0,.2,0,.5.2,1,.5,1.4.8s.2.2.3.2,0,0,0,0,.1,0,.2.1c.2.2.4.4.6.6s.4.4.6.6.2.2.3.3.2.2,0,0c0,0,0,.1.1.2.3.5.7,1,.9,1.5s.3.5.4.8,0,0,0,0c0,.1,0,0,0,0,0,0,0,.1,0,.2,0,.1.1.3.2.4.2.6.4,1.2.5,1.8s.2.7.2,1,0,0,0,.1,0,.2,0,0c0,.1,0,.2,0,.3s0,.2,0,.2,0,0,0,.1,0,.2,0,0c0,.3,0,.7.1,1s0,.7,0,1.1.2.4.4.4.4-.2.4-.4h0Z"/>
      <path class="st2" d="M117.3,24.3c-.3.7-.4,1.5-.4,2.2s0,1.5,0,2.2c.1,1.5.4,3,.7,4.6s.3,1.8.4,2.6.4.4.6.3.4-.3.3-.6c-.3-1.5-.6-3-.9-4.5s-.6-2.8-.6-4.3,0-1.6.3-2.4-.4-.4-.5-.1h0Z"/>
      <path class="st2" d="M118.6,37.4c0,0,.1,0,.2.1s0,0,0,0c0,0,0,0,0,0s.2.2.3.3c.2.2.4.4.6.5.4.4.8.8,1.2,1.2s.8.8,1.1,1.3.2.2.3.3,0,0,0,0c-.1-.2,0,0,0,0,0,0,.1.1.2.2.2.2.3.5.5.7.3.5.7,1.1,1,1.7l1.3-.7c-.1-.2-.3-.3-.4-.5s0,0,0,0c0-.1,0,0,0,0s-.1-.2-.2-.2c-.2-.3-.3-.6-.5-.8s-.1-.3-.2-.4,0-.1,0-.2c0,.1,0,0,0,0,0,0,0-.1,0-.2-.1-.3-.2-.6-.3-.9s-.2-.6-.2-.9,0-.2,0-.2c0,.1,0,0,0-.1,0-.2,0-.3,0-.5,0-.3,0-.6,0-.9s0-.3,0-.5c0,.1,0,0,0,0,0,0,0,0,0-.1,0,0,0-.2,0-.3,0-.3.1-.6.2-.9s0-.1,0-.2,0,0,0-.1c0-.1,0,0,0,0s.1-.3.2-.4.1-.2.2-.4,0,0,0-.1,0-.1,0,0c0,0,.1-.1.2-.2.1-.1.2-.2.3-.3s0,0,0,0h0s0,0,0,0c0,0,.1,0,.2-.1s.1,0,.2-.1c.1,0,0,0,0,0s0,0,0,0h0c0,0,0,0,0,0h0c0-.2-.1-.2,0-.1,0,0,0,.1,0,.2,0,.3,0,.7,0,1s0,.7,0,1.1,0,.2,0,.2,0,0,0,.1c0,0,0,0,0,0,0,.2,0,.4,0,.6-.1.8-.4,1.5-.7,2.2s0,0,0,.1c0,0,0,0,0,0,0,0,0,0,0,0,0,0,0,.2-.1.3,0,.2-.2.3-.2.5-.2.4-.4.7-.6,1s0,.7.2.8.7,0,.8-.2.3-.7.5-1,0-.1,0-.2c0,.1,0,0,0,0,0-.1,0-.2.1-.3,0-.2.1-.3.2-.5.2-.7.4-1.4.6-2.2s.2-1.5.2-2.3,0-.7,0-1.1,0-.4,0-.6-.2-.4-.5-.5c-.4,0-.8.1-1.1.3s-.6.4-.8.7c-.5.6-.8,1.2-1,1.9-.5,1.4-.5,2.8-.3,4.2s.3,1.5.6,2.3.3.8.5,1.2.2.3.3.5.2.4.3.5c.2.3.7.5,1,.3s.3-.3.3-.4,0-.4,0-.6c-1-2.2-2.6-4.2-4.6-5.5s-1.1-.7-1.7-.9-.5,0-.6.2,0,.5.2.6h0Z"/>
      <path class="st2" d="M130.1,38.7c0,.3,0,.5,0,.8s0,.1,0,.2,0,0,0,0c0,0,0-.1,0,0s0,.3,0,.5c0,.5,0,1.1,0,1.6,0,1.1,0,2.2,0,3.3,0,1.9,0,3.8.7,5.6s.4.9.7,1.3.1.2.2.3,0,0,0,.1.2.3.2.2,0,.1,0,.1c0,0,0,0,0,0,0,0,0,0,0,.1,0,0,.1.2.2.2.6.6,1.3,1.2,2,1.7s1.4.9,2.1,1.4.7.5,1,.7.2.1.3.2.1,0,0,0,0,0,0,0c0,0,0,0,0,0,.2.1.3.3.5.4.3.3.6.6.9,1s.2.3.4.5.2.4.4.5c.5.8.8,1.5,1.1,2.4s.1.4.2.6l.8-.3c-.5-.8-.9-1.6-1.4-2.5s-.9-1.6-1.2-2.5-.3-.8-.3-1.2,0,0,0-.1,0,0,0,0c0,0,0,0,0,0,0,0,0-.2,0-.3,0-.2,0-.4,0-.6s0-.4,0-.5,0,0,0-.1,0-.1,0,0,0,0,0-.1c0,0,0,0,0-.1,0-.2,0-.4.1-.5s0-.2,0-.3,0,0,0-.1,0,0,0,0c0,0,0,.1,0,0,0-.2.2-.3.3-.5s.1-.2.2-.2,0,0,0,0,0,0,0,0c0,0,0,0,0-.1.1-.1.3-.3.4-.4,0,0,0,0,0,0,0,0,0,0,.1,0,0,0,.2-.1.3-.2l-.7-.3c0,.5.1.9.2,1.4s0,1,0,1.4,0,.5,0,.7,0,.2,0,.4,0,.1,0,.2,0,0,0,0c0,0,0,0,0,0s0,.1,0,.2,0,.1,0,.2c0,0,0,0,0,0,0,.1,0,.2,0,.4,0,.2,0,.5-.1.7-.1.5-.3,1.1-.5,1.6h1.1c-.7-1.1-1.6-1.9-2.6-2.4s-2.1-.9-3.3-1.1-2.3,0-3.2.7-.9.7-1.2,1.2-.4.9-.4,1.4,0,1,.2,1.5.3.5.5.7.2.2.4.3.1,0,.2,0,0,0,0,0,.2,0,.1,0c.2.1.5,0,.7-.2s0-.6-.2-.7,0,0-.1,0-.1-.1,0,0c0,0-.1-.1-.2-.2s0,0,0-.1c0,0,0,0,0,0s-.1-.2-.2-.3,0-.2-.1-.2,0,.1,0,0,0,0,0,0c0,0,0-.1,0-.2,0,0,0-.2,0-.3,0-.1,0,0,0,0s0-.1,0-.2,0-.2,0-.3,0,0,0,0c0,.1,0,0,0,0,0,0,0-.1,0-.2,0,0,0-.2,0-.3s0,0,0-.1c0,.1,0,0,0,0,0,0,0-.2.1-.2s.1-.1,0,0c0,0,0-.1.1-.2,0,0,.2-.2.2-.2s0,0,.1-.1c0,0,0,0,0,0,0,0,.2-.1.3-.2s0,0,.1,0,.2,0,.1,0c.2,0,.5-.2.7-.2s.2,0,.3,0,0,0,0,0c0,0,0,0,0,0s.1,0,.2,0c.2,0,.5,0,.7,0s.2,0,.3,0,.1,0,.2,0c0,0,0,0,0,0,0,0,0,0,.1,0,.3,0,.5,0,.8.2s.5.2.7.2.2,0,0,0c0,0,.1,0,.2,0,.1,0,.2.1.4.2.2.1.5.3.7.5s0,0,0,0c0,0,0,0,0,0,0,0,.1,0,.2.1.1,0,.2.2.3.3s.2.2.3.3,0,0,.1.1,0,0,0,0,.1.1,0,0c0,0,.1.2.2.2,0-.1,0,0,0,0,0,.1.2.2.3.4.1.2.4.3.6.3s.4-.2.5-.4c.4-.9.6-2,.7-3s0-2,0-3-.2-1.2-.3-1.8-.5-.4-.7-.3c-1.4.8-2.1,2.4-2.2,3.9s0,1.6.3,2.4.8,1.8,1.3,2.7.6.9.8,1.4.5.9.7,1.4.3.4.5.3.3-.3.3-.5c-.2-1.2-.7-2.4-1.4-3.4s-1.5-1.9-2.4-2.7-1.9-1.3-2.9-2-.2-.2-.3-.2-.1,0-.2-.1c0,0,0,0,0,0s0,0,0,0c-.2-.2-.4-.4-.6-.6s-.4-.4-.6-.6,0-.1-.1-.2-.1-.1,0,0c0,0,0,0,0,0,0-.1-.2-.2-.2-.3-.2-.3-.3-.6-.5-.9s0,.1,0,0,0,0,0-.1c0,0,0-.2,0-.2,0-.2-.1-.3-.2-.5-.2-.7-.3-1.4-.4-2.1v.2c0-.3,0-.5,0-.8v.2c-.1-1.1-.1-2.2-.2-3.3s0-2.6-.2-3.9,0-.8,0-1.2,0-.2,0-.3,0,0,0,0c0,0,0-.2,0,0,0-.2,0-.4,0-.6s-.2-.5-.5-.5-.5.2-.5.5h0Z"/>
      <path class="st2" d="M135.2,54.7c-.4-.6-.6-1-.8-1.7s0,0,0-.1c0-.2,0,0,0,0s0-.3,0-.1c0,0,0,0,0-.1,0-.2,0-.3,0-.5s0-.2,0-.3,0-.1,0,0c0,0,0,0,0-.1,0-.2,0-.3.1-.5s0-.3.2-.5,0,0,0-.1c0,0,0,.1,0,0s0-.2.1-.3c.1-.3.3-.6.5-.9.4-.6.7-1.1,1.1-1.6s.8-1.2,1.1-1.8.5-1.4.5-2.1-.2-1.6-.7-2.1-1.3-.4-1.8,0-.6,1.5-.3,2.2.2.4.3.6.2.3.2.5,0,.2,0,.3,0,.1,0,.2,0,.2,0,0c0,0,0,.2,0,.3s0,0,0,.1c0,0,0,0,0,0,0,0,0,0,0,.1,0,.3,0,.6.3.6s.5,0,.6-.3c.3-.8,0-1.5-.4-2.2s-.3-.6-.4-.9,0-.2,0-.4h0s0,0,0,0c0,0,0,0,0,0s0,0,0,0c0,0,0,0,0,0,0,0,.1-.1,0,0,0,0,0,0,.1-.1s0,0,0,0c0,0,0,0,0,0s0,0,0,0c0,0,0,0,0,0s0,0,0,0c0,0,0,0,0,0s0,0,0,0c-.1,0,0,0,0,0,0,0,0,0,0,0s0,0,0,0,0,0,0,0c0,0,0,0,0,0s0,0,0,0c0,0,0,0,0,0,0,0,0,.1,0,.2s0,.2,0,.2,0,0,0,.1c0,.1,0,0,0,0s0,.3,0,.5,0,.2,0,.2,0,.2,0,0c0,0,0,0,0,.1,0,.3-.1.6-.2.9s0,.2,0,.2,0,0,0,.1c0,0,0-.1,0,0,0,.2-.1.3-.2.5-.3.6-.7,1.1-1,1.6-.8,1.1-1.5,2.2-1.8,3.4s-.2,1.5,0,2.3.6,1.5,1.2,1.9.4.2.6,0,.2-.4.1-.6h0Z"/>
      <path class="st2" d="M131.9,51.4c-.3-.4-.6-.8-1-1.2s-.8-.7-1.2-1c-.9-.6-1.9-1-2.9-1s-.5,0-.7,0-.6,0-.8.2-.6.3-.8.5-.4.4-.5.7c-.2.5-.2,1.1.2,1.5s.8.7,1.3.7,1-.1,1.4-.4.8-.6,1.2-.9.2-.2.3-.2h-.1c.2,0,.4-.2.6-.3h-.1c.1,0,.3,0,.5,0s.3-.1.3-.2,0-.2,0-.3c0-.2-.3-.5-.5-.5s-.6,0-.8.2-.4.2-.6.3c-.4.3-.7.6-1.1.9h.1c-.2,0-.4.2-.7.3h.1c-.2,0-.4,0-.6.1h.1c-.1,0-.3,0-.4,0h.1s0,0-.1,0-.1,0-.1,0,.1,0,0,0,0,0,0,0c0,0,0,0,0,0s0,0,0,0c0,0,0,0,0,0s0,0-.1-.1,0,0,0,0,0,0,0,0c0,0,0,0,0,0,0,0,0,0,0,0s0,0,0,0,0,0,0,0c0-.1,0,.1,0,0s0-.1,0-.2,0,0,0,0c0,.2,0,0,0,0s0-.1,0-.2,0,0,0,0c0,0,0,0,0,0,0,0,0,0,0,0,0,0,0,0,0-.1s0,0,0,0c0,0,0,0,0,0,0,0,0,0,0,0,0,0,0,0,.1-.1s0,0,0,0,0,0,0,0,0,0,0,0c0,0,.1,0,.2-.1s0,0,0,0c0,0-.1,0,0,0s0,0,.1,0c.1,0,.3,0,.4-.1h-.1c.3,0,.7,0,1,0h-.1c.5,0,.9.2,1.4.4h-.1c.6.2,1.2.6,1.8,1h-.1c.2,0,.3.2.5.3h-.1c.5.3.9.7,1.3,1.1s.4.2.6,0,.2-.4.1-.6h0Z"/>
      <path class="st2" d="M131.2,43.6c0-1.1-.1-2.1-.2-3.2s-.2-1.8-.2-2.7,0-.4,0-.6,0,.1,0,0,0,0,0,0c0,0,0,0,0-.1,0,0,0-.2,0-.3s0-.2,0-.3,0,.1,0,0,0,0,0,0c0,0,0-.1,0-.2,0,0,0-.2.1-.2s0,0,0,0,0,0,0,0c0,0,0,0,0-.1s0,0,0,0c0,0,0,0,0,0s0,0,0,0c0,0,0,0,0,0s0,0,0,0c0,0,0,0,0,0,0,0,.1,0,.2,0s0,0,0,0-.1,0,0,0,0,0,.1,0,0,0,0,0c-.2,0-.1,0,0,0s0,0,.1,0c-.1,0,0,0,0,0s0,0,0,0c0,0,0,0,0,0,0,0,0,0,0,0,0,0,0,0,0,0s0,0,0,0,0,0,0,0h0s0,0,0,0c0,0,0-.1,0,0s0,0,0,0c0,.1,0,0,0,0s0,0,0,.1,0,0,0,0c0,.1,0,0,0,0s0,.1,0,.2c0,.1-.1.2-.2.3s-.1.2-.2.3,0,0-.1.1c0,0,0,0,0,0s0,0,0,0c-.3.4-.7.7-1.1,1.1s-.2.5,0,.7.5.3.7.1c.8-.6,1.5-1.5,1.9-2.4s.2-.6.2-1-.2-.5-.5-.7c-.4-.3-.9-.2-1.3,0s-.8.5-1.1,1-.4.8-.4,1.3,0,1,0,1.4.1,1,.2,1.5.2,1.3.3,2,.2,1.3.4,1.9.7.3.7,0h0Z"/>
      <path class="st2" d="M131.2,45.2c0,0,0-.1,0-.2h0s0,0,0-.2h0s0,0,0-.1,0,0,0-.1h0c0,0,.1-.2.2-.3s.2-.3.2-.4h0c.1,0,.3-.3.5-.4h0s0,0,.1,0h0c.1,0,.2,0,.3-.1h-.1c.1,0,.2,0,.4,0h-.1c0,0,.2,0,.3,0h-.1c0,0,.1,0,.2,0h-.1s0,0,.1,0h0s0,0,0,0h0c0,0,0,0,0,0h0c0,0,0,0,0,0h0c0,0,0,0,0,0h0c0,0,0,0,0,0h0s0,0-.1.1h0c0,0-.1,0-.2.1h0c0,0-.2,0-.3,0h.1c-.4.1-.8.1-1.2.3s-.3.1-.4.2-.2.1-.2.3c0,0,0,.1,0,.2,0,0,0,.1,0,.2,0,0,.1.2.3.2s.2,0,.3,0,.1,0,.2-.1h-.1c.2,0,.5-.1.7-.2s.5-.1.8-.2.2-.2.4-.3.2-.2.3-.3c.2-.3.2-.6.2-.9s0,0,0,0c0,0,0-.1,0-.2s0-.1-.1-.2-.1-.1-.2-.2,0,0-.1,0c0,0-.1,0-.2,0s-.2,0-.2,0c-.1,0-.3,0-.4,0s-.2,0-.3,0-.3.1-.4.2c-.2.1-.4.3-.6.5s-.3.4-.4.7-.1.3-.2.4,0,.3,0,.4,0,0,0,0c0,0,0,.1,0,.2h0s0,0,0,.1c0,0,0,0,0,.1,0,0,0,0,0,.1,0,0,.1,0,.2,0,.2,0,.3,0,.3-.2h0Z"/>
      <path class="st2" d="M131.3,47c0-.2,0-.4,0-.5s0-.4-.1-.6c0-.3-.2-.7-.3-1s-.3-.7-.5-1.1-.4-.7-.6-.9-.5-.5-.9-.6-.4,0-.6,0-.1,0-.2,0c0,0-.2,0-.3.1s-.2.1-.2.2c0,.1-.2.2-.2.4,0,.2,0,.4,0,.7s.1.4.2.5.2.3.3.4c.2.3.5.5.8.6s.6.4.9.5.1,0,.2,0c.1,0,.3,0,.4,0s.2-.1.2-.2,0-.2,0-.3-.1-.2-.2-.3-.3-.1-.4-.2h.1c-.4-.1-.7-.3-1.1-.5h0c-.2,0-.3-.2-.4-.4h0c0,0-.1-.1-.2-.2h0s0-.1,0-.2h0s0,0,0-.1h0c0,0,0,0,0,0h0c0,0,0,0,0,0h0s0,0,.1,0h0s0,0,.1,0h-.1c0,0,.1,0,.2,0h-.1c0,0,.2,0,.3,0h-.1c0,0,.2,0,.3,0h-.1c0,0,.2,0,.3.1h0c.1,0,.2.1.3.2h0c.2.2.4.5.6.9s.3.7.5,1.1h0c0,0,.2.3.2.5s0,.2.1.3,0,.3.1.4h0c0,0,.1.2.2.4s.2.3.4.3.3-.2.3-.3h0Z"/>
      <path class="st2" d="M144.5,65c-.7,0-1.3.2-2,.5s-1.3.6-1.9,1c-1.2.8-2.2,1.9-3.1,3-1.9,2.6-2.7,5.9-2.7,9.1s.3,3.9.8,5.8.7.7,1.2.5,1.3-.7,1.9-1.1,1.2-.9,1.8-1.4c1.1-1,2.1-2.1,3-3.3,1.8-2.5,2.8-5.6,2.6-8.7s-.5-3.6-1.4-5.3-.7-.5-1.1-.3-.5.7-.3,1.1,0,.2.1.2h0c0,.1,0,.1,0,0,0,0,0,0,0,.1,0,.2.1.4.2.5.1.3.2.7.3,1.1s.2.7.2,1.1,0,0,0,.1c0,0,0,.2,0,0,0,0,0,.2,0,.3,0,.2,0,.4,0,.6,0,.7,0,1.5,0,2.2s0,.2,0,.3,0,.4,0,0c0,.2,0,.4,0,.6,0,.4-.1.7-.2,1.1s-.2.7-.3,1.1-.1.3-.2.5,0,0,0,.1c0-.2,0,0,0,0,0,0,0,.2-.1.3-.3.6-.6,1.2-1,1.8s-.4.6-.6.9-.2.3,0,0c0,0-.1.1-.2.2-.1.1-.2.3-.3.4-.4.5-.9,1-1.4,1.5s-.6.5-.9.8,0,0,0,0c-.1.1.2-.1,0,0s-.1.1-.2.2c-.2.1-.3.2-.5.3-.6.4-1.3.9-2,1.2l1.2.5c-.2-.8-.4-1.6-.5-2.4s0-.2,0-.3,0-.4,0-.1c0-.2,0-.5,0-.7,0-.4,0-.8,0-1.2,0-.8,0-1.7,0-2.5s0-.4,0-.6,0-.1,0-.2c0-.1,0,0,0,0,0-.1,0-.2,0-.4,0-.4.1-.8.2-1.2s.2-.8.3-1.2.1-.3.2-.5,0-.2,0-.3,0,0,0,0c0-.2,0,.1,0,0,.3-.6.6-1.2.9-1.8s.4-.6.5-.9.2-.3.3-.4,0-.2,0,0c0,0,0,0,0-.1,0,0,.1-.1.2-.2.4-.5.9-1,1.4-1.4s.1-.1.2-.2,0,0,.1,0c.1,0-.1,0,0,0s.3-.2.5-.3c.3-.2.6-.4.9-.6s.6-.4.9-.5,0,0,0,0,0,0,.1,0c.1,0,.2,0,.3-.1s.3-.1.5-.2.2-.2.2-.3-.1-.3-.3-.3h0Z"/>
      <path class="st2" d="M145.3,61.6c0,.2,0,.5-.2.7s-.1.5-.2.7c-.1.5-.3.9-.5,1.4s0-.1,0,0,0,0,0,.1c0,.1-.1.2-.2.4-.1.2-.2.4-.3.6-.2.4-.5.9-.8,1.3-1.1,1.8-2.3,3.4-3.5,5.1s-.6,1-.9,1.5-.6,1.1-.8,1.7.1.7.4.8.7,0,.9-.3c.3-.4.5-.9.7-1.4s.5-.9.8-1.3c.5-.9,1.1-1.7,1.7-2.6,1.2-1.7,2.4-3.5,3.1-5.4s.3-1.1.5-1.6.2-1.2.1-1.8-.2-.4-.4-.5-.5.1-.5.3h0Z"/>
      <path class="st2" d="M144.3,64.7c-1,0-2.1,0-3.1,0s-2.1,0-3.1,0c-1.9,0-3.7.2-5.5.9s-1.9.9-2.8,1.6-.2.5-.1.7.3.4.6.4c3.2,0,6.4-.4,9.4-1.1s.8-.2,1.3-.3.9-.3,1.3-.5.6-.4.4-.8-.4-.5-.8-.4c-1.5.4-3,.8-4.5,1.1s-1.5.3-2.3.4-.4,0-.6,0-.2,0-.3,0c0,0,.1,0,0,0s-.1,0-.2,0c-.4,0-.8,0-1.2.1-.9,0-1.7.1-2.6.1l.4,1c.1-.1,0,0,0,0s0,0,.1,0c0,0,.2-.1.3-.2.2-.1.4-.2.6-.3s.4-.2.5-.3.2,0,.3-.1c.2,0-.1,0,0,0s.1,0,.2,0c.8-.3,1.7-.5,2.5-.7s.4,0,.6,0,.2,0,.3,0,.1,0,.2,0c-.2,0,0,0,0,0,.5,0,.9,0,1.4-.1,1,0,2.1,0,3.1-.1s2.4,0,3.5-.2.4-.3.3-.5-.2-.4-.4-.4h0Z"/>
      <path class="st2" d="M144.8,70.6c.3.9.6,1.8.7,2.8s.2.9.3,1.4,0,.1,0,.2,0,0,0,0,0,0,0,0,0,0,0,0c0,0,0,0,0,.1,0,0,0,.1,0,.2,0,.2,0,.5,0,.7,0,.9,0,1.9,0,2.9s0,1-.1,1.4,0,.2,0,.3,0,.2,0,0c0,0,0,.1,0,.2,0,.2,0,.5-.1.7-.2,1.1-.4,2.1-.8,3.1h1.3c-.3-1.9-1-3.7-1.8-5.4s-.5-.9-.8-1.4-.6-.4-.9-.2-.4.6-.2.9c.5.8,1,1.6,1.3,2.4s0,0,0,0,0,0,0,0c0,0,0,.1,0,.2,0,.1,0,.2.1.3,0,.2.2.5.2.7.1.4.3.9.4,1.3s.2,1,.3,1.5.4.5.6.5.5-.2.6-.5c.7-1.9,1-3.9,1.1-5.9s0-1.9,0-2.9-.2-2-.5-3-.6-2.2-1.1-3.2-.4-.3-.6-.2-.3.3-.3.5h0Z"/>
      <path class="st2" d="M140.8,87.6c-.2.1-.4.3-.5.4,0,0,0,0,0,0,0,0-.1,0-.2.1,0,0-.2.1-.3.2s-.2.1-.2.2-.1.1,0,0c0,0-.1,0-.2.2-.2.1-.3.3-.5.4-.6.5-1.3,1.1-1.8,1.7-1.1,1.2-2.1,2.6-2.8,4.1s-.6,1.6-.8,2.4-.3,2-.2,3c.1,2.1.6,4.1,1.1,6.1s.5,2.3.8,3.4.3,1.1.4,1.7.3,1.1.4,1.7.5.6.8.5.5-.5.5-.8l-.6-3.7-.2-.9c0-.1,0-.3,0-.4s0-.1,0-.2,0-.3,0-.1c0-.5-.1-1,0-1.6,0,.1,0,0,0,0,0,0,0-.1,0-.2s0-.1,0-.2,0,0,0,0c0-.1,0,0,0,0,0-.1.1-.2.2-.3s0,0,0,0c0,0,0,0,0,0s0,0,.1-.1,0,0,0,0c0,0,0,0,0,0s.2-.1.3-.2,0,0,0,0c0,0,0,0,0,0,0,0,0,0,.1,0,0,0,.2,0,.3,0s-.1,0,0,0,0,0,.1,0,0,0,.1,0,.2,0,0,0,0,0,0,0c0,0,0,0,.1,0s0,0,0,0-.1,0,0,0,0,0,.1,0,0,0,0,0-.1,0,0,0,0,0,0,0,0,0,0,0c0,0,0,0,0,0,0,0,0,0,0,.1s0,0,0,0c0,0,0-.1,0,0s0,.1,0,.2,0,0,0,0c0,0,0,0,0,0,0,0,0,0,0,0s0,.1,0,0,0,0,0,0,0,.2,0,.2c0,0,0-.1,0,0s0,0,0,0c0,0,0,.1,0,.2s0,.1,0,0,0,0,0,0c0,0,0,0-.1.1s0,0,0,0,0,0,0,0,0,0,0,0c0,0,0,0-.1,0,0,0-.2.1-.3.2s0,0,0,0c0,0,0,0,0,0,0,0-.1,0-.2,0-.3,0-.5.1-.8.2s.1,0,0,0,0,0,0,0c0,0-.1,0-.2,0s-.1,0,0,0,0,0,0,0,0,0,0,0c0,0,0,0,0,0,0,0,0,0,0,0,0,0,0,0,0,0s0,0,0,0c0,.1,0,0,0,0,0,0,0,.2,0,0s0,0,0,0c0,0,0-.1,0-.2,0-.5-.2-.9-.4-1.4-.4-1-1-1.9-1.8-2.5s-1.7-1.3-2.7-1-1,.6-1,1.2.3,1.2.8,1.5c.9.7,2.1,1,3.2.7s.5-.2.8-.3.4-.6.2-.8-.5-.4-.8-.2c.1,0,0,0,0,0,0,0-.1,0-.2,0-.1,0-.3,0-.4,0s0,0,0,0c0,0,.1,0,0,0s-.1,0-.2,0c-.1,0-.3,0-.4,0s-.1,0-.2,0c0,0,.1,0,0,0s0,0,0,0c-.1,0-.3,0-.4,0s-.1,0-.2,0,0,0,0,0c.1,0,0,0,0,0-.1,0-.2-.1-.3-.2s-.1,0-.2-.1c0,0,0,0,0,0,0,0,0,0-.1-.1s0,0,0,0c0,0,0,0,0,0,0,0,0-.1,0-.2s0,0,0,0c0,0,0,0,0,0s0,0,0,0,0,.2,0,0,0,0,0,0c0,0,0,.1,0,0s0,0,0,0c0,0,0,0,0,0,0,0,0,0,0,0,0,0,0,0,0,0,0,0,0,0,0,0s0,0,0,0,0,0,0,0c0,0-.1,0,0,0s0,0,.1,0c.1,0,0,0,0,0s.1,0,.2,0,0,0,0,0c0,0,0,0,0,0,0,0,.3,0,.3,0s.1,0,.2,0,0,0,0,0c0,0,0,0,.1,0,.2.1.4.2.6.4s0,0,0,0c0,0,0,0,0,0,0,0,0,0,.1.1.1,0,.2.2.3.3s.2.2.2.2,0,0,.1.1.1.2,0,0c.2.2.3.4.4.6s.1.2.2.3,0,.1,0,.2,0,0,0,0c0,0,0,0,0,0,.1.2.2.5.2.7s.1.5.1.7c0,.6.4,1.2,1,1.4s.7,0,1,0,.5,0,.8-.2c.5-.2,1.1-.5,1.5-.9s.6-1,.6-1.6-.3-1.1-.8-1.4-.8-.3-1.3-.3-.9.2-1.3.5-.7.8-.9,1.3c-.4,1.1-.2,2.3,0,3.4l.5,3.8v1c.6-.1,1-.2,1.4-.4-.2-1-.4-2-.7-3s-.5-2-.7-3-.5-2-.7-2.9-.2-1-.3-1.4,0-.5-.1-.7c0,.2,0,0,0,0,0,0,0-.1,0-.2,0-.1,0-.3,0-.4,0-.5,0-1,0-1.4s0-.5,0-.7,0-.2,0-.4,0-.1,0-.2c0,0,0,0,0-.1,0,.1,0,.1,0,0,.1-.8.3-1.5.6-2.3s0-.2.1-.3c0-.2,0,.2,0,0s0,0,0-.1c0-.2.2-.4.3-.6.2-.4.4-.7.6-1s.4-.7.7-1,.2-.3.3-.4.1-.2,0,0c0,0,0,0,0-.1,0,0,.1-.2.2-.3,1.2-1.4,2.5-2.7,3.8-4s.2-.4,0-.6-.4-.3-.6-.1h0Z"/>
      <path class="st2" d="M138,98.6c0-.4,0-.9,0-1.3h0q0,0,0,0h0s0,0,0,0c0,0,0-.1,0-.2,0-.1,0-.2,0-.3,0-.2.1-.4.2-.6s0-.2.1-.3,0,0,0,0c0,.1,0,0,0,0,0,0,0-.1,0-.2,0-.2.2-.4.3-.6s.2-.4.4-.6,0,0,.1-.1,0,0,0,0c-.1.2,0,0,0,0,0,0,.1-.2.2-.3.3-.3.6-.7.9-1s.2-.1.2-.2,0,0,.1-.1,0,0,0,0,.1,0,0,0,0,0,0,0c0,0,0,0,.1,0,.1,0,.2-.1.3-.2.4-.3.8-.5,1.3-.7s0,0,.1,0c.1,0,0,0,0,0,0,0,0,0,0,0,.1,0,.3-.1.4-.1.2,0,.5-.2.7-.2.5-.2,1-.3,1.6-.4s.3,0,.4,0-.1,0,0,0,0,0,.1,0c0,0,.1,0,.2,0,.3,0,.6,0,.8,0l-.5-.9c-.4.7-.7,1.5-1.1,2.2s-.8,1.4-1.3,2,0-.1,0,0,0,0,0,.1c0,0-.1.2-.2.2-.1.2-.3.3-.4.4-.3.3-.6.6-.9.8s-.2.1-.2.2,0,0,0,0c0,0,0,0,0,0,0,0,0,0,0,0-.2.1-.3.2-.5.3-.3.2-.7.4-1,.6s-.2,0-.3.1-.1,0-.1,0,.1,0,0,0,0,0,0,0c-.2,0-.4.2-.6.2-.4.1-.9.2-1.3.3h.2c-.4,0-.8,0-1.1,0s-.7.3-.7.7.3.7.7.7c1.8,0,3.7-.6,5.2-1.7s2.8-2.5,3.7-4.2,1-1.9,1.4-2.9-.2-.8-.6-.8c-2.1.1-4.2.6-6.1,1.6s-1.7,1.1-2.4,1.9-1.2,1.7-1.5,2.7-.4,2.2-.2,3.3.3.4.5.4.5-.2.4-.5h0Z"/>
      <path class="st2" d="M134.9,94.6c.2-.3.3-.6.4-.9s.2-.7.2-1c0-.7,0-1.3,0-2s-.3-1.3-.6-1.9-.6-1.1-.9-1.6-1-1.2-1.7-1.7-.5-.1-.7,0-.3.3-.3.6c0,.7,0,1.4,0,2.1s0,1.5.2,2.2c.2,1.2.7,2.4,1.6,3.3s1,.9,1.7,1.2.4,0,.5,0,.2-.2.3-.3c.1-.3,0-.7-.3-.8s-.6-.3-.9-.5,0,0,0,0c0,0,0,0,0,0,0,0,0,0,0,0,0,0-.1-.1-.2-.2-.1-.1-.2-.2-.4-.4s0,0,0,0c0-.1,0,.1,0,0s-.1-.1-.2-.2c0-.1-.2-.3-.3-.4s-.2-.3-.2-.5,0,0,0,0c0,.1,0,0,0,0s0,0,0-.1c0,0,0-.2,0-.3-.1-.4-.2-.9-.3-1.3v.2c0-.6,0-1.3,0-1.9s.1-1.3.2-1.9l-1,.6s0,0,0,0h-.1c.5.3,1,.8,1.4,1.3h-.1c.4.4.8,1,1,1.7v-.2c.2.7.4,1.5.6,2.2v-.2c0,.2,0,.5,0,.7s0,.5,0,.7,0,.2,0,.4h0c0,0,0,0,0,0,0,0,0,0,0,0,0,0,0,.1,0,.2s0,.1,0,.2h0c0,0,0,0,0,0,0,0,0,0,0,0,0,.1,0,.2,0,.4,0,.2.3.3.4.1h0Z"/>
      <path class="st2" d="M144.6,91.3c-1,.6-2,1.3-2.8,2s-1.7,1.5-2.5,2.3-.8.8-1.1,1.3-.2.2-.3.3-.1.2-.2.2c-.1.1.1-.1,0,0s0,0-.1.1c-.2.2-.3.5-.5.7-.6.9-1.2,1.9-1.7,3s-.5,1.2-.8,1.9-.4,1.2-.5,1.9,0,.6.4.7.6-.1.7-.4c.2-.5.4-1.1.6-1.6s.2-.5.3-.8,0,0,0,0c0-.1,0,0,0,0,0,0,0-.1,0-.2,0-.1.1-.3.2-.4.5-1,1-2,1.6-3s.6-.9.9-1.4.3-.5.5-.7.2-.2.2-.3,0,0,0,0c0,0,0-.1,0,0s0,0,0,0c0,0,0,0,0,0,.7-.9,1.4-1.7,2.3-2.5s1.9-1.6,2.9-2.3.2-.3.1-.5-.3-.2-.5-.1h0Z"/>
      <path class="st2" d="M125.3,128.1c-.5-1.4-.8-2.9-1-4.3s0-.4,0-.5,0,0,0-.1c0,0,0,.1,0,0s0-.2,0-.3c0-.4,0-.7-.1-1.1s0-.7,0-1.1,0-.4,0-.5,0-.2,0-.3,0,0,0-.1c0,0,0-.2,0,0,0-.4.1-.7.2-1.1s0-.3.2-.5.1-.2,0,0c0,0,0-.1,0-.2.1-.3.3-.5.4-.8s.2-.2.3-.4,0-.1,0,0c0,0,0,0,0,0,0,0,.1-.1.2-.2.2-.2.4-.4.6-.6s.1-.1.2-.2,0,0,0,0c.1-.1,0,0,0,0,.1,0,.2-.2.4-.3.3-.2.5-.3.8-.4s0,0,.1,0c0,0-.2,0,0,0s.1,0,.2,0c.2,0,.3-.1.5-.2s.4,0,.6-.1,0,0,.1,0c0,0,0,0,.1,0h0c.1,0,.2,0,.3,0,.4,0,.7,0,1.1,0s.2,0,.3,0c-.2,0,0,0,0,0s.1,0,.2,0c.2,0,.4,0,.5.1s.4.1.6.2.2,0,.2,0c-.2,0,0,0,0,0s.1,0,.2,0v-1.1c-2.2,1.9-2.5,4.7-3.3,7.2s-.1.3-.2.4,0,.2,0,.2,0,.1,0,0c0,0,0,0,0,.1-.1.3-.3.6-.5.9s-.3.6-.5.9-.2.3-.3.4,0,.1-.1.2,0,0,0,.1c-.1.1,0-.1,0,0-.8,1.1-1.8,2-2.9,2.9s-.3.3-.5.4,0,0,0,0c0,0-.1,0-.2.1s-.1.1-.2.2c-.3.2-.6.5-1,.7-.6.4-1.3.9-1.9,1.3s-.4.6-.2.9.6.4.9.2c1.2-.7,2.4-1.5,3.5-2.4s2.1-1.8,3-2.8,1.6-2.2,2.2-3.5.8-2.6,1.3-3.9.2-.7.4-1,0-.2.1-.3,0,0,0,0c0,0,0-.1,0-.2,0-.2.1-.3.2-.5.2-.3.3-.6.5-.9s0,0,0-.1c0,0,0,.1,0,0,0,0,0,0,0,0,0,0,.1-.1.2-.2.1-.1.3-.3.4-.4.3-.3.3-.9-.1-1.1-1.4-.7-3-.9-4.5-.6s-2.7.9-3.7,1.9-1.7,2.2-2,3.5-.2,3.2.1,4.8.7,3.5,1.4,5.1.4.3.6.2.4-.4.3-.6h0Z"/>
      <path class="st2" d="M127.9,116.4c-.3.3-.6.5-.8.9s-.4.6-.6.9c-.4.7-.7,1.4-.8,2.1-.4,1.5-.6,3-.9,4.5s-.2.8-.3,1.2-.3.8-.4,1.2.1.8.4.9.8,0,.9-.3.4-.8.5-1.2.2-.7.3-1.1c.2-.8.3-1.6.4-2.4s0-.4,0-.6,0-.2,0-.3,0,0,0-.1,0,0,0,0c0-.1,0,0,0,0,0-.2,0-.5,0-.7,0,0,0,.2,0,0s0,0,0,0c0,0,0,0,0-.1,0,0,0-.2,0-.3.1-.7.2-1.5.5-2.2s.1-.4.2-.6,0,0,0,0c0,0,0,0,0,0,0,0,0,0,0-.1,0,0,0-.2.1-.3,0-.2.2-.4.3-.5s.1-.2.2-.3,0,0,0-.1,0,0,0,0c0,0,0,0,0,0,.1-.2.1-.4,0-.5s-.4-.1-.5,0h0Z"/>
      <path class="st2" d="M121,135.4c.1-.2.2-.5.3-.7s0,0,0,0c0,0,0-.1,0-.2s0-.1,0-.2c0-.1,0-.2.1-.4.1-.5.2-1,.3-1.5.1-1,0-2.1-.2-3.1-.4-1.8-1.4-3.5-2.8-4.8s-1.6-1.3-2.5-1.7-.7-.1-.9.2-.2.6,0,.9,0,0,.1.1,0,0,0,0c0,0,0,0,0,0,0,0,.1.2.2.3s0,.2.1.3,0,.1,0,.2,0,.2,0,0c0,.2.1.4.2.6s.1.4.2.6,0,.2,0,.3c0-.2,0,0,0,0s0,.1,0,.2c0,.2,0,.5,0,.7,0,.5,0,.9,0,1.4,0,.9.1,1.9.4,2.8s.8,1.9,1.3,2.8,1.2,1.8,1.8,2.8.7.5,1,.3.5-.7.3-1c-.5-.9-1.1-1.7-1.7-2.5s-.6-.8-.8-1.2-.2-.4-.3-.7,0-.1,0-.2,0,0,0,0c0-.1,0,0,0,0,0,0,0-.1,0-.2,0,0,0-.1,0-.2-.2-.4-.2-.9-.3-1.3s0-.2,0,0c0,0,0,0,0-.1,0-.1,0-.3,0-.4,0-.2,0-.4,0-.7,0-1,0-1.9-.2-2.9s-.5-2.1-1.2-2.9l-.8,1.1c.4.2.7.4,1.1.6s.3.2.5.4,0,0,0,0c0,0,0,0,0,0,0,0,0,0,.1.1,0,0,.2.1.2.2.3.3.6.6.9.9s.1.2.2.2,0,0,0,.1,0,0,0,0c0,0,0,0,0,0,.1.2.2.3.4.5.2.3.4.7.6,1.1s0,.2.1.3,0,.2,0,0,0,0,0,0c0,0,0,0,0,0,0,.2.2.4.2.7s.1.5.2.7,0,.2,0,.3,0,.1,0,.2,0,0,0,0c0,0,0,0,0,0,0,.5.1.9.1,1.4s0,.5,0,.8,0,.3,0,.4,0,0,0,0,0,0,0,0c0,0,0,.1,0,.2,0,.5-.2,1-.4,1.6s.6.9.9.4h0Z"/>
      <path class="st2" d="M97.2,144.1c.7-.1,1.4-.3,2.1-.6s1.4-.6,2.1-1c1.3-.8,2.5-1.7,3.5-2.9s1.9-2.5,2.6-3.9,1.2-3.2,1.4-4.9.2-3.8-.4-5.6-.5-.6-.9-.5-.3.2-.4.3,0,.3,0,.5c0-.2,0,0,0,0,0,0,0,.1,0,.2,0,0,0,.2,0,.3,0,.2,0,.4,0,.6,0,.4,0,.8,0,1.2,0,.8,0,1.6,0,2.4s0,.4,0,.6,0,.1,0,.2c0-.2,0-.1,0,0,0,.1,0,.2,0,.3,0,.4-.1.8-.2,1.1-.2.8-.4,1.5-.7,2.3s0,0,0,0c0,0,0,.1,0,.1,0,0,0,.2-.1.2,0,.2-.2.4-.3.6-.2.3-.4.7-.6,1s-.4.6-.6.9-.1.2-.2.2-.2.3,0,0c-.1.1-.2.3-.4.5-.5.5-.9,1.1-1.5,1.5s-.5.5-.8.7-.1.1-.2.2c.1,0,0,0,0,0s0,0,0,0c-.2.1-.3.2-.5.3-.7.5-1.4.9-2.1,1.2s-.7.4-1.1.5,0,0,0,0-.2,0,0,0c0,0-.2,0-.3.1-.2,0-.4.2-.6.3s-.3.4-.2.6.3.3.6.3h0Z"/>
      <path class="st2" d="M111.7,126.1c0,.2,0,.4,0,.6s0,.4,0,.5,0,.3,0,.5,0,.2,0,.3,0,0,0,.1,0,0,0,0c0,.1,0-.1,0,0-.1.7-.3,1.4-.5,2.1s0,.2,0,.2,0,0,0,.1,0,0,0,0c0,0,0-.2,0,0,0,.2-.1.3-.2.5-.2.3-.3.6-.5.9s-.2.3-.3.4,0,0,0,0,0,0,0,0c.1-.2,0,0,0,0,0,0-.1.2-.2.2-.2.3-.5.5-.7.8s-.3.3-.4.4,0,0-.1,0c.2-.1,0,0,0,0,0,0-.2.1-.2.2-.3.2-.7.4-1.1.6h.2c-.2,0-.3,0-.5.1s-.3.2-.4.3-.1.4,0,.5.2.3.3.4.4.1.5,0c.8-.3,1.5-.7,2.1-1.2s1.3-1.1,1.8-1.8c1-1.3,1.6-2.9,1.7-4.5s0-.9,0-1.4,0-.4-.1-.6,0-.5-.2-.7-.2-.2-.4-.2-.3.1-.3.3h0Z"/>
      <path class="st2" d="M103.2,125.3c-.1.3-.3.7-.3,1s-.1.8-.2,1.2c0,.8,0,1.5.1,2.3.2,1.5.8,2.9,1.7,4.1s1.1,1.5,1.9,2,.5.1.7,0,.3-.2.5-.3c.2-.3.3-.9,0-1.1s-.6-.5-.9-.8-.6-.6-.8-.9v.2c-.4-.7-.8-1.4-1.1-2.1v.2c-.3-.8-.5-1.6-.6-2.5v.2c0-.6,0-1.2,0-1.7s0-.3,0-.4,0-.1,0-.2,0,0,0-.1,0-.2,0,0c0-.2,0-.4,0-.5s0,0,0,0,0,0,0-.1c0,0,0-.2,0-.2,0-.2,0-.5-.3-.6s-.5,0-.6.3h0Z"/>
      <path class="st2" d="M102.1,141.5c0,0,.2-.2.3-.2s0,0,.1-.1,0,0,0,0c0,0,0,0,0,0s.2-.1.3-.2.2-.1.2-.2,0,0,0,0,.1-.1,0,0c.4-.3.8-.6,1.2-.9s.9-.5,1.3-.8.5-.2.7-.3.2-.1.3-.1.2,0,.1,0,0,0,0,0c0,0,0,0,.1,0,.9-.4,1.9-.7,2.9-.9s.5,0,.8-.1.1,0,.2,0,0,0,0,0-.1,0,0,0c.1,0,.3,0,.4,0,.5,0,1,0,1.5,0s1.1,0,1.7,0,.3,0,.4,0,.1,0,0,0c0,0,0,0,.1,0,0,0,.1,0,.2,0,.3,0,.6,0,.9.2l-.2-1.3c-1,.7-1.7,1.6-2.6,2.4s0,0-.1.1c-.1.1.1,0,0,0s-.2.1-.3.2c-.2.1-.4.3-.6.4-.4.3-.9.5-1.3.7s-.1,0-.2,0,0,0,0,0c0,0,0,0,0,0-.1,0-.2,0-.4.1-.2,0-.5.2-.7.2-.5.1-1,.3-1.4.3s-.2,0-.3,0-.1,0,0,0c0,0,0,0,0,0,0,0-.1,0-.2,0-.2,0-.5,0-.7,0-.5,0-1,0-1.5,0s-.3,0-.4,0,0,0,0,0c0,0,.1,0,0,0s-.1,0-.2,0c-.3,0-.5,0-.8-.2-.5-.1-1.1-.3-1.6-.5s-.4,0-.6,0-.3.3-.3.4c0,.4.1.8.5.9,1.9.8,4.1,1,6.1.7s4.1-1,5.7-2.3,1-.8,1.4-1.3,1-1,1.5-1.4.2-1.1-.3-1.2-1.1-.2-1.7-.3-1,0-1.6-.1c-1.1,0-2.2,0-3.2.3-2.1.4-4.1,1.2-5.9,2.4s-1,.7-1.5,1.1-.8.8-1.2,1.3-.2.5,0,.6.5.2.6,0h0Z"/>
      <path class="st2" d="M100.1,143s0,0,0,0,0,0,0,0c0,0,0,0,0,0,0,0,0,0,0,0,0,0,0-.1.1-.2,0-.1.2-.3.2-.4.2-.3.3-.7.4-1,.2-.7.3-1.4.4-2.1,0-1.4-.2-2.9-.8-4.2s-.7-1.4-1.3-2-.8-.2-1,.1-.4.6-.5.9-.3.6-.5.9c-.3.6-.6,1.3-.8,2-.4,1.3-.6,2.7-.5,4.1s.1,1.6.4,2.4.5.6.8.5.5-.4.5-.8-.1-.6-.2-1,0-.2,0-.2,0,0,0-.1c0-.1,0,.2,0,0s0-.3,0-.5c0-.6,0-1.3,0-1.9s0-.3,0-.5,0,0,0-.1c0,.2,0,0,0,0,0,0,0-.2,0-.3,0-.3.1-.6.2-.9s.2-.6.3-1,.1-.3.2-.4,0-.1,0-.2c0-.1,0,.1,0,0s0,0,0-.1c.2-.3.3-.7.5-1s.2-.3.3-.5,0-.2.2-.2,0,0,0,0c0,0,0,0,0,0,0,0,0,0,0,0h-1c.4.4.7,1,1,1.6s0,0,0,.1c0,0,0,0,0,0,0,0,0,0,0,0,0,0,0,.1,0,.2,0,.2.1.3.2.5.1.3.2.6.3.9s0,.3,0,.5,0,.2,0,.2,0,0,0,0c0,0,0,0,0,0,0,0,0,0,0,.1,0,.3,0,.7,0,1s0,.6,0,1,0,.3,0,.5,0,0,0,0c0,0,0,0,0,0,0,0,0,0,0,.1,0,.1,0,.2,0,.4s0-.1,0,0,0,0,0,0c0,0,0,0,0,.1,0,0,0,.2,0,.3,0,.2,0,.3-.1.5s-.1.4-.2.5,0,.2,0,.2,0,0,0,0c0,0,0,0,0,.1,0,0,0,0,0,.1,0,.2,0,.4.2.5s.4,0,.5-.2h0Z"/>
      <path class="st2" d="M98.1,138.2c0,.3,0,.6,0,.9s0,.6,0,.9h0c-.1.7-.4,1.5-.7,2.3v-.2c0,.2,0,.3-.1.5v-.2c0,0,0,0,0,.1,0,0,0,.2,0,.3,0,0,0,.2,0,.3,0,.2.2.3.3.4s.4.1.5,0,.3-.2.4-.3c.2-.3.3-.7.4-1.1s.2-.7.2-1.1c0-.6,0-1.3,0-2s-.1-.8-.2-1.2-.2-.3-.4-.3-.4.2-.3.4h0Z"/>
      <path class="st2" d="M111.6,138.1c-.5.2-1,.4-1.6.5s-1.1.3-1.6.4-.5.1-.8.2-.8.1-.8.1c0,0,.1,0,0,0s0,0,0,0c0,0-.1,0-.2,0-.1,0-.3,0-.4,0-.3,0-.5,0-.8,0-.6,0-1.3,0-1.9,0s-.8.3-.8.8.3.8.8.8c1.2,0,2.3-.3,3.5-.5s2.2-.6,3.2-1,1.2-.5,1.8-.8.2-.3.1-.4-.2-.2-.4-.2h0Z"/>
      <path class="st2" d="M103.7,126.8c0,0,0-.1,0-.2h0c0,0-.1-.2-.2-.4h0c-.2-.4-.4-1-.5-1.6h0c0,0,0-.3,0-.6s0-.5,0-.7v.2c0,0,0-.2,0-.3h0c0,0,0,0,0,0h0c0,0,0,0,.1,0h-.1c0,0,0,0,.1,0h-.1c0,0,.1,0,.2,0h-.2c0,0,.2,0,.3,0h-.2c.1,0,.2,0,.3,0h-.1c.1,0,.2,0,.3.1h-.1c0,0,.2,0,.2.1h0c0,0,0,0,.1,0h0s0,0,0,.2v-.2c0,.1,0,.3,0,.4v-.2c0,.2,0,.4-.2.7h0c-.1.2-.3.4-.5.7s-.1.3,0,.5.1.3.3.4.3.1.5,0,.3-.1.4-.3c.2-.3.4-.7.5-1.1s.1-.3.1-.5,0-.4,0-.6,0-.3,0-.4,0-.2-.1-.3c0-.1-.2-.3-.3-.4s-.2-.2-.4-.3-.3-.2-.4-.2-.3,0-.4,0-.3,0-.4,0-.2,0-.3.1,0,0-.1,0c-.2.1-.3.2-.4.4-.2.4-.2.8-.2,1.2s0,.8.2,1.1.2.7.4,1.1.1.3.2.5.2.3.3.4.1.2.2.3.2.1.2.1.1,0,.2,0,.1-.1.1-.2,0-.2,0-.3h0Z"/>
      <path class="st2" d="M107.8,125.2c-.2-.3-.3-.6-.5-.9h0c0,0,0,0,0,0h0c0,0-.1-.2-.2-.4v.2c0-.1,0-.3,0-.4v.2c0,0,0-.2,0-.3h0c0,0,0,0,.2-.1h0c0,0,.1,0,.2-.1h-.1c0,0,.2,0,.3,0h-.1c0,0,.2,0,.2,0h-.2c0,0,.1,0,.2,0h-.2c0,0,.1,0,.2,0h-.1c0,0,.1,0,.1,0h-.1c0,0,0,0,.1,0h0c0,0,0,0,0,0h0c0,0,0,0,0,0v-.2c0,0,0,.2,0,.3v-.2c0,.2,0,.3-.1.5h0c-.1.1-.3.3-.4.6,0,0,0,.1,0,.2,0,0,0,.2,0,.2,0,0,0,.1.1.2,0,0,0,.1.2.2.1,0,.3.1.5,0h.1c0-.1.2-.2.2-.3.1-.2.2-.4.3-.5s.1-.3.2-.4,0-.2,0-.3,0-.3,0-.4,0-.3,0-.4,0-.2-.1-.3,0,0,0,0c0,0,0-.1-.1-.2s-.1-.1-.2-.2,0,0-.1,0c0,0-.2,0-.3-.1s-.2,0-.3,0,0,0-.1,0c0,0-.2,0-.3,0s0,0-.1,0c0,0-.2,0-.3.1s0,0-.1,0c0,0-.2.1-.2.2-.1,0-.2.2-.3.3s-.1.3-.2.4,0,0,0,.1c0,0,0,.2,0,.3,0,.2,0,.4,0,.5s0,.2,0,.4.1.3.2.5c.2.3.3.5.5.7s0,0,.1.1c0,0,.1,0,.2.1,0,0,.1,0,.2,0h.1c0,0,.1,0,.2-.1,0,0,0,0,0,0,0,0,0-.1,0-.2,0-.1,0-.3,0-.4h0Z"/>
      <path class="st2" d="M111.9,126c0-.1-.2-.3-.2-.5s-.2-.3-.2-.5h0c0,0-.2-.3-.2-.5v.2c0-.2,0-.3,0-.5v.2c0,0,0-.2,0-.3h0s.1,0,.2-.2h0c0,0,.2,0,.2-.1h-.1c0,0,.2,0,.3,0h-.1c0,0,.2,0,.2,0h-.2c0,0,.1,0,.2,0h-.2c0,0,.1,0,.2,0h-.1c0,0,.1,0,.2,0h-.1c0,0,.1,0,.2,0h0c0,0,.1,0,.2.1h0c0,0,0,.1.1.2v-.2c0,.1,0,.3,0,.4v-.2c0,.1,0,.3,0,.4h0c0,0-.1.1-.2.2h0c0,0,0,0-.1,0,0,0-.1.1-.1.2,0,0,0,.2,0,.2,0,0,0,.2,0,.2,0,0,0,.1.1.2.1.1.3.2.4.2s.3,0,.4-.2,0,0,.1-.1c0,0,.1-.2.2-.3,0-.1.2-.3.2-.4s0-.2,0-.3c0-.2,0-.3,0-.5,0-.3,0-.7-.3-.9s0-.1,0-.2c0,0-.1-.2-.2-.2s0,0-.1,0,0,0-.1,0c0,0-.2,0-.3-.1s0,0-.1,0c0,0-.2,0-.3,0s-.2,0-.3,0,0,0-.1,0c-.3,0-.5.2-.7.5s0,0,0,.1c0,0-.1.2-.2.2,0,.1-.1.3-.2.4s0,.3,0,.4,0,.4,0,.5,0,.2.1.4.1.3.2.5.1.2.2.3.2.3.3.4,0,0,.1.1c0,0,0,0,.2,0,0,0,.1,0,.2,0h.1c0,0,.1,0,.2-.1,0,0,.1-.1.2-.2s0-.3,0-.4h0Z"/>
      <path class="st2" d="M92.1,136.5c-.8.9-1.6,1.8-2.6,2.6s0,0,0,0-.1,0,0,0,0,0,0,0c0,0,0,0,0,0-.1,0-.2.2-.4.3-.2.2-.5.3-.8.5-.5.3-1,.6-1.6.9s-.3.1-.4.2-.1,0-.2,0,0,0-.1,0-.2,0,0,0,0,0,0,0c0,0,0,0,0,0,0,0-.1,0-.2,0-.2,0-.3.1-.5.2-.6.2-1.2.4-1.8.5-1.4.3-2.9.5-4.2,1.1s-2.5,1.7-2.7,3.1,0,.7.4.9.8,0,.9-.3.2-.5.4-.7.1-.2.2-.3,0,0,0,0,0,0,0,0c0,0,.1-.1.2-.2.2-.2.4-.4.6-.5s0,0,.1-.1,0,0,0,0c0,0,0,0,0,0,0,0,.1,0,.1-.1,0,0,.1,0,.2-.1.2-.1.4-.3.7-.4s.1,0,.2,0c0,0-.1,0,0,0s0,0,0,0c.1,0,.3,0,.4-.1.3,0,.5-.1.8-.2s.1,0,.2,0,.2,0,0,0,0,0,0,0c.1,0,.3,0,.4,0,.3,0,.5,0,.8,0s.2,0,.2,0c0,0-.1,0,0,0s0,0,0,0c.1,0,.3,0,.4,0s.2,0,.4.1,0,0,0,0,0,0,0,0c0,0,.2,0,.2.1s.1,0,.2.1c0,0,0,0,0,0,0,0,0,0,0,0,0,0,0,0,.1.1s0,0,0,0c0,0,0,0,0,0,0,0,0,0,0,0,0,0,0,.1,0,.1s0-.1,0,0,0,0,0,0c0,0,0,0,0,0,0,0,0,0,0,0,0,0,0,0,0,0,0,0,0-.1,0,0h0s0,.1,0,.1h0s0,0,0,0h0c0,0,0,0,0,0,0,0,0,0,0,0,0,0,0,0,0,0,.1,0,0,0,0,0,0,0-.1,0-.2.1s-.1,0,0,0,0,0,0,0c0,0-.1,0-.2,0s-.1,0-.2,0,0,0-.1,0c-.1,0,0,0,0,0-.1,0-.3,0-.4,0s-.1,0-.2,0c-.1,0,0,0,0,0,0,0-.1,0-.1,0-.2,0-.3,0-.5-.1s-.2,0-.2,0,0,0,0,0c-.1,0,0,0,0,0-.3-.2-.7-.3-1-.5s-.3-.2-.4-.3-.1-.1-.2-.2,0,0,0,0c.1.1,0,0,0,0,0,0-.1-.1-.2-.2s-.1-.1-.2-.2,0,0,0,0c-.2-.1-.4-.3-.6-.4s-.6,0-.8.2-.2.6,0,.8c.5.5,1.1,1,1.8,1.4s1.3.7,2,.9,1.5.2,2.1,0,1.5-.8,1.4-1.7-.6-1.4-1.2-1.7-1.3-.5-1.9-.5c-1.2,0-2.5.2-3.6.8s-2.3,1.6-3,2.8l1.4.6c0,0,0-.1,0-.2s0,0,0-.1h0c0,.2,0,.1,0,0,0-.1,0,0,0,0,0,0,0,0,0-.1,0,0,0-.1.1-.2,0-.1.2-.2.2-.3,0,.1,0,0,0,0s0,0,0,0c0,0,.1-.1.2-.2,0,0,.2-.2.3-.3s.2-.2,0,0c0,0,.1,0,.2-.1.2-.2.5-.3.7-.4s.1,0,.2,0,0,0,0,0c.1,0,0,0,0,0,0,0,.2,0,.3-.1,0,0,.2,0,.3,0,.3-.1.7-.2,1-.3.7-.2,1.4-.3,2.1-.4,2.4-.6,4.7-1.7,6.6-3.4s1.9-2,2.7-3.1,0-.4-.1-.5-.4-.1-.5,0h0Z"/>
      <path class="st2" d="M86.4,142.1c.4-.5.7-1.1,1-1.7s.6-1.2.8-1.8c.4-1.2.5-2.6,0-3.8s-.7-1.4-1.5-1.4-.8.2-1,.5-.4.6-.5.9c-.5,1.1-.6,2.3-.5,3.5s.3,1.4.6,2.1.3.6.5.8.3.4.5.5.5.1.7,0,.3-.1.4-.2l-.4.2c.5,0,1-.2,1.5-.5s.8-.4,1.1-.6c.8-.5,1.4-1.2,1.9-1.9s.9-1.5,1.1-2.4.2-.9.2-1.4,0-.2,0-.4,0,0,0-.1,0,0,0-.1c0-.1,0,.1,0,0s0-.2,0-.3,0-.1,0-.2,0,0,0,0c0,0,0,0,0,0,0,0,0,.1,0,0,0,0,0-.1,0-.2s0,0,0,0c0-.1,0,0,0,0s0,0,0-.1,0,0,0,0c0,0-.1,0,0,0s0,0,.1,0,0,0,0,0c.1,0,0,0,0,0,0,0,.2,0,.3,0s-.2,0,0,0,0,0,0,0c0,0,0,0,.1,0,0,0-.2,0,0,0s0,0,0,0,0,0,0,0c0,0-.2,0,0,0s0,0,0,0c0,0,0,0,0,0,0,0,.1.1,0,0s0,0,0,0,0,0,0,0c0-.1,0,0,0,0s0,0,0,.1v-.2c0,.1,0,.3,0,.4v-.2c0,.3,0,.6-.2.8s0,.1,0,.2c0,0,0,0,0,0,0-.1,0-.1,0,0,0,0,0,0,0,.1,0,.1-.1.2-.2.4s-.1.2-.2.3,0,0,0,0c.1-.2,0,0,0,0s0,.1-.1.2c-.2.2-.4.4-.6.6h.1c-.3,0-.6.3-.9.4h.2c0,0-.2,0-.2,0-.2,0-.3.3-.4.5s0,.4,0,.6.3.3.5.4.4,0,.6,0c.3-.2.6-.4.9-.6s.5-.4.7-.7c.4-.5.8-1.2,1-1.8s.2-.7.2-1,0-.9-.2-1.2-.5-.5-.9-.6-.7,0-1,0-.6.4-.9.7-.3.6-.4,1,0,.8-.1,1.2,0,.2,0,.2,0,.2,0,.2c0,0,0-.2,0,0s0,0,0,0c0,0,0,0,0,.1,0,0,0,.1,0,.2,0,.3-.1.6-.2.8s0,.1,0,.2,0,0,0,.1c0,0,0,0,0,0,0,0,0,0,0,0,0,.1-.1.3-.2.4-.1.3-.3.5-.5.8s0,.1-.1.2,0,0,0,0,0-.1,0,0,0,0,0,0c0,.1-.2.2-.3.3-.2.2-.4.4-.6.6s-.1,0-.2.1,0,0,0,0,0,0,0,0c0,0,0,0,0,0-.1,0-.2.2-.4.3-.2.2-.5.3-.8.4s-.1,0-.2,0,0,0-.1,0c0,0,0,0,0,0,0,0,0,0,0,0-.1,0-.3.1-.4.1s-.1,0-.2,0,0,0-.1,0,0,0,0,0c0,0,.2,0,0,0l.4.2c0,0-.2-.1-.3-.2h.1c0,0-.1,0-.2,0s0,0-.1,0h.2c0,0-.1,0-.2,0h.1c-.3-.2-.5-.6-.7-1v.2c0,0,0-.2,0-.2v.2c-.1-.5-.3-1-.3-1.5v.2c0-.5,0-1.1,0-1.6v.2c0-.5.1-.9.3-1.3s0,0,0,0c0,.2,0,0,0,0,0,0,0-.1,0-.2,0,0,0-.2.2-.3s0-.1,0-.1c0,0,0,.1,0,0s0,0,0,0c0,0,0,0,0,0s0,0,0,0c0,0-.1,0,0,0s0,0,0,0h-.2s0,0,.1,0h-.2s0,0,.1,0c0,0,0,0,0,0,0,0,0,0,0,0,0,0,.2.1,0,0s0,0,0,0c0,0,0,0,0,0,0,0,0-.1,0,0s0,0,0,0c0,0,0,.2.1.2s0,0,0,0c0,0,0,0,0,0,0,0,0,0,0,.1,0,0,0,.2,0,.3,0,.2,0,.4.1.6v-.2c0,.5,0,1,0,1.4v-.2c0,.8-.3,1.6-.6,2.3s-.1.4-.2.6,0,.2-.1.3,0,0,0,.1c0-.1,0,0,0,0-.2.4-.3.8-.5,1.1s0,.4.1.5.4,0,.5-.1h0Z"/>
      <path class="st2" d="M79.1,144.1c0-.3,0-.7.1-1.1h0c0,0,0-.3,0-.5s0-.4,0-.5h0c0-.4.2-1,.4-1.6h0c.1-.2.3-.5.5-.8h0c.1,0,.3-.2.5-.4h-.1c.1,0,.3,0,.4-.1h-.2c.1,0,.2,0,.4,0h-.2c0,0,.2,0,.3,0h-.2c0,0,.1,0,.2,0h-.2s0,0,.1,0h-.1c0,0,.1,0,.1,0h-.1c0,0,0,0,.1,0v-.2c0,0,0,.1,0,.2v-.2c0,.1,0,.2,0,.3v-.2c0,.2,0,.4-.1.5v-.2c0,.2-.1.4-.2.6s-.3.4-.4.6h.1c-.3.2-.7.6-1.1.9h.2c-.2,0-.5.2-.7.4s-.3.3-.4.5,0,.4,0,.6.3.3.5.4.4,0,.6,0c.4-.2.8-.5,1.1-.8s.6-.7.9-1,.2-.3.3-.5.2-.5.3-.7c.2-.4.2-.9.2-1.4s-.2-.5-.4-.7-.4-.3-.7-.4c-.5-.1-1,0-1.4.3s-.7.6-1,1-.4.7-.5,1.1c-.2.8-.3,1.6-.3,2.4s0,.3,0,.4h0c0,.2,0,.5.1.8h0s0,0,0,.1c0,.2.2.3.4.3s.3-.1.4-.3h0Z"/>
      <path class="st2" d="M64,131.9c0,0-.1,0-.2,0,0,0,0,0-.1,0,0,0,0,0,0,0,0,0,0,0,0,0,0,0-.2,0-.3,0s0,0,0,0c0,0,0,0,0,0h0c-.1,0-.3,0-.4,0s-.3,0-.4,0c-.5-.1-1-.3-1.5-.5h.2c-.6-.2-1.1-.5-1.6-.9h.1c-.4-.2-.7-.5-1-.9h.1c-.3-.2-.5-.6-.7-1v.2c-.1-.4-.2-.9-.3-1.3v.2c0-.4,0-.8,0-1.3v.2c0-.4.1-.7.3-1v.2c0-.2.1-.5.3-.7h-.1c0,.1,0,0,.1,0h-.1c0,0,0,0,.1,0h-.2c0,0,0,0,.1,0h-.2c0,0,.1,0,.2,0h-.2c.1,0,.3,0,.4,0h-.2c.7.2,1.3.6,1.9,1h-.1c.6.4,1.2,1,1.7,1.6h-.1c.5.4.9,1.1,1.1,1.8v-.2c.2.7.4,1.5.5,2.2v-.2c0,.2,0,.3,0,.5s.2.3.3.4.3.1.4,0c.3,0,.6-.3.6-.7,0-.8-.3-1.6-.5-2.3s-.6-1.5-1.1-2.1c-.9-1.3-2.1-2.5-3.5-3.2s-.3-.2-.5-.2c-.3-.1-.6-.3-.9-.2s-.7.2-.9.4-.3.4-.4.6c-.4.8-.6,1.6-.5,2.5s.3,1.7.7,2.5.4.7.7,1.1.6.6,1,.9c1.4,1,3.1,1.4,4.7,1.4s.2,0,.3,0c0,0-.1,0,0,0s0,0,0,0c.1,0,.2,0,.4,0,.4-.1.4-.7,0-.8h0Z"/>
      <path class="st2" d="M45.4,119.1c-.2,0-.4-.1-.6-.2s.1,0,0,0,0,0,0,0c0,0,0,0-.1,0,0,0-.2,0-.3-.1-.4-.2-.7-.4-1-.7h.1c-.5-.3-.9-.7-1.3-1.2h.1c-.4-.4-.8-1-1.1-1.6v.2c-.2-.6-.3-1.2-.4-1.8v.2c0-.5,0-1.1,0-1.7v.2c0-.1,0-.2,0-.3v.2c0,0,0,0,0,0h-.1c0,.1,0,.1,0,0h-.1c0,0,0,0,0,0h-.2c0,0,0,0,0,0h-.2s0,0,0,0h-.2c0,0,.1,0,.2,0h-.2c.2,0,.3.1.4.2h-.1c.6.4,1.2.9,1.6,1.5h-.1c.5.5.9,1.2,1.2,2v-.2c.3.8.5,1.6.6,2.4v-.2c0,.5,0,1.1,0,1.6s.3.7.7.7.7-.3.7-.7c0-1.1-.1-2.3-.4-3.4s-.9-2.1-1.5-3-.7-.9-1.2-1.3-.4-.4-.6-.5-.6-.5-1-.6-.6,0-.8.1-.4.4-.5.7,0,.4,0,.5,0,.2,0,.4c0,.5,0,1.1,0,1.6s.2,1,.4,1.4.4,1,.7,1.4.2.3.3.4h-.1c.2.2.5.4.7.7s.5.5.8.7c.5.4,1.1.7,1.8,1s.7.2,1.1.3.3,0,.4,0,.2-.2.2-.3c0-.3,0-.5-.4-.6h0Z"/>
      <path class="st2" d="M24.4,63.9c.1-.3.3-.6.3-.9s.1-.6.1-1,0-.7,0-1-.1-.5-.2-.8c-.2-.6-.5-1.1-.8-1.6s-.4-.5-.6-.8-.5-.5-.8-.7c-.5-.4-1.1-.7-1.8-.9s-.4,0-.6,0-.3.3-.3.4c0,.3,0,.6,0,.9s0,.6,0,.9c0,.6.3,1.1.6,1.6.5,1,1.2,1.8,2.1,2.6s.4.4.7.6.6.5.9.6.8.1,1.1-.2.2-.3.2-.5,0-.5-.2-.6c-.5-.4-1.1-.8-1.7-1.2h.2c-.5-.3-1.1-.8-1.5-1.3h.1c-.3-.2-.5-.6-.7-1v.2c0-.4-.2-.8-.3-1.2v.2c0-.3,0-.7,0-1v.2c0,0,0-.2,0-.3l-.9.5c.1,0,.2,0,.4.1h-.2c.4,0,.7.3,1.1.5h-.2c.4.2.8.6,1.1,1v-.2c.2.4.4.8.6,1.3v-.2c0,.1,0,.2,0,.3v-.2c.1.4.2.9.3,1.4v-.2c0,.2,0,.3,0,.5v-.2c0,.3,0,.5,0,.8s0,.5,0,.8v-.2s0,0,0,.1c0,.1,0,.3,0,.4s.2.2.3.2c.2.1.6,0,.7-.2h0Z"/>
      <path class="st2" d="M43.3,27.8c0,0,0-.1,0-.2v.2c0-.1,0-.3,0-.4v.2c0-.2,0-.4,0-.6v.2c0-.4.2-.8.3-1.1v.2c.1-.5.4-.9.7-1.3v.2c.3-.6.9-1.1,1.5-1.6h-.2c.6-.3,1.3-.7,2-1h-.2c.5-.1,1-.3,1.6-.4l-1-.7c0,.3,0,.5,0,.8v-.2c0,.4-.1.8-.3,1.2v-.2c-.1.5-.4.9-.7,1.3v-.2c-.2.5-.7.9-1.1,1.3h.2c-.8.5-1.6.9-2.5,1.3h.2c-1,.3-2,.7-3.1,1s-.6.5-.5.8.5.6.8.5c1.6-.4,3.3-.8,4.7-1.7s2.6-1.9,3.3-3.3.6-1.7.6-2.6-.1-.5-.3-.6-.4-.2-.7-.1c-1.2.3-2.4.8-3.4,1.5s-2.1,1.7-2.7,2.8-.2.3-.2.5-.2.4-.2.6,0,.4-.1.7,0,.2,0,.3c0,.1,0,.3,0,.4v-.2c0,.3,0,.6.2.8h0s0,0,.1.1c.1.2.4.3.6.3s.4-.3.4-.5h0Z"/>
      <path class="st2" d="M101.2,26c-.2.1-.3.2-.4.4s-.2.3-.4.5c-.2.2-.3.5-.4.8-.3.6-.4,1.3-.4,2,0,1.3.6,2.6,1.6,3.5s1.2.9,2,1.1.5,0,.7,0,.4-.3.4-.5c.1-.5.2-1.1.2-1.6s0-1.1-.1-1.6c-.2-1-.5-2-1-2.9s-.6-1-1-1.5-.4-.2-.5-.2-.3,0-.4.2-.2.2-.3.4,0,.4,0,.6c.4.5.7,1.1,1,1.7v-.2c.2.7.4,1.5.5,2.2v-.2c0,.7,0,1.5,0,2.3v-.2c0,.3,0,.5-.1.8l1.1-.6c-.2,0-.4-.1-.5-.2h.2c-.3,0-.7-.3-1-.5h.2c-.3,0-.5-.4-.8-.6v.2c0-.3-.3-.6-.4-.9v.2c0-.3-.2-.7-.2-1.1v.2c0-.4,0-.7,0-1.1v.2c0-.4.1-.7.3-1.1v.2c0-.3.2-.6.5-.9h-.1c.1,0,.2-.2.3-.3h0c0,.1,0,.1,0,.1.1-.1.2-.3.2-.4s0-.3-.1-.4-.2-.2-.3-.2-.4,0-.5,0h0Z"/>
      <path class="st2" d="M88,14c0,0-.1.2-.2.3s0,.1-.1.2c0,.2-.2.3-.2.5-.1.3-.2.5-.2.8s-.1.7-.1,1,0,.7,0,1,.1.6.2.9v-.2s0,0,0,0c0,.1,0,.2,0,.3,0,.1.1.2.2.2.1,0,.2,0,.3,0,.1,0,.2,0,.3,0,0,0,0,0,0,0h-.2c0,0,.1,0,.2,0s.1,0,.2-.1,0,0,0,0c0,0,0,0,0,0,0,0,.2-.2.2-.3s.2-.3.3-.4c.2-.3.3-.7.4-1.1s0-.7,0-1.1,0-.4-.1-.6-.1-.4-.2-.6c-.2-.4-.4-.7-.7-1s-.3-.2-.4-.2-.3,0-.4.2-.2.3-.2.4,0,.3.2.4.1.1.2.2h0c.1,0,.3.3.4.5v-.2c0,.3.1.5.2.8v-.2c0,.3,0,.6,0,.9v-.2c0,.3,0,.6-.2.8v-.2c0,.2-.2.5-.3.7h.1c0,0-.1,0-.2,0s0,0,0,0c0,0-.1.2-.2.2h1.2,0s0,0,0,.1c-.2-.4-.3-.8-.3-1.2v.2c0-.4,0-.9,0-1.3v.2c0-.3,0-.6.2-.8s0-.3.1-.4,0-.3.1-.4h0c0-.2,0-.3,0-.3,0,0-.1-.2-.2-.2s-.2,0-.3,0-.3,0-.4.1h0Z"/>
      <path class="st2" d="M116.8,40.7c-.1.9,0,1.7.5,2.5s1,1.4,1.7,1.9.4.2.6.3.3.1.5.2.3,0,.5,0h-.2s0,0,0,0c.2,0,.4,0,.6-.1s.3-.3.3-.5,0-.5,0-.8,0-.4-.1-.6c-.1-.4-.3-.8-.5-1.2s-.5-.8-.7-1.1-.5-.6-.8-.8-.4-.3-.7-.5-.5-.3-.7-.4c0,0-.2,0-.3,0,0,0-.2,0-.2,0-.1,0-.2.2-.3.3s0,.3,0,.4.2.3.3.4.3.2.5.3.3.2.5.3h-.1c.4.2.7.5,1,.9h-.1c.3.3.6.7.8,1.2v-.2c.1.5.3,1,.3,1.5v-.2c0,.1,0,.2,0,.3l.9-.7c0,0-.1,0-.2,0s-.1,0-.2,0c-.1,0-.2,0-.3-.1h.2c-.3,0-.6-.2-.9-.5h.1c-.3-.1-.6-.4-.8-.7h.1c-.2-.2-.4-.5-.6-.8v.2c0-.4-.2-.8-.2-1.2v.2c0-.2,0-.4,0-.6s0-.3-.2-.4-.3-.2-.4-.2-.3,0-.4.2h0c0,.2,0,.3,0,.4h0Z"/>
      <path class="st2" d="M131.3,72c-.7.7-1.2,1.5-1.4,2.5s-.2,2,.1,2.9.4,1,.7,1.5c0,.1.1.2.3.3,0,0,.2,0,.3,0,.2,0,.4,0,.6-.2.7-.7,1.1-1.6,1.3-2.6s0-1,0-1.5-.1-.9-.3-1.4-.5-1-.9-1.4-.5-.2-.7,0-.1.2-.1.3,0,.2.1.3,0,0,.1.1h0c.2.2.4.4.5.7h0c.2.2.3.6.3,1h0c0,.2,0,.6,0,1v-.2c0,.4-.1.8-.3,1.2v-.2c0,.3-.3.7-.5.9h.1c-.2,0-.3.3-.5.4h1.1c-.2-.1-.4-.5-.5-.8v.2c0-.4-.2-.8-.3-1.3v.2c0-.5,0-.9,0-1.4v.2c0-.3,0-.6.2-.8s.2-.5.3-.8v.2c0-.3.3-.7.5-1s0-.3,0-.4,0-.2-.2-.3c-.2-.2-.5-.1-.7,0h0Z"/>
      <path class="st2" d="M129.2,93.9c-.4.2-.7.4-.9.7s-.5.6-.7,1-.4.7-.5,1.1-.2.8-.3,1.2,0,.9,0,1.4c0,0,0,.2.1.2,0,0,.1.1.2.2.2,0,.3.1.5,0,.9-.2,1.7-.9,2.1-1.6s.4-.8.5-1.2,0-.5,0-.7,0-.5,0-.7,0-.4-.2-.6-.2-.5-.4-.7-.2-.2-.3-.3-.3,0-.4,0-.2.2-.3.3,0,.3,0,.4.2.3.2.4h0c0,0,.2.3.2.6v-.2c0,.3,0,.5,0,.8v-.2c0,.3-.1.6-.2.9v-.2c0,.3-.2.5-.4.8h.1c-.2,0-.3.3-.6.4h.1c-.2,0-.4.2-.6.3h.2c-.1,0-.3,0-.5,0l.9.7c0-.1,0-.2,0-.3v.2c0-.4,0-.9,0-1.3v.2c0-.5.2-1,.4-1.5h0c.2-.3.4-.7.7-1h0c.1,0,.2-.2.3-.3h0c.1,0,.2-.2.3-.3h0c0,0,.1,0,.2-.1.2-.2.2-.4,0-.6s-.4-.2-.6-.1h0Z"/>
      <path class="st2" d="M130.8,106.9c-.9-.5-1.9-.6-2.9-.4s-2,.4-2.8,1-.9.7-1.3,1.1-.2.3-.1.5.2.4.4.4c1.2.3,2.4.5,3.5.4s.6,0,.8-.1.5-.2.7-.3c.4-.2.8-.5,1.2-.8s.7-.9.9-1.4,0-.6-.4-.7-.6,0-.7.4,0,.2-.1.3h0c0,0-.2.3-.3.4h0c-.2,0-.3.3-.6.4h.1c-.3.1-.5.3-.8.4h.1c-.3,0-.7.2-1.1.2h.1c-.6,0-1.1,0-1.7,0h.1c-.6,0-1.2-.2-1.8-.3l.2.9c.3-.3.5-.6.9-.8h-.1c.4-.2.8-.5,1.3-.7h-.1c.5-.2,1-.3,1.6-.4h-.1c.5,0,1,0,1.5,0h-.1c.1,0,.2,0,.3,0h-.1c.3,0,.5,0,.8.1h-.1c0,0,.2,0,.3,0,.2,0,.4,0,.5-.3s0-.5-.2-.6h0Z"/>
      <path class="st2" d="M119.5,114.4c0,0-.1,0-.2.1s0,0-.1,0,0,0,0,0c0,0,0,0,0,0,0,0,0,0-.1,0h.2c0,0,0,0,0,0h.2c0,0,0,0,0,0,0,0-.2,0-.3,0s-.2,0-.3.1h0s0,0,0,0c-.1,0-.2.1-.3.2s-.1.1-.2.2c-.1.2-.3.4-.4.5-.2.4-.4.7-.5,1.1s-.2.7-.3,1.1,0,.8,0,1.2,0,.5.1.7,0,.2,0,.3c0,.1.1.3.2.4,0,0,.1.2.2.2,0,0,.1,0,.2,0,.2,0,.4,0,.5-.2h0s0,0-.1,0c.4-.3.7-.6,1-.9s.5-.7.7-1.1c.4-.8.6-1.7.6-2.6s0-1-.1-1.5-.4-.5-.7-.4-.5.4-.4.7,0,.4.1.5h0c0,.3,0,.7,0,1.1h0c0,.3-.2.8-.4,1.2h0c-.2.3-.4.7-.7,1.1h0c-.3.2-.6.5-.9.8h.1c0,0-.1,0-.2,0l.9.4c0-.2,0-.4-.1-.7v.2c0-.5,0-1.1,0-1.6v.2c0-.5.2-1.1.4-1.6v.2c0-.2.2-.5.3-.7s.1-.2.2-.3.1-.2.1-.3,0-.1,0-.2h0c0,.1,0,.1,0,0,.1-.2,0-.4,0-.6h0c0,.1,0,.2.1.3,0,0,0,0,0,0v.2s0,0,0-.1h0c0,0,0,0,0,0,0,0,0,0,0-.1,0,0,0-.1.1-.2s0-.2,0-.3-.2-.1-.3,0h0Z"/>
      <path class="st2" d="M96.4,124.9c-.3-.2-.7-.3-1.1-.2s-.7.3-.9.6-.5.5-.7.8-.3.7-.5,1-.2.4-.3.6-.1.2-.2.3,0,.1,0,.2,0,.1,0,.2c0,0,0,.2,0,.3,0,0,0,.2,0,.2,0,0,0,.1.1.2,0,0,.2.1.3.2.2,0,.5,0,.7,0s.5,0,.7,0,.5-.1.7-.2.3-.2.5-.3.4-.3.5-.5.3-.4.4-.6c.2-.4.4-.9.4-1.4s0-.5,0-.8-.1-.5-.3-.7-.2-.2-.3-.3h-.2c0,0-.2,0-.2,0-.1,0-.2.1-.3.2s-.1.3,0,.4,0,.2,0,.3,0,.2,0,.3v-.2c0,.2,0,.5,0,.7v-.2c0,.2,0,.5-.2.7h0c0,0-.2.2-.3.4h0c-.1,0-.3.2-.4.3h.1c-.2,0-.4.2-.6.2h.1c-.2,0-.5,0-.7.1h.2c-.2,0-.5,0-.7,0h.2c0,0-.1,0-.2,0l.4.9c0-.1,0-.2.1-.3h0c.2-.2.4-.6.5-1s.3-.7.5-1,.2-.3.3-.5h0c.1,0,.3-.2.5-.4h-.1c.1,0,.2,0,.3-.1h-.1c0,0,.2,0,.3,0h-.1c0,0,.2,0,.3,0h-.1c0,0,.1,0,.2,0h-.1c0,0,.1,0,.2,0h-.1s0,0,0,0c0,0,.1,0,.2,0,0,0,.1,0,.2,0,.1,0,.2-.1.3-.2s0-.3,0-.4h0c0-.2-.1-.3-.2-.3h0Z"/>
      <path class="st2" d="M76.1,127.8c0,.1-.2.3-.2.4s0,.2,0,.3c0,.3,0,.5,0,.8,0,.5.1,1,.3,1.4s.2.5.3.7.3.4.5.7c.3.4.7.7,1.1,1s.5.3.8.4.6.2.9.2.3,0,.4-.2h0c0-.2,0-.3,0-.4.1-1.1-.2-2.2-.7-3.2s-.4-.6-.6-.8h0c-.2-.2-.5-.5-.8-.7s-.6-.5-1-.7-.4-.2-.7-.3-.4,0-.5,0-.2.2-.3.3,0,.3,0,.4.2.3.3.4.2.1.4.2h-.2c.4,0,.7.3,1,.5h-.1c.3.1.6.4.9.8h0c.3.2.5.6.7,1v-.2c.1.4.2.8.3,1.3v-.2c0,.3,0,.7,0,1l.6-.6s0,0,0,0h.2c-.3,0-.6,0-.8-.2h.1c-.3,0-.6-.2-.8-.4h.1c-.3-.1-.5-.4-.8-.7h0c-.2-.2-.4-.5-.6-.8h0c-.1-.2-.2-.5-.3-.9h0c0-.2,0-.6,0-.9h0s0,0,0-.2,0-.2,0-.2h0c0,.1,0,.1,0,.1,0-.1,0-.2,0-.3s-.1-.1-.2-.2c-.2,0-.4,0-.5.2h0Z"/>
      <path class="st2" d="M78.3,14.5c0,0-.1,0-.2,0h.1c0,0-.2,0-.3,0h.1c-.2,0-.5.1-.7.3s-.4.3-.6.4c-.3.3-.6.7-.9,1.1-.5.8-.8,1.7-.8,2.6s0,.5,0,.7,0,.3,0,.5,0,.1,0,.2c0,0,0,.2.1.3.1.2.3.3.5.3s.4-.1.5-.3,0-.1,0-.2v.2c0-.1,0-.3.2-.4h0c.1,0,.3-.2.4-.3s.3-.3.4-.5c.2-.3.5-.6.6-1,.4-.7.7-1.5.8-2.3s.1-1,0-1.5-.1-.2-.2-.3-.2,0-.3,0c-.2,0-.4.2-.4.5s0,.5,0,.8,0,.5,0,.8h0c0,.4-.2.9-.4,1.4h0c-.2.3-.4.7-.6,1.1s0,0,0,0c0,0,0,0,0,0,0,0,0,0-.1.1,0,0-.1.2-.2.2-.2.2-.3.3-.5.4h0c-.1,0-.2,0-.3.1h.3c0,0-.2,0-.2,0l.7.6c0-.1,0-.2,0-.3v.2c0-.1,0-.3,0-.4v.2c0-.2,0-.3,0-.5v.2c0-.4,0-.8,0-1.2v.2c0,0,0-.2,0-.3v.2c0-.4.2-.8.3-1.2h0c.2-.3.4-.6.6-1h0c.2-.2.5-.5.8-.7h-.1c0,0,.2,0,.3-.2h0c.1,0,.3-.1.4-.3h0c0,0,0,0,0,0,.1-.1.1-.3,0-.4s-.2-.3-.4-.2h0Z"/>
      <path class="st2" d="M75.7,20.2c-.1.2-.3.4-.4.6s-.2.5-.3.7c-.2.4-.3.9-.4,1.3s-.1.6-.1.9c0,0,0,.2,0,.2,0,0,0,.1.1.2h.1c0,.1.1.2.2.2,0,0,.1,0,.2,0,0,0,.1,0,.2,0,.1,0,.2-.2.3-.3s0-.3,0-.5v.2c0-.7.2-1.3.5-1.9s.1-.4.2-.5h0c0,0,.2-.3.2-.5h0c0,0,0,0,0,0,0,0,0-.1,0-.2,0,0,0-.1,0-.2,0-.1-.1-.2-.2-.3s-.2,0-.3,0-.2.1-.3.2h0Z"/>
      <path class="st2" d="M121.8,24.9c-.1.5-.2,1-.3,1.4s-.2,1-.3,1.5,0,.5,0,.8.1.5.2.7.2.4.4.6.3.3.5.4.3.1.4.1.2,0,.3,0,.2,0,.3,0c.1,0,.3,0,.4-.1s.2-.1.2-.2.1-.1.2-.2h0c.1,0,.2-.1.2-.3s0-.3,0-.4c0-.2,0-.4,0-.6,0-.4-.1-.9-.2-1.3-.2-.7-.5-1.5-1-2s-.6-.6-.9-.7c0,0-.1,0-.2,0h-.1c-.1,0-.2.1-.3.3,0,.2,0,.5.3.6s.2,0,.2,0h0c.2,0,.3.1.4.2s0,0,0,0,0,0,0,0c0,0,0,0,0,0,0,0,.1.1.2.2s0,0,0,0c0,0,0,0,0,0s0,0,0,.1c0,0,0,.1.1.2s0,0,0,.1,0,0,0,0,0,0,0,0c0,0,0,0,0,0s0,.2,0,.2c0,.2.1.5.2.7h0c0,.2,0,.6,0,.9s0,.3,0,.5,0,.3,0,.5h0c0,0,0,0,0,0h0c0,0,0,0,0,0h0c0,0,0,0,0,0h.1c0,0,0,0-.1,0h.1c0,0-.2,0-.3,0h.2c0,0-.2,0-.2,0h.2c0,0-.2,0-.3,0h.2c0,0-.2,0-.3,0h.2c-.1,0-.2,0-.3-.1h.1c-.1,0-.2-.1-.3-.2h.1c0,0-.2-.1-.2-.3v.2c0-.2,0-.4,0-.5v.2c0-.4,0-.8,0-1.2s.1-.9.2-1.3,0-.5,0-.8,0-.3-.1-.3-.2-.1-.3-.1c-.2,0-.5.1-.5.3h0Z"/>
      <path class="st2" d="M110.3,18.5c0,.2,0,.5,0,.7s.1.5.2.7c.2.4.5.8.8,1.1s.4.3.6.4.4.2.7.3c.5.1.9.1,1.4,0s.2,0,.3,0c.1,0,.3-.1.4-.2.2-.1.4-.3.6-.5s.2-.3.1-.5c0,0,0-.2-.1-.2,0,0-.1-.1-.2-.1-.2,0-.5-.2-.7-.3h.1c-1-.4-1.9-.9-2.8-1.5s-.5-.3-.8-.5-.3,0-.4,0-.2.1-.3.2,0,.3,0,.4h0c0,.2.1.3.2.3,1,.8,2.1,1.4,3.3,2s.7.3,1.1.5l-.2-.9c0,0-.1.1-.2.2h.1c-.2,0-.3.1-.5.2h.1c-.2,0-.4,0-.6.1h.1c-.2,0-.4,0-.7,0h.1c-.2,0-.4,0-.6-.2h.1c-.2,0-.4-.2-.6-.3h.1c-.2,0-.4-.3-.5-.5h0c-.2-.2-.4-.5-.5-.8h0c0,0-.1-.2-.2-.3h0s0-.1-.1-.3c0-.2-.2-.3-.4-.3s-.3.2-.3.4h0Z"/>
      <path class="st2" d="M94.8,30c0,0-.1,0-.2,0s0,0,0,0c0,0-.1,0-.2,0h.1c-.3,0-.6,0-.9,0s-.6,0-1,.1-.5.1-.8.3-.6.3-.9.4-.3.2-.4.3-.3.2-.5.4c-.3.3-.2.8.2.9.7.2,1.5.2,2.2,0s.7-.2,1-.4.6-.3.8-.5.7-.6.9-.9,0-.5-.1-.7-.5-.1-.7,0-.1.1-.2.2-.1.1-.2.2c-.1.1-.2.2-.4.3h.1c-.3.1-.6.3-1,.5h.1c-.4,0-.7.2-1.1.3h.1c-.4,0-.8,0-1.1,0h.1c-.2,0-.3,0-.5,0l.2.9c.2-.2.4-.4.6-.5h-.1c.3-.2.7-.4,1.1-.5h-.1c.5-.1.9-.3,1.4-.3h-.1c.1,0,.3,0,.4,0s.4,0,.5,0h-.1c.1,0,.2,0,.4,0s.3-.1.3-.3,0-.3-.2-.4h0Z"/>
      <path class="st2" d="M137.1,60.4c0,0,0-.1-.1-.2h0c0,0,0,0,0,0,0,0,0,0-.1-.2s0,0,0,0c0,0,0,0,0,0,0,0,0,0-.1-.1,0,0-.2-.2-.3-.3s-.3-.2-.4-.3-.2-.2-.3-.2c-.5-.3-1-.5-1.6-.6s-.3,0-.4,0-.2,0-.4,0-.2,0-.4,0c0,0-.1,0-.2,0,0,0-.1,0-.1.1h0c0,.2,0,.3,0,.4,0,0,0,.2.1.3h0c0,.2.2.5.4.8s.2.3.4.4.3.3.4.4c.5.4,1.2.6,1.9.7s.4,0,.6,0,.2,0,.2,0c.1,0,.2,0,.3-.1s.2-.2.2-.3,0-.2,0-.3c0-.2-.3-.3-.6-.3s-.3.1-.5.1h.1c-.2,0-.5,0-.7,0h.1c-.3,0-.5,0-.7-.2h.1c-.2,0-.4-.2-.6-.3h0c-.2,0-.4-.3-.5-.4h0c-.1,0-.2-.3-.3-.5h0s0-.1-.1-.2h0c0,0,0,0,0,0l-.7.5c.2,0,.4,0,.6.1h-.2c.5,0,.9.2,1.3.3h-.1c0,0,.2,0,.3,0h-.1c.5.1.9.4,1.3.7h-.1c0,0,.2,0,.3.2s.1.1.2.2,0,0,.1.1h0c0,0,.1,0,.2,0,0,0,.2,0,.2-.1s0-.1.1-.2c0-.1,0-.2,0-.3h0Z"/>
      <path class="st2" d="M66.3,125.3c0,.1,0,.3,0,.4h0c0,.3,0,.8,0,1.2s.1.4.2.6.2.3.3.5.3.3.4.5.3.2.5.3.4.2.7.2.4,0,.5,0c.3,0,.5,0,.8-.2s.4-.3.6-.5h0c0-.2,0-.3,0-.3,0-.1,0-.2-.2-.3-.3-.3-.7-.6-1-.9s-.6-.5-.9-.8-.3-.3-.5-.4-.3-.2-.4-.3c-.3-.2-.6-.4-.9-.5s-.9-.3-1.3-.3-.2,0-.3.1-.1.2-.1.3,0,.2.1.3.2.1.3.1c.2,0,.4,0,.5,0h-.1c.3,0,.5,0,.7.2h-.1c.3,0,.6.3.8.4h0c.3.2.6.5.9.8s.3.3.5.5.4.4.5.5.4.4.6.6v-.8s0,0-.1.1h.1c0,0-.2,0-.3,0h.1c0,0-.1,0-.2,0h.1c-.1,0-.2,0-.4,0h.2c-.2,0-.3,0-.5,0h.2c0,0-.1,0-.2,0h.2c-.2,0-.3,0-.5-.1h.1c-.1,0-.3,0-.4-.2h.1c-.1,0-.2-.1-.3-.3h0c-.1,0-.2-.3-.3-.5h0c-.1-.2-.2-.5-.3-.8h0c0,0,0-.2,0-.4h0s0,0,0-.2c0-.2-.1-.4-.4-.4s-.4,0-.4.3h0Z"/>
      <path class="st2" d="M32.5,30c0,0,0-.1,0-.2h0c0,0,0-.3,0-.5s0-.4,0-.6h0c0-.2.2-.6.3-.9h0s0,0,.1-.2h0c.2-.3.4-.6.6-1h0c.3-.2.6-.5.9-.8h-.1c.3-.2.7-.4,1.1-.6h-.1c.3,0,.6-.2.9-.2h-.1c0,0,.1,0,.2,0l-.5-.5c0,.2,0,.5,0,.7h0c0,.3-.2.7-.4,1.1h0c-.2.3-.4.8-.8,1.2h0c-.3.3-.6.6-1,.9h.1c-.4.2-.7.4-1.2.6h.1c-.3,0-.6.2-.9.2s-.3.2-.3.3-.1.3,0,.4.1.3.3.3.3,0,.4,0c1-.2,2-.7,2.8-1.5s1.4-1.6,1.6-2.7.2-1.2.2-1.7,0-.3-.2-.4-.2-.2-.4-.2-.2,0-.3,0h.1c-.6,0-1.1.2-1.7.5s-.9.6-1.3,1-.7.8-.9,1.3-.2.5-.3.8-.1.6-.2.8,0,.5,0,.8.1.6.2.9.3.4.5.3.3-.3.3-.5h0Z"/>
      <path class="st2" d="M65.9,14.6c-.3-.2-.5-.5-.8-.6s-.6-.3-.9-.4c-.6-.3-1.3-.5-2-.6-1.4-.2-2.8-.1-4.1.3s-1.4.6-2.1,1-.3.3-.3.6.1.5.3.6.3.2.4.2.1,0,.2.1.1,0,.2,0c.2,0,0,0,0,0,0,0,0,0,0,0,.3.1.7.3,1,.4.7.2,1.4.3,2.1.4,1.3.1,2.7,0,4-.5s.8-.3,1.2-.5.7-.4,1-.5.4-.6.2-.9-.6-.4-.9-.2c-.7.3-1.3.8-1.8,1.2s-1,.9-1.5,1.4c-1,1.1-1.8,2.4-2.4,3.8s-.5,1.7-.4,2.6.3.6.6.6.6-.3.6-.6,0-.4,0-.5,0,0,0-.1,0,0,0,0c0,0,0,0,0,0,0,0,0-.2,0-.3,0-.4.2-.7.3-1.1s0,0,0-.1,0,0,0,0,0,.1,0,0,0-.2.1-.3c0-.2.2-.3.3-.5.2-.3.3-.6.5-.9s.2-.3.3-.4,0-.1.1-.2,0,0,0,0,0,0,0,0c0,0,0,0,0,0,.2-.3.4-.5.7-.8.4-.5.9-1,1.4-1.4s.2-.1.2-.2,0,0,.1,0,0,0,0,0c0,0-.1,0,0,0,.2-.1.3-.2.5-.3.3-.2.6-.4.9-.6l-.7-1.2c-.3.2-.6.4-.9.5s-.1,0-.2,0,0,0-.1,0c0,0,0,0,0,0,0,0,0,0,0,0-.2,0-.3.1-.5.2-.6.2-1.3.4-1.9.5h.2c-.8,0-1.7,0-2.5,0h.2c-.6,0-1.1-.2-1.6-.3s-.3,0-.4-.1-.1,0-.2,0-.2,0,0,0,0,0,0,0c-.3-.1-.5-.3-.8-.4v1.2c.3-.2.5-.3.8-.5s.3-.1.4-.2h0s0,0,0,0c0,0,0,0,.1,0,0,0,.1,0,.2,0,.6-.2,1.2-.4,1.8-.4h-.2c.8,0,1.7,0,2.5,0h-.2c.6,0,1.1.2,1.7.3s.3,0,.4.1.1,0,.2,0,0,0,0,0c0,0,0,0,0,0,0,0,0,0,0,0,.2,0,.3.1.5.2s0,0,0,0c0,0,0,0,0,0,0,0,.1,0,.2,0,.2,0,.4,0,.5-.1s.1-.4,0-.5h0Z"/>
      <path class="st2" d="M15.8,79.2c0,0,0-.1-.1-.2h0c0,0,0,0,0,0,0,0,0-.1-.1-.2s-.1-.1-.2-.2c-.1-.1-.2-.2-.3-.4-.2-.2-.4-.5-.6-.7h0c-.3-.3-.6-.7-.7-1.1h0c-.1-.2-.2-.5-.3-.9h0c0-.1,0-.4,0-.7v.2c0-.2,0-.5.2-.7h0c0,0,0,0,0,0l-.8.2c.3.1.5.3.8.5h-.1c.3.1.6.4.8.7h0c.2.2.4.5.6.9h0c.2.2.3.6.3,1v-.2c0,.4,0,.7,0,1.1v-.2c0,0,0,.2,0,.3,0,.2,0,.3,0,.5s.2.2.4.3.3,0,.5,0,.2-.2.3-.4c.2-.8.1-1.7-.2-2.5s-.7-1.6-1.4-2.1-.7-.6-1.2-.8-.3-.1-.4,0-.3.1-.3.3c-.2.5-.3.9-.3,1.4s0,.9.2,1.4c.3.9.9,1.7,1.5,2.4s.3.3.5.5.2.2.3.2.2.1.2.2.1,0,.2.1c0,0,.2,0,.3,0s.2,0,.2-.2,0-.2,0-.3,0-.2-.1-.3h0Z"/>
      <path class="st2" d="M31,118.1c-.9-.3-1.9-.4-2.9-.3s-1,.1-1.5.3-1,.4-1.4.6-1,.6-1.4,1-.2.4-.2.6.1.4.3.5c.8.6,1.8.6,2.7.4s1.6-.7,2.4-1.2.9-.5,1.3-.7h-.1c.2,0,.4,0,.6-.1.3,0,.5-.4.4-.7s-.4-.5-.7-.4c-1,.3-1.9.9-2.8,1.4s-.5.3-.7.4h.2c-.4,0-.7.2-1.1.3h.2c-.3,0-.5,0-.8,0h.2c-.2,0-.4,0-.6-.1h.2c-.2,0-.3,0-.4-.2v1c.2,0,.3-.2.4-.3h-.1c.6-.3,1.1-.7,1.8-1h-.2c.7-.2,1.5-.5,2.2-.6h-.2c.1,0,.3,0,.4,0h-.2c.3,0,.7,0,1,0s.3,0,.5,0,.2,0,.3,0,0,0,.1,0,.2,0,0,0c.1,0,.2,0,.3,0s.2-.1.2-.2c0-.2,0-.4-.3-.5h0Z"/>
      <path class="st2" d="M52.6,123.2c-.1,0-.3-.2-.4-.3h.1c-.4-.2-.8-.6-1.1-1h0c-.4-.4-.7-.9-.9-1.4v.2c-.1-.5-.3-1-.4-1.6v.2c0-.3,0-.6,0-.8l-.8.6c.2,0,.4.1.6.2h-.2c.3,0,.7.3.9.5h-.1c.3.1.6.4.9.8h-.1c.3.2.5.6.6,1v-.2c0,.4.2.8.2,1.2v-.2c0,.3,0,.7,0,1.1s0,.4.2.5.3.2.4.2.3,0,.5,0,.3-.2.3-.4,0-.3,0-.5,0-.2,0-.3c0-.3,0-.5-.1-.8,0-.5-.3-.9-.5-1.4-.4-.9-1.1-1.6-1.9-2.1s-.9-.5-1.5-.6-.4,0-.6.1-.3.3-.3.5c0,.5,0,.9.2,1.4s.2.9.4,1.3c.3.8.9,1.5,1.5,2.1s.8.6,1.2.9.3,0,.4,0,.3-.1.3-.3c.1-.3,0-.6-.2-.8h0Z"/>
    </g>
    <g>
      <path class="st2" d="M81.2,48.5c-1.1-1.3-2.4-2.3-3.7-3.3s-2.9-1.6-4.4-2.2-3.2-.9-4.9-1.1-3.2-.2-4.9,0-3.3.6-4.8,1.3-.4.2-.7.3c-.4.2-.4.9,0,1.1,2.8,1.6,5.7,2.9,8.8,3.8s6.3,1.4,9.5,1.5,1.6,0,2.4,0,1.8,0,2.6-.6,1-1.2,1.4-1.8,0-.1.1-.2,0,0,0-.1c0,0-.1.1,0,0s.2-.3.3-.4c.2-.3.4-.5.7-.8.5-.5,1-1,1.5-1.4s.2-.2.4-.3.1,0,.2-.1,0,0,.1,0h0s0,0,0,0c.3-.2.6-.4.8-.6.6-.4,1.1-.7,1.7-1s.6-.3.9-.5.3-.1.4-.2.2,0,0,0c0,0,0,0,0,0,0,0,.2,0,.3-.1,1.3-.5,2.6-.9,3.9-1.1s.2,0,.2,0,0,0,.1,0,.2,0,0,0,0,0,0,0c0,0,0,0,.1,0,0,0,.2,0,.3,0,.3,0,.6,0,1,0,.7,0,1.4,0,2,0s.3,0,.5,0,.2,0,0,0c0,0,0,0,0,0,0,0,.2,0,.3,0l-.4-1.1c-.3.6-.6,1.1-1,1.7s-.2.2-.3.4,0,0,0,0c0,0,.1-.1,0,0s0,.1-.1.2c-.2.2-.4.5-.6.7-.4.5-.9.9-1.4,1.3s-.1,0-.2.1-.2.1-.2.2c0,0,.1,0,0,0s0,0,0,0c0,0-.1.1-.2.2-.3.2-.5.4-.8.5-.5.3-1.1.7-1.6.9s-.6.3-.9.4-.1,0-.2,0-.2,0,0,0c0,0,0,0-.1,0-.2,0-.4.2-.6.2-1.4.5-2.9,1-4.4,1.3s-3.4.7-5.1.9l.9.7c-.4-3.2-1.5-6.3-3.5-8.8s-.6-.8-.9-1.1-.6-.6-.9-.9-.8-.3-1,0-.3.7,0,1,.5.6.8.9.2.3.3.4.1.1.2.2,0,0,0,0c0,0,0,0,0,0,0,0,0,0,0,0,.5.6.9,1.2,1.2,1.9s.7,1.3,1,2,0-.2,0,0,0,0,0,.1c0,0,0,.2,0,.2,0,.2.1.4.2.6.1.4.2.7.3,1.1s.2.8.3,1.2,0,.4.1.6,0,.2,0,.3c0,.2,0-.2,0,0s0,.1,0,.2c0,.2,0,.4.3.6s.4.2.7.1c3-.5,6.1-1,9-2.1s5.1-2.3,7-4.3,1-1.1,1.5-1.8.4-.6.6-.9.2-.3.3-.5,0-.2.1-.3,0-.1,0-.2c0,.2,0,0,0,0,.1-.2.1-.5,0-.7s-.4-.3-.6-.4c-1.3-.1-2.7-.2-4,0s-2.7.4-4.1.8c-2.6.9-5.1,2.3-7.2,4.1s-2,2-2.7,3.1-.2.3-.3.4-.1.2-.2.2,0,0,0,0c0,0-.1.1-.1.2,0,0-.1.1-.2.2,0,0,0,0,0,0h0s0,0,0,0c0,0,0,0-.1,0,0,0,0,0,0,0,0,0-.2,0-.3,0s-.2,0-.3,0h0s0,0-.1,0c0,0-.1,0-.2,0-.2,0-.4,0-.6,0-.4,0-.8,0-1.1,0-1.6,0-3.2,0-4.8-.2s-.4,0-.5,0-.2,0-.3,0-.1,0-.2,0c.2,0,0,0,0,0-.4,0-.8-.1-1.2-.2-.8-.1-1.5-.3-2.3-.5-1.5-.4-3-.8-4.5-1.4s-.4-.1-.5-.2-.2,0-.3-.1-.1,0-.2,0-.2,0,0,0c-.4-.2-.7-.3-1.1-.5-.7-.3-1.4-.7-2.1-1.1s-.7-.4-1-.6v1.1s0,0,0,0c-.1,0,.1,0,.1,0,0,0,.1,0,0,0,0,0,0,0,0,0,0,0,.2,0,.3-.1.2,0,.4-.1.6-.2.4-.1.7-.3,1.1-.4.8-.2,1.6-.4,2.3-.5s.2,0,.3,0,.1,0,.2,0c.1,0-.1,0,0,0s.4,0,.6,0c.4,0,.8,0,1.2,0,.8,0,1.6,0,2.4,0s.4,0,.6,0,.2,0,.3,0,.1,0,.2,0,0,0,0,0c0,0,0,0,0,0,.4,0,.8.1,1.2.2.8.2,1.6.3,2.3.6s.8.2,1.1.4.4.1.5.2,0,0,.1,0,0,0,0,0c0,0,0,0,0,0,0,0,.2,0,.3.1.7.3,1.4.7,2.1,1.1s1.3.8,2,1.3,0,0,0,0,0,0,0,0,0,0,0,0c0,0,.2.1.2.2.2.1.3.2.5.4.3.3.6.5.9.8s.3.3.4.4.5.2.7,0,.2-.5,0-.7h0Z"/>
      <path class="st2" d="M81.5,48.3c-.4-.2-.7-.3-1.1-.4s-.7-.2-1-.3c-.7-.2-1.4-.5-2.1-.7-1.4-.4-2.9-.8-4.3-1.2s-2.9-.7-4.3-1-2.9-.6-4.4-.8-3.3-.2-4.9.2-.4.3-.3.6.3.4.6.3c.7-.1,1.3-.2,2-.2s.7,0,1.1,0,.3,0,.5,0,.2,0,.3,0,.2,0,.2,0c1.4.2,2.8.5,4.2.9,2.8.7,5.6,1.5,8.5,2.2s1.6.4,2.4.7.8.2,1.2.3.8.2,1.2.3.5,0,.6-.3,0-.5-.2-.6h0Z"/>
      <path class="st2" d="M81.4,49.2c2.1-1.2,4.2-2.3,6.4-3.5s4.3-2.2,6.5-3.3,2.5-1.2,3.7-1.7.3-.5.2-.7-.4-.3-.7-.2c-2.2,1-4.4,2-6.6,3s-4.3,2.2-6.4,3.4-2.3,1.4-3.5,2.2,0,.9.4.7h0Z"/>
    </g>
    <path class="st2" d="M81.2,49.6c.3,0,.5-.2.5-.5s-.2-.5-.5-.5-.5.2-.5.5.2.5.5.5h0Z"/>
    <g>
      <path class="st2" d="M79,106.7c-3.1-.6-6.3-.4-9.4.2s-6,1.8-8.7,3.3-3,1.9-4.3,3.1-.2,1,.3,1.1c1.8.3,3.5.5,5.3.6s3.6,0,5.3-.3c2.9-.4,5.8-1.5,8.2-3.3s2.6-2.2,3.5-3.6l-1.4-.2c.4,1.6,1.2,3.1,2.2,4.4s2.3,2.3,3.7,3.1,3.1,1.4,4.8,1.7,4,.3,6,0,3.8-.9,5.6-1.7.4-.2.7-.3.4-.4.4-.7-.2-.6-.4-.7c-2.6-1.6-5.3-3.1-8-4.3s-5.6-2.3-8.7-2.8-3.4-.4-5.1-.3-.7.2-.8.6,0,.7.4.9c.6.4,1.2.8,1.8,1.2s1.2.7,1.8,1.1,1.2.7,1.9,1,.6.3,1,.5.3.1.4.2.2,0,.2.1c.1,0,.3.1.4.2s-.1,0,0,0,.1,0,.2,0,.2,0,.2.1c.2,0,.3.1.5.2.3.1.7.3,1,.4.7.2,1.3.5,2,.7,1.4.4,2.7.7,4.1.9s.4,0,.6,0,.2,0,.3,0,.1,0,.2,0c.2,0,0,0,0,0,.4,0,.8.1,1.2.2.8,0,1.6.2,2.4.2s.5-.2.5-.5-.2-.5-.5-.5c-1.4,0-2.8-.2-4.1-.4s-2.7-.6-4.1-1-1.3-.4-2-.7-.6-.2-.9-.4-.3-.1-.5-.2c.1,0,0,0,0,0,0,0-.2,0-.3-.1-1.3-.6-2.5-1.2-3.7-1.9s-1.3-.8-2-1.3-.3-.2-.5-.3-.1-.1-.2-.2c-.2-.1.2.2,0,0s-.1-.1-.2-.2c0,0,.1.1,0,0s0,0-.1,0c0,0-.2-.1-.2-.2s-.2-.1-.2-.2h-.2c0-.1,0,0,0,0,0,0-.4-.3-.2-.1l-.6,1.4c.7,0,1.5,0,2.2,0s.7,0,1.1,0,.3,0,.5,0,0,0,.1,0c0,0,.2,0,0,0,0,0,.2,0,.3,0,1.4.2,2.9.6,4.3,1s1.4.5,2.1.7.3.1.5.2.2,0,.2,0,0,0,.1,0,.2,0,0,0c.3.1.7.3,1,.4,1.4.6,2.7,1.3,4,2s3,1.6,4.4,2.5v-1.4c-.2.1-.4.2-.6.3s-.2,0-.3.1,0,0,0,0c0,0,.1,0,0,0s-.1,0-.2,0c-.4.2-.9.3-1.3.5-.9.3-1.8.6-2.7.7s-.5,0-.7.1-.2,0-.3,0-.1,0-.2,0,0,0,0,0c0,0,.2,0,0,0-.5,0-.9.1-1.4.1-.9,0-1.9,0-2.8,0s-.1,0-.2,0,.2,0,0,0,0,0,0,0c-.1,0-.2,0-.4,0-.2,0-.5,0-.7-.1-.4,0-.8-.2-1.2-.3s-.7-.2-1.1-.4,0,0,0,0,.2,0,0,0,0,0-.1,0c0,0-.2,0-.3-.1-.2,0-.3-.2-.5-.3-.7-.4-1.3-.8-1.9-1.2s.1.1,0,0,0,0,0,0c0,0,0,0-.1,0,0,0-.2-.1-.2-.2-.2-.1-.3-.3-.4-.4-.3-.3-.5-.5-.8-.8s-.2-.3-.4-.4-.1-.1-.2-.2.1.1,0,0,0,0,0,0c0,0,0,0,0-.1-.2-.3-.4-.6-.6-1s-.4-.7-.5-1,0,0,0-.1c0-.1,0,.1,0,0s0-.2-.1-.3c0-.2-.1-.4-.2-.5s-.1-.4-.2-.5c0-.3-.3-.5-.6-.5s-.6.1-.8.4-.2.3-.3.4,0,.1-.1.2,0,0,0,0c0,0,0,0,0,0,0,0,0-.1,0,0-.2.3-.4.5-.7.8-.5.5-1,1-1.5,1.4s-.1.1-.2.2c-.1.1.1-.1,0,0s0,0,0,0c-.1.1-.3.2-.5.3-.3.2-.6.4-.9.6-.6.4-1.2.7-1.9,1s-.1,0-.2,0-.3.1,0,0c-.2,0-.3.1-.5.2-.3.1-.7.2-1,.4-.7.2-1.5.4-2.2.6s-.8.1-1.2.2c.2,0,0,0,0,0,0,0,0,0-.1,0,0,0-.2,0-.3,0-.2,0-.5,0-.7,0-.9,0-1.7,0-2.6,0s-1.9,0-2.9-.2-.2,0-.4,0-.2,0,0,0c0,0-.1,0-.2,0-.2,0-.5,0-.7-.1-.5,0-1-.2-1.4-.3l.3,1.1c.3-.3.6-.5.9-.7s.1-.1.2-.2,0,0,.1,0,.2-.1,0,0c.1-.1.3-.2.4-.3.6-.4,1.2-.9,1.9-1.3s1.3-.8,2-1.1.7-.3,1-.5.3-.2.5-.2,0,0,.1,0c.2,0,0,0,0,0s.2,0,.3-.1c1.4-.6,2.8-1,4.3-1.4s1.5-.3,2.2-.4.2,0,.3,0,0,0,.1,0c.2,0-.1,0,0,0s.4,0,.6,0c.4,0,.7,0,1.1,0,1.7-.1,3.4,0,5.1,0s.7-.9.1-1h0Z"/>
      <path class="st2" d="M78.1,107.2c-.7,0-1.4.2-2,.5s-1.3.5-2,.7c-1.3.5-2.6,1-3.9,1.5-2.6,1-5.2,2-7.7,3s-1.4.5-2.1.6-.2,0-.3,0,0,0-.1,0c0,0,0,0,0,0-.2,0-.4,0-.6,0-.4,0-.8,0-1.1,0s-.6.3-.6.6.3.6.6.6c1.4.2,2.8-.1,4-.6s2.6-1,3.8-1.5c2.6-1,5.2-2,7.8-3.1s1.4-.6,2.2-.9.8-.3,1.1-.5.7-.4,1-.6.1-.4,0-.4h0Z"/>
      <path class="st2" d="M78.2,107.5c-.3.8-.5,1.7-.7,2.6s-.3,1.8-.4,2.7c-.2,1.8-.2,3.5,0,5.3s.2,2,.4,3,.5.6.8.5.5-.4.5-.8-.2-.9-.2-1.3,0-.4,0-.6,0,0,0,0,0,0,0-.1c0-.1,0-.2,0-.4,0-.9-.2-1.7-.2-2.6,0-1.7,0-3.5.2-5.2s0-.2,0-.3,0-.3,0-.4c0-.2,0-.5.1-.7,0-.5.2-1,.2-1.5s-.2-.3-.3-.3-.3,0-.4.3h0Z"/>
    </g>
    <path class="st2" d="M44.7,56.9c2.4,0,4.7,0,7.1,0s4.7,0,7.1-.1,4.7,0,7.1-.2,4.7-.1,7.1-.2,4.7,0,7.1-.1,4.7,0,7.1-.1,4.7,0,7.1-.1,4.7,0,7.1-.1,4.7,0,7.1-.1,4.7-.1,7.1-.2,1.2,0,1.7,0,.6-.3.6-.6-.3-.6-.6-.6c-1.2,0-2.4,0-3.6,0s-2.4,0-3.5,0c-2.4,0-4.7,0-7.1,0s-4.7,0-7.1,0-4.7,0-7.1,0-4.7,0-7.1.1-4.7,0-7.1.1-4.7.1-7.1.2-4.7.1-7.1.2-4.7.2-7.1.2-4.7.2-7.1.3-1.2,0-1.7.1-.7.3-.7.7.3.7.7.7h0Z"/>
    <path class="st2" d="M44.7,103.5c2.4,0,4.7,0,7.1,0s4.7,0,7.1-.1,4.7,0,7.1-.2,4.7-.1,7.1-.2,4.7,0,7.1-.1,4.7,0,7.1-.1,4.7,0,7.1-.1,4.7,0,7.1-.1,4.7,0,7.1-.1,4.7-.1,7.1-.2,1.2,0,1.7,0,.6-.3.6-.6-.3-.6-.6-.6c-1.2,0-2.4,0-3.6,0s-2.4,0-3.5,0c-2.4,0-4.7,0-7.1,0s-4.7,0-7.1,0-4.7,0-7.1,0-4.7,0-7.1.1-4.7,0-7.1.1-4.7.1-7.1.2-4.7.1-7.1.2-4.7.2-7.1.2-4.7.2-7.1.3-1.2,0-1.7.1-.7.3-.7.7.3.7.7.7h0Z"/>
  </g>
  <g>
    <text class="st0" transform="translate(41 76.6)"><tspan x="0" y="0">DOAL</tspan></text>
    <text class="st1" transform="translate(41 98.9)"><tspan x="0" y="0">100%</tspan></text>
  </g>
</svg>